VG5000-Regular.ufo
<glyph name="parenleft" format="1">
  <advance width="400"/>
  <unicode hex="0028"/>
  <outline>
    <contour>
      <point x="50" y="600" type="line"/>
      <point x="50" y="100" type="line"/>
      <point x="150" y="100" type="line"/>
      <point x="150" y="600" type="line"/>
    </contour>
    <contour>
      <point x="150" y="100" type="line"/>
      <point x="150" y="0" type="line"/>
      <point x="250" y="0" type="line"/>
      <point x="250" y="100" type="line"/>
    </contour>
    <contour>
      <point x="250" y="0" type="line"/>
      <point x="250" y="-100" type="line"/>
      <point x="350" y="-100" type="line"/>
      <point x="350" y="0" type="line"/>
    </contour>
    <contour>
      <point x="150" y="700" type="line"/>
      <point x="150" y="600" type="line"/>
      <point x="250" y="600" type="line"/>
      <point x="250" y="700" type="line"/>
    </contour>
    <contour>
      <point x="250" y="800" type="line"/>
      <point x="250" y="700" type="line"/>
      <point x="350" y="700" type="line"/>
      <point x="350" y="800" type="line"/>
    </contour>
  </outline>
</glyph>
<glyph name="plus" format="1">
  <advance width="600"/>
  <unicode hex="002B"/>
  <outline>
    <contour>
      <point x="50" y="300" type="line"/>
      <point x="50" y="200" type="line"/>
      <point x="550" y="200" type="line"/>
      <point x="550" y="300" type="line"/>
    </contour>
    <contour>
      <point x="250" y="500" type="line"/>
      <point x="250" y="0" type="line"/>
      <point x="350" y="0" type="line"/>
      <point x="350" y="500" type="line"/>
    </contour>
  </outline>
</glyph>
<glyph name="hyphen" format="1">
  <advance width="400"/>
  <unicode hex="002D"/>
  <outline>
    <contour>
      <point x="50" y="300" type="line"/>
      <point x="50" y="200" type="line"/>
      <point x="350" y="200" type="line"/>
      <point x="350" y="300" type="line"/>
    </contour>
  </outline>
</glyph>
<glyph name="zero" format="1">
  <advance width="600"/>
  <unicode hex="0030"/>
  <outline>
    <contour>
      <point x="250" y="700" type="line"/>
      <point x="50" y="450" type="line"/>
      <point x="50" y="250" type="line"/>
      <point x="250" y="0" type="line"/>
      <point x="350" y="0" type="line"/>
      <point x="550" y="250" type="line"/>
      <point x="550" y="450" type="line"/>
      <point x="350" y="700" type="line"/>
    </contour>
    <contour>
      <point x="250" y="675" type="line"/>
      <point x="450" y="425" type="line"/>
      <point x="450" y="275" type="line"/>
      <point x="250" y="25" type="line"/>
      <point x="350" y="25" type="line"/>
      <point x="150" y="275" type="line"/>
      <point x="150" y="425" type="line"/>
      <point x="350" y="675" type="line"/>
    </contour>
  </outline>
</glyph>
<glyph name="colon" format="1">
  <advance width="200"/>
  <unicode hex="003A"/>
  <outline>
    <contour>
      <point x="50" y="500" type="line"/>
      <point x="50" y="400" type="line"/>
      <point x="150" y="400" type="line"/>
      <point x="150" y="500" type="line"/>
    </contour>
    <contour>
      <point x="50" y="100" type="line"/>
      <point x="50" y="0" type="line"/>
      <point x="150" y="0" type="line"/>
      <point x="150" y="100" type="line"/>
    </contour>
  </outline>
</glyph>
<glyph name="equal" format="1">
  <advance width="600"/>
  <unicode hex="003D"/>
  <outline>
    <contour>
      <point x="50" y="400" type="line"/>
      <point x="50" y="300" type="line"/>
      <point x="550" y="300" type="line"/>
      <point x="550" y="400" type="line"/>
    </contour>
    <contour>
      <point x="50" y="200" type="line"/>
      <point x="50" y="100" type="line"/>
      <point x="550" y="100" type="line"/>
      <point x="550" y="200" type="line"/>
    </contour>
  </outline>
</glyph>
<glyph name="A" format="1">
  <advance width="700"/>
  <unicode hex="0041"/>
  <outline>
    <contour>
      <point x="150" y="200" type="line"/>
      <point x="550" y="200" type="line"/>
      <point x="550" y="300" type="line"/>
      <point x="150" y="300" type="line"/>
    </contour>
    <contour>
      <point x="25" y="0" type="line"/>
      <point x="125" y="0" type="line"/>
      <point x="375" y="700" type="line"/>
      <point x="275" y="700" type="line"/>
    </contour>
    <contour>
      <point x="575" y="0" type="line"/>
      <point x="675" y="0" type="line"/>
      <point x="425" y="700" type="line"/>
      <point x="325" y="700" type="line"/>
    </contour>
  </outline>
</glyph>
<glyph name="B" format="1">
  <advance width="550"/>
  <unicode hex="0042"/>
  <outline>
    <contour>
      <point x="50" y="0" type="line"/>
      <point x="150" y="0" type="line"/>
      <point x="150" y="700" type="line"/>
      <point x="50" y="700" type="line"/>
    </contour>
    <contour>
      <point x="150" y="300" type="line"/>
      <point x="300" y="300" type="line"/>
      <point x="375" y="300"/>
      <point x="425" y="275"/>
      <point x="425" y="200" type="curve"/>
      <point x="425" y="125"/>
      <point x="375" y="100"/>
      <point x="300" y="100" type="curve"/>
      <point x="150" y="100" type="line"/>
      <point x="150" y="0" type="line"/>
      <point x="300" y="0" type="line"/>
      <point x="450" y="0"/>
      <point x="525" y="75"/>
      <point x="525" y="200" type="curve"/>
      <point x="525" y="325"/>
      <point x="450" y="375"/>
      <point x="300" y="375" type="curve"/>
      <point x="150" y="375" type="line"/>
    </contour>
    <contour>
      <point x="100" y="600" type="line"/>
      <point x="250" y="600" type="line"/>
      <point x="325" y="600"/>
      <point x="375" y="575"/>
      <point x="375" y="500" type="curve"/>
      <point x="375" y="425"/>
      <point x="325" y="400"/>
      <point x="250" y="400" type="curve"/>
      <point x="100" y="400" type="line"/>
      <point x="100" y="325" type="line"/>
      <point x="250" y="325" type="line"/>
      <point x="400" y="325"/>
      <point x="475" y="375"/>
      <point x="475" y="500" type="curve"/>
      <point x="475" y="625"/>
      <point x="400" y="700"/>
      <point x="250" y="700" type="curve"/>
      <point x="100" y="700" type="line"/>
    </contour>
    <contour>
      <point x="150" y="0" type="line"/>
      <point x="150" y="700" type="line"/>
      <point x="50" y="700" type="line"/>
      <point x="50" y="0" type="line"/>
    </contour>
  </outline>
</glyph>
<glyph name="C" format="1">
  <advance width="600"/>
  <unicode hex="0043"/>
  <outline>
    <contour>
      <point x="175" y="700"/>
      <point x="25" y="575"/>
      <point x="25" y="350" type="curve"/>
      <point x="25" y="125"/>
      <point x="175" y="0"/>
      <point x="375" y="0" type="curve"/>
      <point x="475" y="0"/>
      <point x="550" y="50"/>
      <point x="550" y="50" type="curve"/>
      <point x="550" y="150" type="line"/>
      <point x="550" y="150"/>
      <point x="475" y="100"/>
      <point x="375" y="100" type="curve"/>
      <point x="250" y="100"/>
      <point x="125" y="175"/>
      <point x="125" y="350" type="curve"/>
      <point x="125" y="525"/>
      <point x="250" y="600"/>
      <point x="375" y="600" type="curve"/>
      <point x="475" y="600"/>
      <point x="550" y="550"/>
      <point x="550" y="550" type="curve"/>
      <point x="550" y="650" type="line"/>
      <point x="550" y="650"/>
      <point x="475" y="700"/>
      <point x="375" y="700" type="curve"/>
    </contour>
  </outline>
</glyph>
<glyph name="D" format="1">
  <advance width="550"/>
  <unicode hex="0044"/>
  <outline>
    <contour>
      <point x="150" y="700" type="line"/>
      <point x="150" y="600" type="line"/>
      <point x="175" y="600" type="line"/>
      <point x="300" y="600"/>
      <point x="425" y="525"/>
      <point x="425" y="350" type="curve"/>
      <point x="425" y="175"/>
      <point x="300" y="100"/>
      <point x="175" y="100" type="curve"/>
      <point x="150" y="100" type="line"/>
      <point x="150" y="0" type="line"/>
      <point x="175" y="0" type="line"/>
      <point x="375" y="0"/>
      <point x="525" y="150"/>
      <point x="525" y="350" type="curve"/>
      <point x="525" y="550"/>
      <point x="375" y="700"/>
      <point x="175" y="700" type="curve"/>
    </contour>
    <contour>
      <point x="50" y="700" type="line"/>
      <point x="50" y="0" type="line"/>
      <point x="150" y="0" type="line"/>
      <point x="150" y="700" type="line"/>
    </contour>
  </outline>
</glyph>
<glyph name="F" format="1">
  <advance width="500"/>
  <unicode hex="0046"/>
  <outline>
    <contour>
      <point x="50" y="700" type="line"/>
      <point x="50" y="0" type="line"/>
      <point x="150" y="0" type="line"/>
      <point x="150" y="700" type="line"/>
    </contour>
    <contour>
      <point x="150" y="400" type="line"/>
      <point x="150" y="300" type="line"/>
      <point x="350" y="300" type="line"/>
      <point x="350" y="400" type="line"/>
    </contour>
    <contour>
      <point x="150" y="700" type="line"/>
      <point x="150" y="600" type="line"/>
      <point x="450" y="600" type="line"/>
      <point x="450" y="700" type="line"/>
    </contour>
  </outline>
</glyph>
<glyph name="G" format="1">
  <advance width="600"/>
  <unicode hex="0047"/>
  <outline>
    <contour>
      <point x="175" y="700"/>
      <point x="25" y="575"/>
      <point x="25" y="350" type="curve"/>
      <point x="25" y="125"/>
      <point x="175" y="0"/>
      <point x="375" y="0" type="curve"/>
      <point x="475" y="0"/>
      <point x="550" y="25"/>
      <point x="550" y="25" type="curve"/>
      <point x="550" y="100" type="line"/>
      <point x="375" y="100" type="line"/>
      <point x="250" y="100"/>
      <point x="125" y="175"/>
      <point x="125" y="350" type="curve"/>
      <point x="125" y="525"/>
      <point x="250" y="600"/>
      <point x="375" y="600" type="curve"/>
      <point x="475" y="600"/>
      <point x="550" y="550"/>
      <point x="550" y="550" type="curve"/>
      <point x="550" y="650" type="line"/>
      <point x="550" y="650"/>
      <point x="475" y="700"/>
      <point x="375" y="700" type="curve"/>
    </contour>
    <contour>
      <point x="350" y="300" type="line"/>
      <point x="350" y="200" type="line"/>
      <point x="450" y="200" type="line"/>
      <point x="450" y="300" type="line"/>
    </contour>
    <contour>
      <point x="450" y="300" type="line"/>
      <point x="450" y="100" type="line"/>
      <point x="550" y="100" type="line"/>
      <point x="550" y="300" type="line"/>
    </contour>
  </outline>
</glyph>
<glyph name="J" format="1">
  <advance width="600"/>
  <unicode hex="004A"/>
  <outline>
    <contour>
      <point x="250" y="700" type="line"/>
      <point x="250" y="600" type="line"/>
      <point x="550" y="600" type="line"/>
      <point x="550" y="700" type="line"/>
    </contour>
    <contour>
      <point x="350" y="700" type="line"/>
      <point x="350" y="225" type="line"/>
      <point x="350" y="150"/>
      <point x="300" y="100"/>
      <point x="225" y="100" type="curve"/>
      <point x="125" y="100"/>
      <point x="50" y="200"/>
      <point x="50" y="200" type="curve"/>
      <point x="50" y="75" type="line"/>
      <point x="50" y="75"/>
      <point x="100" y="0"/>
      <point x="225" y="0" type="curve"/>
      <point x="350" y="0"/>
      <point x="450" y="75"/>
      <point x="450" y="225" type="curve"/>
      <point x="450" y="700" type="line"/>
    </contour>
  </outline>
</glyph>
<glyph name="K" format="1">
  <advance width="550"/>
  <unicode hex="004B"/>
  <outline>
    <contour>
      <point x="50" y="700" type="line"/>
      <point x="50" y="0" type="line"/>
      <point x="150" y="0" type="line"/>
      <point x="150" y="700" type="line"/>
    </contour>
    <contour>
      <point x="250" y="500" type="line"/>
      <point x="150" y="350" type="line"/>
      <point x="75" y="100" type="line"/>
      <point x="525" y="700" type="line"/>
      <point x="400" y="700" type="line"/>
    </contour>
    <contour>
      <point x="225" y="400" type="line"/>
      <point x="175" y="300" type="line"/>
      <point x="400" y="0" type="line"/>
      <point x="525" y="0" type="line"/>
    </contour>
  </outline>
</glyph>
<glyph name="M" format="1">
  <advance width="650"/>
  <unicode hex="004D"/>
  <outline>
    <contour>
      <point x="500" y="700" type="line"/>
      <point x="325" y="475" type="line"/>
      <point x="150" y="700" type="line"/>
      <point x="50" y="700" type="line"/>
      <point x="50" y="0" type="line"/>
      <point x="150" y="0" type="line"/>
      <point x="150" y="550" type="line"/>
      <point x="325" y="325" type="line"/>
      <point x="500" y="550" type="line"/>
      <point x="500" y="0" type="line"/>
      <point x="600" y="0" type="line"/>
      <point x="600" y="700" type="line"/>
    </contour>
  </outline>
</glyph>
<glyph name="N" format="1">
  <advance width="600"/>
  <unicode hex="004E"/>
  <outline>
    <contour>
      <point x="450" y="700" type="line"/>
      <point x="450" y="150" type="line"/>
      <point x="475" y="150" type="line"/>
      <point x="150" y="700" type="line"/>
      <point x="50" y="700" type="line"/>
      <point x="50" y="0" type="line"/>
      <point x="150" y="0" type="line"/>
      <point x="150" y="550" type="line"/>
      <point x="125" y="550" type="line"/>
      <point x="450" y="0" type="line"/>
      <point x="550" y="0" type="line"/>
      <point x="550" y="700" type="line"/>
    </contour>
  </outline>
</glyph>
<glyph name="O" format="1">
  <advance width="700"/>
  <unicode hex="004F"/>
  <outline>
    <contour>
      <point x="150" y="700"/>
      <point x="25" y="550"/>
      <point x="25" y="350" type="curve"/>
      <point x="25" y="150"/>
      <point x="150" y="0"/>
      <point x="350" y="0" type="curve"/>
      <point x="550" y="0"/>
      <point x="675" y="150"/>
      <point x="675" y="350" type="curve"/>
      <point x="675" y="550"/>
      <point x="550" y="700"/>
      <point x="350" y="700" type="curve"/>
    </contour>
    <contour>
      <point x="475" y="600"/>
      <point x="575" y="500"/>
      <point x="575" y="350" type="curve"/>
      <point x="575" y="200"/>
      <point x="475" y="100"/>
      <point x="350" y="100" type="curve"/>
      <point x="225" y="100"/>
      <point x="125" y="200"/>
      <point x="125" y="350" type="curve"/>
      <point x="125" y="500"/>
      <point x="225" y="600"/>
      <point x="350" y="600" type="curve"/>
    </contour>
  </outline>
</glyph>
<glyph name="P" format="1">
  <advance width="550"/>
  <unicode hex="0050"/>
  <outline>
    <contour>
      <point x="300" y="300" type="line"/>
      <point x="450" y="300"/>
      <point x="525" y="375"/>
      <point x="525" y="500" type="curve"/>
      <point x="525" y="625"/>
      <point x="450" y="700"/>
      <point x="300" y="700" type="curve"/>
      <point x="150" y="700" type="line"/>
      <point x="150" y="600" type="line"/>
      <point x="300" y="600" type="line"/>
      <point x="375" y="600"/>
      <point x="425" y="575"/>
      <point x="425" y="500" type="curve"/>
      <point x="425" y="425"/>
      <point x="375" y="400"/>
      <point x="300" y="400" type="curve"/>
      <point x="150" y="400" type="line"/>
      <point x="150" y="300" type="line"/>
    </contour>
    <contour>
      <point x="150" y="0" type="line"/>
      <point x="150" y="700" type="line"/>
      <point x="50" y="700" type="line"/>
      <point x="50" y="0" type="line"/>
    </contour>
  </outline>
</glyph>
<glyph name="Q" format="1">
  <advance width="700"/>
  <unicode hex="0051"/>
  <outline>
    <contour>
      <point x="650" y="200"/>
      <point x="675" y="275"/>
      <point x="675" y="350" type="curve"/>
      <point x="675" y="550"/>
      <point x="550" y="700"/>
      <point x="350" y="700" type="curve"/>
      <point x="150" y="700"/>
      <point x="25" y="550"/>
      <point x="25" y="350" type="curve"/>
      <point x="25" y="150"/>
      <point x="150" y="0"/>
      <point x="350" y="0" type="curve"/>
      <point x="450" y="0" type="line"/>
      <point x="450" y="100" type="line"/>
      <point x="350" y="100" type="line"/>
      <point x="225" y="100"/>
      <point x="125" y="200"/>
      <point x="125" y="350" type="curve"/>
      <point x="125" y="500"/>
      <point x="225" y="600"/>
      <point x="350" y="600" type="curve"/>
      <point x="475" y="600"/>
      <point x="575" y="500"/>
      <point x="575" y="350" type="curve"/>
      <point x="575" y="275"/>
      <point x="550" y="200"/>
      <point x="550" y="200" type="curve"/>
      <point x="650" y="200" type="line"/>
    </contour>
    <contour>
      <point x="550" y="0" type="line"/>
      <point x="650" y="0" type="line"/>
      <point x="650" y="100" type="line"/>
      <point x="550" y="100" type="line"/>
    </contour>
    <contour>
      <point x="450" y="100" type="line"/>
      <point x="550" y="100" type="line"/>
      <point x="550" y="200" type="line"/>
      <point x="450" y="200" type="line"/>
    </contour>
    <contour>
      <point x="350" y="200" type="line"/>
      <point x="450" y="200" type="line"/>
      <point x="450" y="300" type="line"/>
      <point x="350" y="300" type="line"/>
    </contour>
  </outline>
</glyph>
<glyph name="S" format="1">
  <advance width="500"/>
  <unicode hex="0053"/>
  <outline>
    <contour>
      <point x="475" y="425"/>
      <point x="125" y="375"/>
      <point x="125" y="500" type="curve" smooth="yes"/>
      <point x="125" y="550"/>
      <point x="150" y="600"/>
      <point x="250" y="600" type="curve"/>
      <point x="350" y="600"/>
      <point x="450" y="550"/>
      <point x="450" y="550" type="curve"/>
      <point x="450" y="650" type="line"/>
      <point x="450" y="650"/>
      <point x="375" y="700"/>
      <point x="250" y="700" type="curve"/>
      <point x="125" y="700"/>
      <point x="25" y="625"/>
      <point x="25" y="500" type="curve" smooth="yes"/>
      <point x="25" y="275"/>
      <point x="375" y="325"/>
      <point x="375" y="200" type="curve" smooth="yes"/>
      <point x="375" y="150"/>
      <point x="350" y="100"/>
      <point x="250" y="100" type="curve"/>
      <point x="150" y="100"/>
      <point x="50" y="150"/>
      <point x="50" y="150" type="curve"/>
      <point x="50" y="50" type="line"/>
      <point x="50" y="50"/>
      <point x="125" y="0"/>
      <point x="250" y="0" type="curve"/>
      <point x="375" y="0"/>
      <point x="475" y="75"/>
      <point x="475" y="200" type="curve" smooth="yes"/>
    </contour>
  </outline>
</glyph>
<glyph name="T" format="1">
  <advance width="600"/>
  <unicode hex="0054"/>
  <outline>
    <contour>
      <point x="250" y="600" type="line"/>
      <point x="250" y="0" type="line"/>
      <point x="350" y="0" type="line"/>
      <point x="350" y="600" type="line"/>
    </contour>
    <contour>
      <point x="50" y="700" type="line"/>
      <point x="50" y="600" type="line"/>
      <point x="550" y="600" type="line"/>
      <point x="550" y="700" type="line"/>
    </contour>
  </outline>
</glyph>
<glyph name="V" format="1">
  <advance width="650"/>
  <unicode hex="0056"/>
  <outline>
    <contour>
      <point x="625" y="700" type="line"/>
      <point x="525" y="700" type="line"/>
      <point x="300" y="0" type="line"/>
      <point x="400" y="0" type="line"/>
    </contour>
    <contour>
      <point x="125" y="700" type="line"/>
      <point x="25" y="700" type="line"/>
      <point x="250" y="0" type="line"/>
      <point x="350" y="0" type="line"/>
    </contour>
  </outline>
</glyph>
<glyph name="W" format="1">
  <advance width="650"/>
  <unicode hex="0057"/>
  <outline>
    <contour>
      <point x="525" y="700" type="line"/>
      <point x="475" y="0" type="line"/>
      <point x="575" y="0" type="line"/>
      <point x="625" y="700" type="line"/>
    </contour>
    <contour>
      <point x="25" y="700" type="line"/>
      <point x="75" y="0" type="line"/>
      <point x="175" y="0" type="line"/>
      <point x="125" y="700" type="line"/>
    </contour>
    <contour>
      <point x="375" y="400" type="line"/>
      <point x="275" y="400" type="line"/>
      <point x="100" y="0" type="line"/>
      <point x="175" y="0" type="line"/>
      <point x="325" y="275" type="line"/>
      <point x="475" y="0" type="line"/>
      <point x="550" y="0" type="line"/>
    </contour>
  </outline>
</glyph>
<glyph name="X" format="1">
  <advance width="650"/>
  <unicode hex="0058"/>
  <outline>
    <contour>
      <point x="175" y="475" type="line"/>
      <point x="275" y="350" type="line"/>
      <point x="500" y="0" type="line"/>
      <point x="625" y="0" type="line"/>
      <point x="475" y="225" type="line"/>
      <point x="375" y="350" type="line"/>
      <point x="150" y="700" type="line"/>
      <point x="25" y="700" type="line"/>
    </contour>
    <contour>
      <point x="500" y="700" type="line"/>
      <point x="275" y="350" type="line"/>
      <point x="175" y="225" type="line"/>
      <point x="25" y="0" type="line"/>
      <point x="150" y="0" type="line"/>
      <point x="375" y="350" type="line"/>
      <point x="475" y="475" type="line"/>
      <point x="625" y="700" type="line"/>
    </contour>
  </outline>
</glyph>
<glyph name="Y" format="1">
  <advance width="700"/>
  <unicode hex="0059"/>
  <outline>
    <contour>
      <point x="350" y="450" type="line"/>
      <point x="150" y="700" type="line"/>
      <point x="25" y="700" type="line"/>
      <point x="325" y="325" type="line"/>
      <point x="300" y="375" type="line"/>
      <point x="300" y="0" type="line"/>
      <point x="400" y="0" type="line"/>
      <point x="400" y="375" type="line"/>
      <point x="375" y="325" type="line"/>
      <point x="675" y="700" type="line"/>
      <point x="550" y="700" type="line"/>
    </contour>
  </outline>
</glyph>
<glyph name="Z" format="1">
  <advance width="600"/>
  <unicode hex="005A"/>
  <outline>
    <contour>
      <point x="50" y="700" type="line"/>
      <point x="50" y="600" type="line"/>
      <point x="425" y="600" type="line"/>
      <point x="50" y="100" type="line"/>
      <point x="50" y="0" type="line"/>
      <point x="550" y="0" type="line"/>
      <point x="550" y="100" type="line"/>
      <point x="175" y="100" type="line"/>
      <point x="550" y="600" type="line"/>
      <point x="550" y="700" type="line"/>
    </contour>
  </outline>
</glyph>
<glyph name="backslash" format="1">
  <advance width="900"/>
  <unicode hex="005C"/>
  <outline>
    <contour>
      <point x="150" y="700" type="line"/>
      <point x="150" y="500" type="line"/>
      <point x="250" y="500" type="line"/>
      <point x="250" y="700" type="line"/>
    </contour>
    <contour>
      <point x="650" y="0" type="line"/>
      <point x="650" y="-100" type="line"/>
      <point x="750" y="-100" type="line"/>
      <point x="750" y="0" type="line"/>
    </contour>
    <contour>
      <point x="750" y="-100" type="line"/>
      <point x="750" y="-200" type="line"/>
      <point x="850" y="-200" type="line"/>
      <point x="850" y="-100" type="line"/>
    </contour>
    <contour>
      <point x="550" y="200" type="line"/>
      <point x="550" y="0" type="line"/>
      <point x="650" y="0" type="line"/>
      <point x="650" y="200" type="line"/>
    </contour>
    <contour>
      <point x="250" y="500" type="line"/>
      <point x="250" y="400" type="line"/>
      <point x="350" y="400" type="line"/>
      <point x="350" y="500" type="line"/>
    </contour>
    <contour>
      <point x="350" y="400" type="line"/>
      <point x="350" y="300" type="line"/>
      <point x="450" y="300" type="line"/>
      <point x="450" y="400" type="line"/>
    </contour>
    <contour>
      <point x="450" y="300" type="line"/>
      <point x="450" y="200" type="line"/>
      <point x="550" y="200" type="line"/>
      <point x="550" y="300" type="line"/>
    </contour>
    <contour>
      <point x="50" y="800" type="line"/>
      <point x="50" y="700" type="line"/>
      <point x="150" y="700" type="line"/>
      <point x="150" y="800" type="line"/>
    </contour>
  </outline>
</glyph>
<glyph name="bracketright" format="1">
  <advance width="400"/>
  <unicode hex="005D"/>
  <outline>
    <contour>
      <point x="250" y="700" type="line"/>
      <point x="250" y="0" type="line"/>
      <point x="350" y="0" type="line"/>
      <point x="350" y="700" type="line"/>
    </contour>
    <contour>
      <point x="50" y="0" type="line"/>
      <point x="50" y="-100" type="line"/>
      <point x="350" y="-100" type="line"/>
      <point x="350" y="0" type="line"/>
    </contour>
    <contour>
      <point x="50" y="800" type="line"/>
      <point x="50" y="700" type="line"/>
      <point x="350" y="700" type="line"/>
      <point x="350" y="800" type="line"/>
    </contour>
  </outline>
</glyph>
<glyph name="underscore" format="1">
  <advance width="800"/>
  <unicode hex="005F"/>
  <outline>
    <contour>
      <point x="50" y="0" type="line"/>
      <point x="50" y="-100" type="line"/>
      <point x="750" y="-100" type="line"/>
      <point x="750" y="0" type="line"/>
    </contour>
  </outline>
</glyph>
<glyph name="a" format="1">
  <advance width="550"/>
  <unicode hex="0061"/>
  <outline>
    <contour>
      <point x="125" y="500"/>
      <point x="25" y="400"/>
      <point x="25" y="250" type="curve"/>
      <point x="25" y="100"/>
      <point x="125" y="0"/>
      <point x="250" y="0" type="curve" smooth="yes"/>
      <point x="350" y="0"/>
      <point x="400" y="75"/>
      <point x="400" y="200" type="curve"/>
      <point x="400" y="300" type="line"/>
      <point x="400" y="425"/>
      <point x="350" y="500"/>
      <point x="250" y="500" type="curve" smooth="yes"/>
    </contour>
    <contour>
      <point x="350" y="400"/>
      <point x="400" y="350"/>
      <point x="400" y="250" type="curve"/>
      <point x="400" y="150"/>
      <point x="350" y="100"/>
      <point x="275" y="100" type="curve" smooth="yes"/>
      <point x="200" y="100"/>
      <point x="125" y="150"/>
      <point x="125" y="250" type="curve"/>
      <point x="125" y="350"/>
      <point x="200" y="400"/>
      <point x="275" y="400" type="curve" smooth="yes"/>
    </contour>
    <contour>
      <point x="400" y="500" type="line"/>
      <point x="400" y="0" type="line"/>
      <point x="500" y="0" type="line"/>
      <point x="500" y="500" type="line"/>
    </contour>
  </outline>
</glyph>
<glyph name="b" format="1">
  <advance width="500"/>
  <unicode hex="0062"/>
  <outline>
    <contour>
      <point x="150" y="0" type="line"/>
      <point x="150" y="700" type="line"/>
      <point x="50" y="700" type="line"/>
      <point x="50" y="0" type="line"/>
    </contour>
    <contour>
      <point x="375" y="0"/>
      <point x="475" y="100"/>
      <point x="475" y="250" type="curve"/>
      <point x="475" y="400"/>
      <point x="375" y="500"/>
      <point x="225" y="500" type="curve"/>
      <point x="150" y="500"/>
      <point x="100" y="475"/>
      <point x="100" y="475" type="curve"/>
      <point x="100" y="375" type="line"/>
      <point x="100" y="375"/>
      <point x="175" y="400"/>
      <point x="225" y="400" type="curve"/>
      <point x="300" y="400"/>
      <point x="375" y="350"/>
      <point x="375" y="250" type="curve"/>
      <point x="375" y="150"/>
      <point x="300" y="100"/>
      <point x="225" y="100" type="curve"/>
      <point x="150" y="100" type="line"/>
      <point x="150" y="0" type="line"/>
      <point x="225" y="0" type="line"/>
    </contour>
  </outline>
</glyph>
<glyph name="d" format="1">
  <advance width="500"/>
  <unicode hex="0064"/>
  <outline>
    <contour>
      <point x="450" y="700" type="line"/>
      <point x="350" y="700" type="line"/>
      <point x="350" y="0" type="line"/>
      <point x="450" y="0" type="line"/>
    </contour>
    <contour>
      <point x="350" y="0" type="line"/>
      <point x="350" y="100" type="line"/>
      <point x="275" y="100" type="line"/>
      <point x="200" y="100"/>
      <point x="125" y="150"/>
      <point x="125" y="250" type="curve"/>
      <point x="125" y="350"/>
      <point x="200" y="400"/>
      <point x="275" y="400" type="curve"/>
      <point x="325" y="400"/>
      <point x="400" y="375"/>
      <point x="400" y="375" type="curve"/>
      <point x="400" y="475" type="line"/>
      <point x="400" y="475"/>
      <point x="350" y="500"/>
      <point x="275" y="500" type="curve"/>
      <point x="125" y="500"/>
      <point x="25" y="400"/>
      <point x="25" y="250" type="curve"/>
      <point x="25" y="100"/>
      <point x="125" y="0"/>
      <point x="275" y="0" type="curve"/>
    </contour>
  </outline>
</glyph>
<glyph name="e" format="1">
  <advance width="500"/>
  <unicode hex="0065"/>
  <outline>
    <contour>
      <point x="475" y="225" type="line"/>
      <point x="475" y="250" type="line"/>
      <point x="475" y="400"/>
      <point x="375" y="500"/>
      <point x="250" y="500" type="curve" smooth="yes"/>
      <point x="125" y="500"/>
      <point x="25" y="400"/>
      <point x="25" y="250" type="curve" smooth="yes"/>
      <point x="25" y="100"/>
      <point x="125" y="0"/>
      <point x="275" y="0" type="curve" smooth="yes"/>
      <point x="375" y="0"/>
      <point x="425" y="50"/>
      <point x="425" y="50" type="curve"/>
      <point x="425" y="150" type="line"/>
      <point x="425" y="150"/>
      <point x="375" y="100"/>
      <point x="275" y="100" type="curve" smooth="yes"/>
      <point x="200" y="100"/>
      <point x="125" y="150"/>
      <point x="125" y="250" type="curve" smooth="yes"/>
      <point x="125" y="350"/>
      <point x="175" y="400"/>
      <point x="250" y="400" type="curve" smooth="yes"/>
      <point x="325" y="400"/>
      <point x="375" y="350"/>
      <point x="375" y="250" type="curve"/>
      <point x="400" y="300" type="line"/>
      <point x="75" y="300" type="line"/>
      <point x="75" y="225" type="line"/>
    </contour>
  </outline>
</glyph>
<glyph name="f" format="1">
  <advance width="450"/>
  <unicode hex="0066"/>
  <outline>
    <contour>
      <point x="250" y="600" type="line"/>
      <point x="400" y="600" type="line"/>
      <point x="400" y="700" type="line"/>
      <point x="350" y="700" type="line"/>
      <point x="225" y="700"/>
      <point x="150" y="625"/>
      <point x="150" y="500" type="curve"/>
      <point x="150" y="0" type="line"/>
      <point x="250" y="0" type="line"/>
    </contour>
    <contour>
      <point x="400" y="300" type="line"/>
      <point x="400" y="400" type="line"/>
      <point x="50" y="400" type="line"/>
      <point x="50" y="300" type="line"/>
    </contour>
  </outline>
</glyph>
<glyph name="g" format="1">
  <advance width="500"/>
  <unicode hex="0067"/>
  <outline>
    <contour>
      <point x="175" y="150"/>
      <point x="125" y="200"/>
      <point x="125" y="275" type="curve"/>
      <point x="125" y="350"/>
      <point x="175" y="400"/>
      <point x="250" y="400" type="curve"/>
      <point x="400" y="400" type="line"/>
      <point x="400" y="500" type="line"/>
      <point x="250" y="500" type="line"/>
      <point x="125" y="500"/>
      <point x="25" y="400"/>
      <point x="25" y="275" type="curve"/>
      <point x="25" y="150"/>
      <point x="125" y="50"/>
      <point x="250" y="50" type="curve"/>
      <point x="325" y="50"/>
      <point x="400" y="75"/>
      <point x="400" y="75" type="curve"/>
      <point x="400" y="175" type="line"/>
      <point x="400" y="175"/>
      <point x="300" y="150"/>
      <point x="250" y="150" type="curve"/>
    </contour>
    <contour>
      <point x="375" y="-200"/>
      <point x="450" y="-125"/>
      <point x="450" y="0" type="curve"/>
      <point x="450" y="500" type="line"/>
      <point x="350" y="500" type="line"/>
      <point x="350" y="0" type="line"/>
      <point x="350" y="-50"/>
      <point x="325" y="-100"/>
      <point x="250" y="-100" type="curve"/>
      <point x="175" y="-100"/>
      <point x="100" y="0"/>
      <point x="100" y="0" type="curve"/>
      <point x="100" y="-125" type="line"/>
      <point x="100" y="-125"/>
      <point x="150" y="-200"/>
      <point x="250" y="-200" type="curve"/>
    </contour>
  </outline>
</glyph>
<glyph name="j" format="1">
  <advance width="300"/>
  <unicode hex="006A"/>
  <outline>
    <contour>
      <point x="150" y="700" type="line"/>
      <point x="150" y="600" type="line"/>
      <point x="250" y="600" type="line"/>
      <point x="250" y="700" type="line"/>
    </contour>
    <contour>
      <point x="50" y="400" type="line"/>
      <point x="250" y="400" type="line"/>
      <point x="250" y="500" type="line"/>
      <point x="50" y="500" type="line"/>
    </contour>
    <contour>
      <point x="150" y="-100" type="line"/>
      <point x="0" y="-100" type="line"/>
      <point x="0" y="-200" type="line"/>
      <point x="100" y="-200" type="line"/>
      <point x="200" y="-200"/>
      <point x="250" y="-150"/>
      <point x="250" y="-50" type="curve"/>
      <point x="250" y="500" type="line"/>
      <point x="150" y="500" type="line"/>
    </contour>
  </outline>
</glyph>
<glyph name="k" format="1">
  <advance width="500"/>
  <unicode hex="006B"/>
  <outline>
    <contour>
      <point x="150" y="0" type="line"/>
      <point x="150" y="700" type="line"/>
      <point x="50" y="700" type="line"/>
      <point x="50" y="0" type="line"/>
    </contour>
    <contour>
      <point x="250" y="125" type="line"/>
      <point x="350" y="0" type="line"/>
      <point x="475" y="0" type="line"/>
      <point x="275" y="250" type="line"/>
      <point x="175" y="250" type="line"/>
    </contour>
    <contour>
      <point x="250" y="375" type="line"/>
      <point x="150" y="225" type="line"/>
      <point x="75" y="0" type="line"/>
      <point x="475" y="500" type="line"/>
      <point x="350" y="500" type="line"/>
    </contour>
  </outline>
</glyph>
<glyph name="l" format="1">
  <advance width="400"/>
  <unicode hex="006C"/>
  <outline>
    <contour>
      <point x="150" y="0" type="line"/>
      <point x="250" y="0" type="line"/>
      <point x="250" y="700" type="line"/>
      <point x="150" y="700" type="line"/>
    </contour>
    <contour>
      <point x="50" y="600" type="line"/>
      <point x="150" y="600" type="line"/>
      <point x="150" y="700" type="line"/>
      <point x="50" y="700" type="line"/>
    </contour>
    <contour>
      <point x="50" y="0" type="line"/>
      <point x="350" y="0" type="line"/>
      <point x="350" y="100" type="line"/>
      <point x="50" y="100" type="line"/>
    </contour>
  </outline>
</glyph>
<glyph name="m" format="1">
  <advance width="700"/>
  <unicode hex="006D"/>
  <outline>
    <contour>
      <point x="450" y="500"/>
      <point x="400" y="450"/>
      <point x="400" y="375" type="curve"/>
      <point x="400" y="325" type="line"/>
      <point x="400" y="375"/>
      <point x="425" y="400"/>
      <point x="475" y="400" type="curve" smooth="yes"/>
      <point x="525" y="400"/>
      <point x="550" y="375"/>
      <point x="550" y="325" type="curve" smooth="yes"/>
      <point x="550" y="0" type="line"/>
      <point x="650" y="0" type="line"/>
      <point x="650" y="375" type="line" smooth="yes"/>
      <point x="650" y="450"/>
      <point x="600" y="500"/>
      <point x="525" y="500" type="curve" smooth="yes"/>
    </contour>
    <contour>
      <point x="50" y="500" type="line"/>
      <point x="50" y="0" type="line"/>
      <point x="150" y="0" type="line"/>
      <point x="150" y="500" type="line"/>
    </contour>
    <contour>
      <point x="300" y="500" type="line"/>
      <point x="300" y="0" type="line"/>
      <point x="400" y="0" type="line"/>
      <point x="400" y="500" type="line"/>
    </contour>
    <contour>
      <point x="150" y="500" type="line"/>
      <point x="150" y="400" type="line"/>
      <point x="300" y="400" type="line"/>
      <point x="300" y="500" type="line"/>
    </contour>
  </outline>
</glyph>
<glyph name="n" format="1">
  <advance width="550"/>
  <unicode hex="006E"/>
  <outline>
    <contour>
      <point x="225" y="500"/>
      <point x="150" y="425"/>
      <point x="150" y="300" type="curve"/>
      <point x="150" y="250" type="line"/>
      <point x="150" y="350"/>
      <point x="200" y="400"/>
      <point x="275" y="400" type="curve" smooth="yes"/>
      <point x="350" y="400"/>
      <point x="400" y="350"/>
      <point x="400" y="250" type="curve" smooth="yes"/>
      <point x="400" y="0" type="line"/>
      <point x="500" y="0" type="line"/>
      <point x="500" y="300" type="line" smooth="yes"/>
      <point x="500" y="425"/>
      <point x="425" y="500"/>
      <point x="325" y="500" type="curve" smooth="yes"/>
    </contour>
    <contour>
      <point x="50" y="500" type="line"/>
      <point x="50" y="0" type="line"/>
      <point x="150" y="0" type="line"/>
      <point x="150" y="500" type="line"/>
    </contour>
  </outline>
</glyph>
<glyph name="p" format="1">
  <advance width="500"/>
  <unicode hex="0070"/>
  <outline>
    <contour>
      <point x="150" y="-200" type="line"/>
      <point x="150" y="500" type="line"/>
      <point x="50" y="500" type="line"/>
      <point x="50" y="-200" type="line"/>
    </contour>
    <contour>
      <point x="150" y="500" type="line"/>
      <point x="150" y="400" type="line"/>
      <point x="225" y="400" type="line"/>
      <point x="300" y="400"/>
      <point x="375" y="350"/>
      <point x="375" y="250" type="curve"/>
      <point x="375" y="150"/>
      <point x="300" y="100"/>
      <point x="225" y="100" type="curve"/>
      <point x="175" y="100"/>
      <point x="100" y="125"/>
      <point x="100" y="125" type="curve"/>
      <point x="100" y="25" type="line"/>
      <point x="100" y="25"/>
      <point x="150" y="0"/>
      <point x="225" y="0" type="curve"/>
      <point x="375" y="0"/>
      <point x="475" y="100"/>
      <point x="475" y="250" type="curve"/>
      <point x="475" y="400"/>
      <point x="375" y="500"/>
      <point x="225" y="500" type="curve"/>
    </contour>
  </outline>
</glyph>
<glyph name="q" format="1">
  <advance width="500"/>
  <unicode hex="0071"/>
  <outline>
    <contour>
      <point x="450" y="500" type="line"/>
      <point x="350" y="500" type="line"/>
      <point x="350" y="-200" type="line"/>
      <point x="450" y="-200" type="line"/>
    </contour>
    <contour>
      <point x="125" y="500"/>
      <point x="25" y="400"/>
      <point x="25" y="250" type="curve"/>
      <point x="25" y="100"/>
      <point x="125" y="0"/>
      <point x="275" y="0" type="curve"/>
      <point x="350" y="0"/>
      <point x="400" y="25"/>
      <point x="400" y="25" type="curve"/>
      <point x="400" y="125" type="line"/>
      <point x="400" y="125"/>
      <point x="325" y="100"/>
      <point x="275" y="100" type="curve"/>
      <point x="200" y="100"/>
      <point x="125" y="150"/>
      <point x="125" y="250" type="curve"/>
      <point x="125" y="350"/>
      <point x="200" y="400"/>
      <point x="275" y="400" type="curve"/>
      <point x="350" y="400" type="line"/>
      <point x="350" y="500" type="line"/>
      <point x="275" y="500" type="line"/>
    </contour>
  </outline>
</glyph>
<glyph name="r" format="1">
  <advance width="400"/>
  <unicode hex="0072"/>
  <outline>
    <contour>
      <point x="225" y="500"/>
      <point x="150" y="425"/>
      <point x="150" y="300" type="curve"/>
      <point x="150" y="250" type="line"/>
      <point x="150" y="375"/>
      <point x="250" y="400"/>
      <point x="350" y="400" type="curve"/>
      <point x="350" y="500" type="line"/>
    </contour>
    <contour>
      <point x="50" y="500" type="line"/>
      <point x="50" y="0" type="line"/>
      <point x="150" y="0" type="line"/>
      <point x="150" y="500" type="line"/>
    </contour>
  </outline>
</glyph>
<glyph name="s" format="1">
  <advance width="400"/>
  <unicode hex="0073"/>
  <outline>
    <contour>
      <point x="375" y="325"/>
      <point x="125" y="275"/>
      <point x="125" y="350" type="curve"/>
      <point x="125" y="375"/>
      <point x="150" y="400"/>
      <point x="200" y="400" type="curve"/>
      <point x="275" y="400"/>
      <point x="350" y="375"/>
      <point x="350" y="375" type="curve"/>
      <point x="350" y="475" type="line"/>
      <point x="350" y="475"/>
      <point x="275" y="500"/>
      <point x="200" y="500" type="curve"/>
      <point x="100" y="500"/>
      <point x="25" y="450"/>
      <point x="25" y="350" type="curve" smooth="yes"/>
      <point x="25" y="175"/>
      <point x="275" y="225"/>
      <point x="275" y="150" type="curve"/>
      <point x="275" y="125"/>
      <point x="250" y="100"/>
      <point x="200" y="100" type="curve"/>
      <point x="125" y="100"/>
      <point x="50" y="125"/>
      <point x="50" y="125" type="curve"/>
      <point x="50" y="25" type="line"/>
      <point x="50" y="25"/>
      <point x="125" y="0"/>
      <point x="200" y="0" type="curve"/>
      <point x="300" y="0"/>
      <point x="375" y="50"/>
      <point x="375" y="150" type="curve" smooth="yes"/>
    </contour>
  </outline>
</glyph>
<glyph name="t" format="1">
  <advance width="450"/>
  <unicode hex="0074"/>
  <outline>
    <contour>
      <point x="150" y="700" type="line"/>
      <point x="150" y="150" type="line"/>
      <point x="150" y="50"/>
      <point x="200" y="0"/>
      <point x="300" y="0" type="curve"/>
      <point x="400" y="0" type="line"/>
      <point x="400" y="100" type="line"/>
      <point x="250" y="100" type="line"/>
      <point x="250" y="700" type="line"/>
    </contour>
    <contour>
      <point x="50" y="400" type="line"/>
      <point x="400" y="400" type="line"/>
      <point x="400" y="500" type="line"/>
      <point x="50" y="500" type="line"/>
    </contour>
  </outline>
</glyph>
<glyph name="v" format="1">
  <advance width="500"/>
  <unicode hex="0076"/>
  <outline>
    <contour>
      <point x="475" y="500" type="line"/>
      <point x="375" y="500" type="line"/>
      <point x="225" y="0" type="line"/>
      <point x="325" y="0" type="line"/>
    </contour>
    <contour>
      <point x="125" y="500" type="line"/>
      <point x="25" y="500" type="line"/>
      <point x="175" y="0" type="line"/>
      <point x="275" y="0" type="line"/>
    </contour>
  </outline>
</glyph>
<glyph name="w" format="1">
  <advance width="550"/>
  <unicode hex="0077"/>
  <outline>
    <contour>
      <point x="425" y="500" type="line"/>
      <point x="375" y="0" type="line"/>
      <point x="475" y="0" type="line"/>
      <point x="525" y="500" type="line"/>
    </contour>
    <contour>
      <point x="25" y="500" type="line"/>
      <point x="75" y="0" type="line"/>
      <point x="175" y="0" type="line"/>
      <point x="125" y="500" type="line"/>
    </contour>
    <contour>
      <point x="450" y="0" type="line"/>
      <point x="325" y="300" type="line"/>
      <point x="225" y="300" type="line"/>
      <point x="100" y="0" type="line"/>
      <point x="175" y="0" type="line"/>
      <point x="275" y="200" type="line"/>
      <point x="375" y="0" type="line"/>
    </contour>
  </outline>
</glyph>
<glyph name="x" format="1">
  <advance width="550"/>
  <unicode hex="0078"/>
  <outline>
    <contour>
      <point x="400" y="0" type="line"/>
      <point x="525" y="0" type="line"/>
      <point x="150" y="500" type="line"/>
      <point x="25" y="500" type="line"/>
    </contour>
    <contour>
      <point x="25" y="0" type="line"/>
      <point x="150" y="0" type="line"/>
      <point x="525" y="500" type="line"/>
      <point x="400" y="500" type="line"/>
    </contour>
  </outline>
</glyph>
<glyph name="y" format="1">
  <advance width="550"/>
  <unicode hex="0079"/>
  <outline>
    <contour>
      <point x="325" y="50"/>
      <point x="400" y="125"/>
      <point x="400" y="250" type="curve"/>
      <point x="400" y="300" type="line"/>
      <point x="400" y="200"/>
      <point x="350" y="150"/>
      <point x="275" y="150" type="curve" smooth="yes"/>
      <point x="200" y="150"/>
      <point x="150" y="200"/>
      <point x="150" y="300" type="curve" smooth="yes"/>
      <point x="150" y="500" type="line"/>
      <point x="50" y="500" type="line"/>
      <point x="50" y="250" type="line" smooth="yes"/>
      <point x="50" y="125"/>
      <point x="125" y="50"/>
      <point x="225" y="50" type="curve" smooth="yes"/>
    </contour>
    <contour>
      <point x="400" y="500" type="line"/>
      <point x="400" y="50" type="line"/>
      <point x="400" y="-50"/>
      <point x="350" y="-100"/>
      <point x="250" y="-100" type="curve"/>
      <point x="125" y="-100"/>
      <point x="50" y="0"/>
      <point x="50" y="0" type="curve"/>
      <point x="50" y="-125" type="line"/>
      <point x="50" y="-125"/>
      <point x="100" y="-200"/>
      <point x="250" y="-200" type="curve"/>
      <point x="400" y="-200"/>
      <point x="500" y="-125"/>
      <point x="500" y="50" type="curve"/>
      <point x="500" y="500" type="line"/>
    </contour>
  </outline>
</glyph>
<glyph name="braceleft" format="1">
  <advance width="600"/>
  <unicode hex="007B"/>
  <outline>
    <contour>
      <point x="250" y="700" type="line"/>
      <point x="250" y="400" type="line"/>
      <point x="350" y="400" type="line"/>
      <point x="350" y="700" type="line"/>
    </contour>
    <contour>
      <point x="350" y="0" type="line"/>
      <point x="350" y="-100" type="line"/>
      <point x="550" y="-100" type="line"/>
      <point x="550" y="0" type="line"/>
    </contour>
    <contour>
      <point x="250" y="300" type="line"/>
      <point x="250" y="0" type="line"/>
      <point x="350" y="0" type="line"/>
      <point x="350" y="300" type="line"/>
    </contour>
    <contour>
      <point x="50" y="400" type="line"/>
      <point x="50" y="300" type="line"/>
      <point x="250" y="300" type="line"/>
      <point x="250" y="400" type="line"/>
    </contour>
    <contour>
      <point x="350" y="800" type="line"/>
      <point x="350" y="700" type="line"/>
      <point x="550" y="700" type="line"/>
      <point x="550" y="800" type="line"/>
    </contour>
  </outline>
</glyph>
<glyph name="bar" format="1">
  <advance width="200"/>
  <unicode hex="007C"/>
  <outline>
    <contour>
      <point x="50" y="800" type="line"/>
      <point x="50" y="-100" type="line"/>
      <point x="150" y="-100" type="line"/>
      <point x="150" y="800" type="line"/>
    </contour>
  </outline>
</glyph>
<glyph name="exclamdown" format="1">
  <advance width="200"/>
  <unicode hex="00A1"/>
  <outline>
    <contour>
      <point x="50" y="300" type="line"/>
      <point x="50" y="-200" type="line"/>
      <point x="150" y="-200" type="line"/>
      <point x="150" y="300" type="line"/>
    </contour>
    <contour>
      <point x="50" y="500" type="line"/>
      <point x="50" y="400" type="line"/>
      <point x="150" y="400" type="line"/>
      <point x="150" y="500" type="line"/>
    </contour>
  </outline>
</glyph>
<glyph name="brokenbar" format="1">
  <advance width="200"/>
  <unicode hex="00A6"/>
  <outline>
    <contour>
      <point x="50" y="800" type="line"/>
      <point x="50" y="400" type="line"/>
      <point x="150" y="400" type="line"/>
      <point x="150" y="800" type="line"/>
    </contour>
    <contour>
      <point x="50" y="300" type="line"/>
      <point x="50" y="-100" type="line"/>
      <point x="150" y="-100" type="line"/>
      <point x="150" y="300" type="line"/>
    </contour>
  </outline>
</glyph>
<glyph name="macron" format="1">
  <advance width="600"/>
  <unicode hex="00AF"/>
  <outline>
    <contour>
      <point x="50" y="700" type="line"/>
      <point x="50" y="600" type="line"/>
      <point x="550" y="600" type="line"/>
      <point x="550" y="700" type="line"/>
    </contour>
  </outline>
</glyph>
<glyph name="threequarters" format="1">
  <advance width="800"/>
  <unicode hex="00BE"/>
  <outline>
    <contour>
      <point x="550" y="400" type="line"/>
      <point x="550" y="-100" type="line"/>
      <point x="650" y="-100" type="line"/>
      <point x="650" y="400" type="line"/>
    </contour>
    <contour>
      <point x="50" y="300" type="line"/>
      <point x="50" y="200" type="line"/>
      <point x="250" y="200" type="line"/>
      <point x="250" y="300" type="line"/>
    </contour>
    <contour>
      <point x="250" y="100" type="line"/>
      <point x="250" y="0" type="line"/>
      <point x="750" y="0" type="line"/>
      <point x="750" y="100" type="line"/>
    </contour>
    <contour>
      <point x="350" y="200" type="line"/>
      <point x="350" y="100" type="line"/>
      <point x="450" y="100" type="line"/>
      <point x="450" y="200" type="line"/>
    </contour>
    <contour>
      <point x="450" y="300" type="line"/>
      <point x="450" y="200" type="line"/>
      <point x="550" y="200" type="line"/>
      <point x="550" y="300" type="line"/>
    </contour>
    <contour>
      <point x="150" y="500" type="line"/>
      <point x="150" y="400" type="line"/>
      <point x="250" y="400" type="line"/>
      <point x="250" y="500" type="line"/>
    </contour>
    <contour>
      <point x="250" y="400" type="line"/>
      <point x="250" y="300" type="line"/>
      <point x="350" y="300" type="line"/>
      <point x="350" y="400" type="line"/>
    </contour>
    <contour>
      <point x="50" y="700" type="line"/>
      <point x="50" y="600" type="line"/>
      <point x="350" y="600" type="line"/>
      <point x="350" y="700" type="line"/>
    </contour>
    <contour>
      <point x="250" y="600" type="line"/>
      <point x="250" y="500" type="line"/>
      <point x="350" y="500" type="line"/>
      <point x="350" y="600" type="line"/>
    </contour>
  </outline>
</glyph>
<glyph name="Adieresis" format="1">
  <advance width="550"/>
  <unicode hex="00C4"/>
  <outline>
    <contour>
      <point x="150" y="100" type="line"/>
      <point x="400" y="100" type="line"/>
      <point x="400" y="175" type="line"/>
      <point x="150" y="175" type="line"/>
    </contour>
    <contour>
      <point x="250" y="500" type="line"/>
      <point x="425" y="0" type="line"/>
      <point x="525" y="0" type="line"/>
      <point x="350" y="500" type="line"/>
    </contour>
    <contour>
      <point x="200" y="500" type="line"/>
      <point x="25" y="0" type="line"/>
      <point x="125" y="0" type="line"/>
      <point x="300" y="500" type="line"/>
    </contour>
    <component base="dieresis" xOffset="75"/>
  </outline>
</glyph>
<glyph name="Ecircumflex" format="1">
  <advance width="500"/>
  <unicode hex="00CA"/>
  <outline>
    <contour>
      <point x="50" y="500" type="line"/>
      <point x="50" y="0" type="line"/>
      <point x="150" y="0" type="line"/>
      <point x="150" y="500" type="line"/>
    </contour>
    <contour>
      <point x="150" y="100" type="line"/>
      <point x="150" y="0" type="line"/>
      <point x="450" y="0" type="line"/>
      <point x="450" y="100" type="line"/>
    </contour>
    <contour>
      <point x="150" y="300" type="line"/>
      <point x="150" y="200" type="line"/>
      <point x="250" y="200" type="line"/>
      <point x="250" y="300" type="line"/>
    </contour>
    <contour>
      <point x="150" y="500" type="line"/>
      <point x="150" y="400" type="line"/>
      <point x="450" y="400" type="line"/>
      <point x="450" y="500" type="line"/>
    </contour>
    <component base="circumflex" xOffset="100"/>
  </outline>
</glyph>
<glyph name="Eth" format="1">
  <advance width="650"/>
  <unicode hex="00D0"/>
  <outline>
    <contour>
      <point x="250" y="700" type="line"/>
      <point x="250" y="600" type="line"/>
      <point x="275" y="600" type="line"/>
      <point x="400" y="600"/>
      <point x="525" y="525"/>
      <point x="525" y="350" type="curve"/>
      <point x="525" y="175"/>
      <point x="400" y="100"/>
      <point x="275" y="100" type="curve"/>
      <point x="250" y="100" type="line"/>
      <point x="250" y="0" type="line"/>
      <point x="275" y="0" type="line"/>
      <point x="475" y="0"/>
      <point x="625" y="150"/>
      <point x="625" y="350" type="curve"/>
      <point x="625" y="550"/>
      <point x="475" y="700"/>
      <point x="275" y="700" type="curve"/>
    </contour>
    <contour>
      <point x="150" y="700" type="line"/>
      <point x="150" y="0" type="line"/>
      <point x="250" y="0" type="line"/>
      <point x="250" y="700" type="line"/>
    </contour>
    <component base="hyphen" yOffset="100"/>
  </outline>
</glyph>
<glyph name="Ntilde" format="1">
  <advance width="600"/>
  <unicode hex="00D1"/>
  <outline>
    <contour>
      <point x="450" y="400" type="line"/>
      <point x="450" y="100" type="line"/>
      <point x="550" y="50" type="line"/>
      <point x="150" y="400" type="line"/>
      <point x="50" y="400" type="line"/>
      <point x="50" y="0" type="line"/>
      <point x="150" y="0" type="line"/>
      <point x="150" y="300" type="line"/>
      <point x="50" y="350" type="line"/>
      <point x="450" y="0" type="line"/>
      <point x="550" y="0" type="line"/>
      <point x="550" y="400" type="line"/>
    </contour>
    <component base="tilde"/>
  </outline>
</glyph>
<glyph name="multiply" format="1">
  <advance width="600"/>
  <unicode hex="00D7"/>
  <outline>
    <contour>
      <point x="450" y="500" type="line"/>
      <point x="450" y="400" type="line"/>
      <point x="550" y="400" type="line"/>
      <point x="550" y="500" type="line"/>
    </contour>
    <contour>
      <point x="50" y="100" type="line"/>
      <point x="50" y="0" type="line"/>
      <point x="150" y="0" type="line"/>
      <point x="150" y="100" type="line"/>
    </contour>
    <contour>
      <point x="150" y="200" type="line"/>
      <point x="150" y="100" type="line"/>
      <point x="250" y="100" type="line"/>
      <point x="250" y="200" type="line"/>
    </contour>
    <contour>
      <point x="150" y="400" type="line"/>
      <point x="150" y="300" type="line"/>
      <point x="250" y="300" type="line"/>
      <point x="250" y="400" type="line"/>
    </contour>
    <contour>
      <point x="250" y="300" type="line"/>
      <point x="250" y="200" type="line"/>
      <point x="350" y="200" type="line"/>
      <point x="350" y="300" type="line"/>
    </contour>
    <contour>
      <point x="350" y="200" type="line"/>
      <point x="350" y="100" type="line"/>
      <point x="450" y="100" type="line"/>
      <point x="450" y="200" type="line"/>
    </contour>
    <contour>
      <point x="50" y="500" type="line"/>
      <point x="50" y="400" type="line"/>
      <point x="150" y="400" type="line"/>
      <point x="150" y="500" type="line"/>
    </contour>
    <contour>
      <point x="450" y="100" type="line"/>
      <point x="450" y="0" type="line"/>
      <point x="550" y="0" type="line"/>
      <point x="550" y="100" type="line"/>
    </contour>
    <contour>
      <point x="350" y="400" type="line"/>
      <point x="350" y="300" type="line"/>
      <point x="450" y="300" type="line"/>
      <point x="450" y="400" type="line"/>
    </contour>
  </outline>
</glyph>
<glyph name="Oslash" format="1">
  <advance width="700"/>
  <unicode hex="00D8"/>
  <outline>
    <contour>
      <point x="150" y="700"/>
      <point x="25" y="550"/>
      <point x="25" y="350" type="curve"/>
      <point x="25" y="150"/>
      <point x="150" y="0"/>
      <point x="350" y="0" type="curve"/>
      <point x="550" y="0"/>
      <point x="675" y="150"/>
      <point x="675" y="350" type="curve"/>
      <point x="675" y="550"/>
      <point x="550" y="700"/>
      <point x="350" y="700" type="curve"/>
    </contour>
    <contour>
      <point x="475" y="600"/>
      <point x="575" y="500"/>
      <point x="575" y="350" type="curve"/>
      <point x="575" y="200"/>
      <point x="475" y="100"/>
      <point x="350" y="100" type="curve"/>
      <point x="225" y="100"/>
      <point x="125" y="200"/>
      <point x="125" y="350" type="curve"/>
      <point x="125" y="500"/>
      <point x="225" y="600"/>
      <point x="350" y="600" type="curve"/>
    </contour>
    <contour>
      <point x="300" y="300" type="line"/>
      <point x="400" y="300" type="line"/>
      <point x="400" y="400" type="line"/>
      <point x="300" y="400" type="line"/>
    </contour>
    <contour>
      <point x="400" y="400" type="line"/>
      <point x="500" y="400" type="line"/>
      <point x="500" y="500" type="line"/>
      <point x="400" y="500" type="line"/>
    </contour>
    <contour>
      <point x="200" y="200" type="line"/>
      <point x="300" y="200" type="line"/>
      <point x="300" y="300" type="line"/>
      <point x="200" y="300" type="line"/>
    </contour>
    <contour>
      <point x="500" y="500" type="line"/>
      <point x="550" y="500" type="line"/>
      <point x="550" y="550" type="line"/>
      <point x="500" y="550" type="line"/>
    </contour>
    <contour>
      <point x="150" y="150" type="line"/>
      <point x="200" y="150" type="line"/>
      <point x="200" y="200" type="line"/>
      <point x="150" y="200" type="line"/>
    </contour>
  </outline>
</glyph>
<glyph name="Udieresis" format="1">
  <advance width="600"/>
  <unicode hex="00DC"/>
  <outline>
    <contour>
      <point x="450" y="500" type="line"/>
      <point x="450" y="275" type="line"/>
      <point x="450" y="175"/>
      <point x="400" y="100"/>
      <point x="300" y="100" type="curve"/>
      <point x="200" y="100"/>
      <point x="150" y="175"/>
      <point x="150" y="275" type="curve"/>
      <point x="150" y="500" type="line"/>
      <point x="50" y="500" type="line"/>
      <point x="50" y="275" type="line"/>
      <point x="50" y="125"/>
      <point x="125" y="0"/>
      <point x="300" y="0" type="curve"/>
      <point x="475" y="0"/>
      <point x="550" y="125"/>
      <point x="550" y="275" type="curve"/>
      <point x="550" y="500" type="line"/>
    </contour>
    <component base="dieresis" xOffset="100"/>
  </outline>
</glyph>
<glyph name="iacute" format="1">
  <advance width="400"/>
  <unicode hex="00ED"/>
  <outline>
    <contour>
      <point x="250" y="700" type="line"/>
      <point x="250" y="600" type="line"/>
      <point x="350" y="600" type="line"/>
      <point x="350" y="700" type="line"/>
    </contour>
    <contour>
      <point x="50" y="600" type="line"/>
      <point x="50" y="500" type="line"/>
      <point x="250" y="500" type="line"/>
      <point x="250" y="600" type="line"/>
    </contour>
    <component base="dotlessi"/>
  </outline>
</glyph>
<glyph name="idieresis" format="1">
  <advance width="400"/>
  <unicode hex="00EF"/>
  <outline>
    <contour>
      <point x="150" y="500" type="line"/>
      <point x="150" y="100" type="line"/>
      <point x="250" y="100" type="line"/>
      <point x="250" y="500" type="line"/>
    </contour>
    <contour>
      <point x="50" y="100" type="line"/>
      <point x="50" y="0" type="line"/>
      <point x="350" y="0" type="line"/>
      <point x="350" y="100" type="line"/>
    </contour>
    <contour>
      <point x="50" y="500" type="line"/>
      <point x="50" y="400" type="line"/>
      <point x="150" y="400" type="line"/>
      <point x="150" y="500" type="line"/>
    </contour>
    <component base="dieresis"/>
  </outline>
</glyph>
<glyph name="odieresis" format="1">
  <advance width="500"/>
  <unicode hex="00F6"/>
  <outline>
    <contour>
      <point x="100" y="500"/>
      <point x="25" y="400"/>
      <point x="25" y="250" type="curve"/>
      <point x="25" y="100"/>
      <point x="100" y="0"/>
      <point x="250" y="0" type="curve"/>
      <point x="400" y="0"/>
      <point x="475" y="100"/>
      <point x="475" y="250" type="curve"/>
      <point x="475" y="400"/>
      <point x="400" y="500"/>
      <point x="250" y="500" type="curve"/>
    </contour>
    <contour>
      <point x="325" y="400"/>
      <point x="375" y="350"/>
      <point x="375" y="250" type="curve"/>
      <point x="375" y="150"/>
      <point x="325" y="100"/>
      <point x="250" y="100" type="curve"/>
      <point x="175" y="100"/>
      <point x="125" y="150"/>
      <point x="125" y="250" type="curve"/>
      <point x="125" y="350"/>
      <point x="175" y="400"/>
      <point x="250" y="400" type="curve"/>
    </contour>
    <component base="dieresis" xOffset="50"/>
  </outline>
</glyph>
<glyph name="oslash" format="1">
  <advance width="600"/>
  <unicode hex="00F8"/>
  <outline>
    <contour>
      <point x="250" y="200" type="line"/>
      <point x="350" y="200" type="line"/>
      <point x="350" y="300" type="line"/>
      <point x="250" y="300" type="line"/>
    </contour>
    <contour>
      <point x="150" y="500"/>
      <point x="25" y="400"/>
      <point x="25" y="250" type="curve"/>
      <point x="25" y="100"/>
      <point x="150" y="0"/>
      <point x="300" y="0" type="curve"/>
      <point x="450" y="0"/>
      <point x="575" y="100"/>
      <point x="575" y="250" type="curve"/>
      <point x="575" y="400"/>
      <point x="450" y="500"/>
      <point x="300" y="500" type="curve"/>
    </contour>
    <contour>
      <point x="350" y="400" type="line"/>
      <point x="350" y="300" type="line"/>
      <point x="475" y="300" type="line"/>
      <point x="475" y="250" type="line"/>
      <point x="475" y="150"/>
      <point x="375" y="100"/>
      <point x="300" y="100" type="curve"/>
      <point x="250" y="100" type="line"/>
      <point x="250" y="200" type="line"/>
      <point x="125" y="200" type="line"/>
      <point x="125" y="250" type="line"/>
      <point x="125" y="350"/>
      <point x="225" y="400"/>
      <point x="300" y="400" type="curve"/>
    </contour>
  </outline>
</glyph>
<glyph name="ucircumflex" format="1">
  <advance width="500"/>
  <unicode hex="00FB"/>
  <outline>
    <contour>
      <point x="350" y="400" type="line"/>
      <point x="350" y="0" type="line"/>
      <point x="450" y="0" type="line"/>
      <point x="450" y="400" type="line"/>
    </contour>
    <contour>
      <point x="275" y="0"/>
      <point x="350" y="50"/>
      <point x="350" y="150" type="curve"/>
      <point x="350" y="200" type="line"/>
      <point x="350" y="125"/>
      <point x="300" y="100"/>
      <point x="250" y="100" type="curve" smooth="yes"/>
      <point x="200" y="100"/>
      <point x="150" y="125"/>
      <point x="150" y="200" type="curve" smooth="yes"/>
      <point x="150" y="400" type="line"/>
      <point x="50" y="400" type="line"/>
      <point x="50" y="150" type="line" smooth="yes"/>
      <point x="50" y="50"/>
      <point x="125" y="0"/>
      <point x="200" y="0" type="curve" smooth="yes"/>
    </contour>
    <component base="circumflex" xOffset="50"/>
  </outline>
</glyph>
<glyph name="ydieresis" format="1">
  <advance width="550"/>
  <unicode hex="00FF"/>
  <outline>
    <contour>
      <point x="400" y="-200"/>
      <point x="500" y="-100"/>
      <point x="500" y="50" type="curve"/>
      <point x="500" y="500" type="line"/>
      <point x="400" y="500" type="line"/>
      <point x="400" y="50" type="line"/>
      <point x="400" y="-50"/>
      <point x="325" y="-100"/>
      <point x="250" y="-100" type="curve"/>
      <point x="125" y="-100"/>
      <point x="50" y="0"/>
      <point x="50" y="0" type="curve"/>
      <point x="50" y="-125" type="line"/>
      <point x="50" y="-125"/>
      <point x="125" y="-200"/>
      <point x="250" y="-200" type="curve"/>
    </contour>
    <contour>
      <point x="50" y="500" type="line"/>
      <point x="50" y="275" type="line" smooth="yes"/>
      <point x="50" y="150"/>
      <point x="125" y="75"/>
      <point x="225" y="75" type="curve" smooth="yes"/>
      <point x="325" y="75"/>
      <point x="400" y="150"/>
      <point x="400" y="275" type="curve"/>
      <point x="400" y="325" type="line"/>
      <point x="400" y="225"/>
      <point x="350" y="175"/>
      <point x="275" y="175" type="curve" smooth="yes"/>
      <point x="200" y="175"/>
      <point x="150" y="225"/>
      <point x="150" y="325" type="curve" smooth="yes"/>
      <point x="150" y="500" type="line"/>
    </contour>
    <component base="dieresis" xOffset="50"/>
  </outline>
</glyph>
<glyph name="ij" format="1">
  <advance width="500"/>
  <unicode hex="0133"/>
  <outline>
    <contour>
      <point x="50" y="100" type="line"/>
      <point x="150" y="100" type="line"/>
      <point x="150" y="500" type="line"/>
      <point x="50" y="500" type="line"/>
    </contour>
    <contour>
      <point x="350" y="600" type="line"/>
      <point x="450" y="600" type="line"/>
      <point x="450" y="700" type="line"/>
      <point x="350" y="700" type="line"/>
    </contour>
    <contour>
      <point x="50" y="600" type="line"/>
      <point x="150" y="600" type="line"/>
      <point x="150" y="700" type="line"/>
      <point x="50" y="700" type="line"/>
    </contour>
    <contour>
      <point x="350" y="500" type="line"/>
      <point x="350" y="50" type="line"/>
      <point x="350" y="-50"/>
      <point x="300" y="-100"/>
      <point x="225" y="-100" type="curve"/>
      <point x="125" y="-100"/>
      <point x="50" y="0"/>
      <point x="50" y="0" type="curve"/>
      <point x="50" y="-125" type="line"/>
      <point x="50" y="-125"/>
      <point x="100" y="-200"/>
      <point x="225" y="-200" type="curve"/>
      <point x="350" y="-200"/>
      <point x="450" y="-125"/>
      <point x="450" y="50" type="curve"/>
      <point x="450" y="500" type="line"/>
    </contour>
  </outline>
</glyph>
<glyph name="uni029C" format="1">
  <advance width="500"/>
  <unicode hex="029C"/>
  <outline>
    <contour>
      <point x="50" y="200" type="line"/>
      <point x="150" y="200" type="line"/>
      <point x="150" y="700" type="line"/>
      <point x="50" y="700" type="line"/>
    </contour>
    <contour>
      <point x="50" y="400" type="line"/>
      <point x="450" y="400" type="line"/>
      <point x="450" y="500" type="line"/>
      <point x="50" y="500" type="line"/>
    </contour>
    <contour>
      <point x="350" y="200" type="line"/>
      <point x="450" y="200" type="line"/>
      <point x="450" y="700" type="line"/>
      <point x="350" y="700" type="line"/>
    </contour>
  </outline>
</glyph>
<glyph name="uni02C2" format="1">
  <advance width="600"/>
  <unicode hex="02C2"/>
  <outline>
    <contour>
      <point x="250" y="500" type="line"/>
      <point x="150" y="500" type="line"/>
      <point x="150" y="200" type="line"/>
      <point x="250" y="200" type="line"/>
    </contour>
    <contour>
      <point x="350" y="300" type="line"/>
      <point x="250" y="300" type="line"/>
      <point x="250" y="100" type="line"/>
      <point x="350" y="100" type="line"/>
    </contour>
    <contour>
      <point x="350" y="600" type="line"/>
      <point x="250" y="600" type="line"/>
      <point x="250" y="400" type="line"/>
      <point x="350" y="400" type="line"/>
    </contour>
    <contour>
      <point x="250" y="400" type="line"/>
      <point x="50" y="400" type="line"/>
      <point x="50" y="300" type="line"/>
      <point x="250" y="300" type="line"/>
    </contour>
    <contour>
      <point x="550" y="400" type="line"/>
      <point x="250" y="400" type="line"/>
      <point x="250" y="300" type="line"/>
      <point x="550" y="300" type="line"/>
    </contour>
  </outline>
</glyph>
<glyph name="uni02C5" format="1">
  <advance width="600"/>
  <unicode hex="02C5"/>
  <outline>
    <contour>
      <point x="150" y="300" type="line"/>
      <point x="150" y="200" type="line"/>
      <point x="450" y="200" type="line"/>
      <point x="450" y="300" type="line"/>
    </contour>
    <contour>
      <point x="350" y="400" type="line"/>
      <point x="350" y="300" type="line"/>
      <point x="550" y="300" type="line"/>
      <point x="550" y="400" type="line"/>
    </contour>
    <contour>
      <point x="50" y="400" type="line"/>
      <point x="50" y="300" type="line"/>
      <point x="250" y="300" type="line"/>
      <point x="250" y="400" type="line"/>
    </contour>
    <contour>
      <point x="250" y="300" type="line"/>
      <point x="250" y="100" type="line"/>
      <point x="350" y="100" type="line"/>
      <point x="350" y="300" type="line"/>
    </contour>
    <contour>
      <point x="250" y="600" type="line"/>
      <point x="250" y="300" type="line"/>
      <point x="350" y="300" type="line"/>
      <point x="350" y="600" type="line"/>
    </contour>
  </outline>
</glyph>
<glyph name="breve" format="1">
  <advance width="400"/>
  <unicode hex="02D8"/>
  <outline>
    <contour>
      <point x="250" y="700" type="line"/>
      <point x="250" y="500" type="line"/>
      <point x="350" y="500" type="line"/>
      <point x="350" y="700" type="line"/>
    </contour>
    <contour>
      <point x="50" y="700" type="line"/>
      <point x="50" y="500" type="line"/>
      <point x="150" y="500" type="line"/>
      <point x="150" y="700" type="line"/>
    </contour>
    <contour>
      <point x="150" y="600" type="line"/>
      <point x="150" y="500" type="line"/>
      <point x="250" y="500" type="line"/>
      <point x="250" y="600" type="line"/>
    </contour>
  </outline>
</glyph>
<glyph name="uni03A9" format="1">
  <advance width="600"/>
  <unicode hex="03A9"/>
  <outline>
    <contour>
      <point x="450" y="600" type="line"/>
      <point x="450" y="200" type="line"/>
      <point x="550" y="200" type="line"/>
      <point x="550" y="600" type="line"/>
    </contour>
    <contour>
      <point x="50" y="100" type="line"/>
      <point x="50" y="0" type="line"/>
      <point x="250" y="0" type="line"/>
      <point x="250" y="100" type="line"/>
    </contour>
    <contour>
      <point x="150" y="200" type="line"/>
      <point x="150" y="100" type="line"/>
      <point x="250" y="100" type="line"/>
      <point x="250" y="200" type="line"/>
    </contour>
    <contour>
      <point x="350" y="100" type="line"/>
      <point x="350" y="0" type="line"/>
      <point x="550" y="0" type="line"/>
      <point x="550" y="100" type="line"/>
    </contour>
    <contour>
      <point x="50" y="600" type="line"/>
      <point x="50" y="200" type="line"/>
      <point x="150" y="200" type="line"/>
      <point x="150" y="600" type="line"/>
    </contour>
    <contour>
      <point x="350" y="200" type="line"/>
      <point x="350" y="100" type="line"/>
      <point x="450" y="100" type="line"/>
      <point x="450" y="200" type="line"/>
    </contour>
    <contour>
      <point x="150" y="700" type="line"/>
      <point x="150" y="600" type="line"/>
      <point x="450" y="600" type="line"/>
      <point x="450" y="700" type="line"/>
    </contour>
  </outline>
</glyph>
<glyph name="uni03BC" format="1">
  <advance width="600"/>
  <unicode hex="03BC"/>
  <outline>
    <contour>
      <point x="50" y="500" type="line"/>
      <point x="50" y="-200" type="line"/>
      <point x="150" y="-200" type="line"/>
      <point x="150" y="500" type="line"/>
    </contour>
    <contour>
      <point x="150" y="200" type="line"/>
      <point x="150" y="100" type="line"/>
      <point x="250" y="100" type="line"/>
      <point x="250" y="200" type="line"/>
    </contour>
    <contour>
      <point x="250" y="100" type="line"/>
      <point x="250" y="0" type="line"/>
      <point x="350" y="0" type="line"/>
      <point x="350" y="100" type="line"/>
    </contour>
    <contour>
      <point x="350" y="200" type="line"/>
      <point x="350" y="100" type="line"/>
      <point x="450" y="100" type="line"/>
      <point x="450" y="200" type="line"/>
    </contour>
    <contour>
      <point x="450" y="500" type="line"/>
      <point x="450" y="0" type="line"/>
      <point x="550" y="0" type="line"/>
      <point x="550" y="500" type="line"/>
    </contour>
  </outline>
</glyph>
<glyph name="uni1D6B" format="1">
  <advance width="500"/>
  <unicode hex="1D6B"/>
  <outline>
    <contour>
      <point x="250" y="0" type="line"/>
      <point x="300" y="0" type="line"/>
      <point x="300" y="250" type="line"/>
      <point x="250" y="250" type="line"/>
    </contour>
    <contour>
      <point x="250" y="200" type="line"/>
      <point x="450" y="200" type="line"/>
      <point x="450" y="250" type="line"/>
      <point x="250" y="250" type="line"/>
    </contour>
    <contour>
      <point x="250" y="100" type="line"/>
      <point x="450" y="100" type="line"/>
      <point x="450" y="150" type="line"/>
      <point x="250" y="150" type="line"/>
    </contour>
    <contour>
      <point x="250" y="0" type="line"/>
      <point x="450" y="0" type="line"/>
      <point x="450" y="50" type="line"/>
      <point x="250" y="50" type="line"/>
    </contour>
    <contour>
      <point x="250" y="0" type="line"/>
      <point x="250" y="100" type="line"/>
      <point x="150" y="100" type="line"/>
      <point x="150" y="500" type="line"/>
      <point x="50" y="500" type="line"/>
      <point x="50" y="150" type="line" smooth="yes"/>
      <point x="50" y="50"/>
      <point x="125" y="0"/>
      <point x="200" y="0" type="curve"/>
    </contour>
    <contour>
      <point x="350" y="250" type="line"/>
      <point x="450" y="250" type="line"/>
      <point x="450" y="500" type="line"/>
      <point x="350" y="500" type="line"/>
    </contour>
  </outline>
</glyph>
<glyph name="endash" format="1">
  <advance width="600"/>
  <unicode hex="2013"/>
  <outline>
    <contour>
      <point x="50" y="300" type="line"/>
      <point x="50" y="200" type="line"/>
      <point x="550" y="200" type="line"/>
      <point x="550" y="300" type="line"/>
    </contour>
  </outline>
</glyph>
<glyph name="emdash" format="1">
  <advance width="800"/>
  <unicode hex="2014"/>
  <outline>
    <contour>
      <point x="50" y="300" type="line"/>
      <point x="50" y="200" type="line"/>
      <point x="750" y="200" type="line"/>
      <point x="750" y="300" type="line"/>
    </contour>
  </outline>
</glyph>
<glyph name="quotesinglbase" format="1">
  <advance width="300"/>
  <unicode hex="201A"/>
  <outline>
    <contour>
      <point x="150" y="200" type="line"/>
      <point x="150" y="0" type="line"/>
      <point x="250" y="0" type="line"/>
      <point x="250" y="200" type="line"/>
    </contour>
    <contour>
      <point x="50" y="0" type="line"/>
      <point x="50" y="-100" type="line"/>
      <point x="150" y="-100" type="line"/>
      <point x="150" y="0" type="line"/>
    </contour>
  </outline>
</glyph>
<glyph name="dagger" format="1">
  <advance width="600"/>
  <unicode hex="2020"/>
  <outline>
    <contour>
      <point x="250" y="700" type="line"/>
      <point x="250" y="-200" type="line"/>
      <point x="350" y="-200" type="line"/>
      <point x="350" y="700" type="line"/>
    </contour>
    <contour>
      <point x="50" y="500" type="line"/>
      <point x="50" y="400" type="line"/>
      <point x="550" y="400" type="line"/>
      <point x="550" y="500" type="line"/>
    </contour>
  </outline>
</glyph>
<glyph name="bullet" format="1">
  <advance width="600"/>
  <unicode hex="2022"/>
  <outline>
    <contour>
      <point x="150" y="100" type="line"/>
      <point x="450" y="100" type="line"/>
      <point x="450" y="400" type="line"/>
      <point x="150" y="400" type="line"/>
    </contour>
  </outline>
</glyph>
<glyph name="guilsinglleft" format="1">
  <advance width="300"/>
  <unicode hex="2039"/>
  <outline>
    <contour>
      <point x="150" y="400" type="line"/>
      <point x="150" y="300" type="line"/>
      <point x="250" y="300" type="line"/>
      <point x="250" y="400" type="line"/>
    </contour>
    <contour>
      <point x="50" y="300" type="line"/>
      <point x="50" y="200" type="line"/>
      <point x="150" y="200" type="line"/>
      <point x="150" y="300" type="line"/>
    </contour>
    <contour>
      <point x="150" y="200" type="line"/>
      <point x="150" y="100" type="line"/>
      <point x="250" y="100" type="line"/>
      <point x="250" y="200" type="line"/>
    </contour>
  </outline>
</glyph>
<glyph name="fraction" format="1">
  <advance width="400"/>
  <unicode hex="2044"/>
  <outline>
    <contour>
      <point x="50" y="-100" type="line"/>
      <point x="150" y="-100" type="line"/>
      <point x="150" y="200" type="line"/>
      <point x="50" y="200" type="line"/>
    </contour>
    <contour>
      <point x="150" y="200" type="line"/>
      <point x="250" y="200" type="line"/>
      <point x="250" y="500" type="line"/>
      <point x="150" y="500" type="line"/>
    </contour>
    <contour>
      <point x="250" y="500" type="line"/>
      <point x="350" y="500" type="line"/>
      <point x="350" y="800" type="line"/>
      <point x="250" y="800" type="line"/>
    </contour>
  </outline>
</glyph>
<glyph name="uni2070" format="1">
  <advance width="350"/>
  <unicode hex="2070"/>
  <outline>
    <contour>
      <point x="150" y="650" type="line"/>
      <point x="200" y="650" type="line"/>
      <point x="200" y="700" type="line"/>
      <point x="150" y="700" type="line"/>
    </contour>
    <contour>
      <point x="200" y="600" type="line"/>
      <point x="250" y="600" type="line"/>
      <point x="250" y="650" type="line"/>
      <point x="200" y="650" type="line"/>
    </contour>
    <contour>
      <point x="250" y="450" type="line"/>
      <point x="300" y="450" type="line"/>
      <point x="300" y="600" type="line"/>
      <point x="250" y="600" type="line"/>
    </contour>
    <contour>
      <point x="200" y="400" type="line"/>
      <point x="250" y="400" type="line"/>
      <point x="250" y="450" type="line"/>
      <point x="200" y="450" type="line"/>
    </contour>
    <contour>
      <point x="150" y="350" type="line"/>
      <point x="200" y="350" type="line"/>
      <point x="200" y="400" type="line"/>
      <point x="150" y="400" type="line"/>
    </contour>
    <contour>
      <point x="100" y="400" type="line"/>
      <point x="150" y="400" type="line"/>
      <point x="150" y="450" type="line"/>
      <point x="100" y="450" type="line"/>
    </contour>
    <contour>
      <point x="50" y="450" type="line"/>
      <point x="100" y="450" type="line"/>
      <point x="100" y="600" type="line"/>
      <point x="50" y="600" type="line"/>
    </contour>
    <contour>
      <point x="100" y="600" type="line"/>
      <point x="150" y="600" type="line"/>
      <point x="150" y="650" type="line"/>
      <point x="100" y="650" type="line"/>
    </contour>
  </outline>
</glyph>
<glyph name="arrowboth" format="1">
  <advance width="1000"/>
  <unicode hex="2194"/>
  <outline>
    <contour>
      <point x="250" y="300" type="line"/>
      <point x="150" y="300" type="line"/>
      <point x="150" y="200" type="line"/>
      <point x="250" y="200" type="line"/>
    </contour>
    <contour>
      <point x="350" y="200" type="line"/>
      <point x="250" y="200" type="line"/>
      <point x="250" y="100" type="line"/>
      <point x="350" y="100" type="line"/>
    </contour>
    <contour>
      <point x="250" y="500" type="line"/>
      <point x="150" y="500" type="line"/>
      <point x="150" y="400" type="line"/>
      <point x="250" y="400" type="line"/>
    </contour>
    <contour>
      <point x="350" y="600" type="line"/>
      <point x="250" y="600" type="line"/>
      <point x="250" y="500" type="line"/>
      <point x="350" y="500" type="line"/>
    </contour>
    <contour>
      <point x="50" y="300" type="line"/>
      <point x="950" y="300" type="line"/>
      <point x="950" y="400" type="line"/>
      <point x="50" y="400" type="line"/>
    </contour>
    <contour>
      <point x="750" y="400" type="line"/>
      <point x="850" y="400" type="line"/>
      <point x="850" y="500" type="line"/>
      <point x="750" y="500" type="line"/>
    </contour>
    <contour>
      <point x="650" y="500" type="line"/>
      <point x="750" y="500" type="line"/>
      <point x="750" y="600" type="line"/>
      <point x="650" y="600" type="line"/>
    </contour>
    <contour>
      <point x="750" y="200" type="line"/>
      <point x="850" y="200" type="line"/>
      <point x="850" y="300" type="line"/>
      <point x="750" y="300" type="line"/>
    </contour>
    <contour>
      <point x="650" y="100" type="line"/>
      <point x="750" y="100" type="line"/>
      <point x="750" y="200" type="line"/>
      <point x="650" y="200" type="line"/>
    </contour>
  </outline>
</glyph>
<glyph name="uni21A4" format="1">
  <advance width="800"/>
  <unicode hex="21A4"/>
  <outline>
    <contour>
      <point x="750" y="100" type="line"/>
      <point x="750" y="600" type="line"/>
      <point x="650" y="600" type="line"/>
      <point x="650" y="100" type="line"/>
    </contour>
    <contour>
      <point x="750" y="300" type="line"/>
      <point x="750" y="400" type="line"/>
      <point x="50" y="400" type="line"/>
      <point x="50" y="300" type="line"/>
    </contour>
    <contour>
      <point x="250" y="200" type="line"/>
      <point x="250" y="500" type="line"/>
      <point x="150" y="500" type="line"/>
      <point x="150" y="200" type="line"/>
    </contour>
    <contour>
      <point x="350" y="100" type="line"/>
      <point x="350" y="200" type="line"/>
      <point x="250" y="200" type="line"/>
      <point x="250" y="100" type="line"/>
    </contour>
    <contour>
      <point x="350" y="500" type="line"/>
      <point x="350" y="600" type="line"/>
      <point x="250" y="600" type="line"/>
      <point x="250" y="500" type="line"/>
    </contour>
  </outline>
</glyph>
<glyph name="uni21A6" format="1">
  <advance width="800"/>
  <unicode hex="21A6"/>
  <outline>
    <contour>
      <point x="50" y="600" type="line"/>
      <point x="50" y="100" type="line"/>
      <point x="150" y="100" type="line"/>
      <point x="150" y="600" type="line"/>
    </contour>
    <contour>
      <point x="50" y="400" type="line"/>
      <point x="50" y="300" type="line"/>
      <point x="750" y="300" type="line"/>
      <point x="750" y="400" type="line"/>
    </contour>
    <contour>
      <point x="550" y="500" type="line"/>
      <point x="550" y="200" type="line"/>
      <point x="650" y="200" type="line"/>
      <point x="650" y="500" type="line"/>
    </contour>
    <contour>
      <point x="450" y="600" type="line"/>
      <point x="450" y="500" type="line"/>
      <point x="550" y="500" type="line"/>
      <point x="550" y="600" type="line"/>
    </contour>
    <contour>
      <point x="450" y="200" type="line"/>
      <point x="450" y="100" type="line"/>
      <point x="550" y="100" type="line"/>
      <point x="550" y="200" type="line"/>
    </contour>
  </outline>
</glyph>
<glyph name="uni21E9" format="1">
  <advance width="800"/>
  <unicode hex="21E9"/>
  <outline>
    <contour>
      <point x="250" y="200" type="line"/>
      <point x="250" y="100" type="line"/>
      <point x="350" y="100" type="line"/>
      <point x="350" y="200" type="line"/>
    </contour>
    <contour>
      <point x="150" y="300" type="line"/>
      <point x="150" y="200" type="line"/>
      <point x="250" y="200" type="line"/>
      <point x="250" y="300" type="line"/>
    </contour>
    <contour>
      <point x="350" y="100" type="line"/>
      <point x="350" y="0" type="line"/>
      <point x="450" y="0" type="line"/>
      <point x="450" y="100" type="line"/>
    </contour>
    <contour>
      <point x="450" y="200" type="line"/>
      <point x="450" y="100" type="line"/>
      <point x="550" y="100" type="line"/>
      <point x="550" y="200" type="line"/>
    </contour>
    <contour>
      <point x="550" y="300" type="line"/>
      <point x="550" y="200" type="line"/>
      <point x="650" y="200" type="line"/>
      <point x="650" y="300" type="line"/>
    </contour>
    <contour>
      <point x="450" y="400" type="line"/>
      <point x="450" y="300" type="line"/>
      <point x="750" y="300" type="line"/>
      <point x="750" y="400" type="line"/>
    </contour>
    <contour>
      <point x="50" y="400" type="line"/>
      <point x="50" y="300" type="line"/>
      <point x="350" y="300" type="line"/>
      <point x="350" y="400" type="line"/>
    </contour>
    <contour>
      <point x="450" y="600" type="line"/>
      <point x="450" y="400" type="line"/>
      <point x="550" y="400" type="line"/>
      <point x="550" y="600" type="line"/>
    </contour>
    <contour>
      <point x="250" y="600" type="line"/>
      <point x="250" y="400" type="line"/>
      <point x="350" y="400" type="line"/>
      <point x="350" y="600" type="line"/>
    </contour>
    <contour>
      <point x="250" y="700" type="line"/>
      <point x="250" y="600" type="line"/>
      <point x="550" y="600" type="line"/>
      <point x="550" y="700" type="line"/>
    </contour>
  </outline>
</glyph>
<glyph name="summation" format="1">
  <advance width="600"/>
  <unicode hex="2211"/>
  <outline>
    <contour>
      <point x="50" y="700" type="line"/>
      <point x="50" y="600" type="line"/>
      <point x="550" y="600" type="line"/>
      <point x="550" y="700" type="line"/>
    </contour>
    <contour>
      <point x="50" y="100" type="line"/>
      <point x="50" y="0" type="line"/>
      <point x="550" y="0" type="line"/>
      <point x="550" y="100" type="line"/>
    </contour>
    <contour>
      <point x="150" y="200" type="line"/>
      <point x="150" y="100" type="line"/>
      <point x="250" y="100" type="line"/>
      <point x="250" y="200" type="line"/>
    </contour>
    <contour>
      <point x="250" y="300" type="line"/>
      <point x="250" y="200" type="line"/>
      <point x="350" y="200" type="line"/>
      <point x="350" y="300" type="line"/>
    </contour>
    <contour>
      <point x="150" y="600" type="line"/>
      <point x="150" y="500" type="line"/>
      <point x="250" y="500" type="line"/>
      <point x="250" y="600" type="line"/>
    </contour>
    <contour>
      <point x="250" y="500" type="line"/>
      <point x="250" y="400" type="line"/>
      <point x="350" y="400" type="line"/>
      <point x="350" y="500" type="line"/>
    </contour>
    <contour>
      <point x="350" y="400" type="line"/>
      <point x="350" y="300" type="line"/>
      <point x="450" y="300" type="line"/>
      <point x="450" y="400" type="line"/>
    </contour>
  </outline>
</glyph>
<glyph name="minus" format="1">
  <advance width="600"/>
  <unicode hex="2212"/>
  <outline>
    <contour>
      <point x="50" y="300" type="line"/>
      <point x="50" y="200" type="line"/>
      <point x="550" y="200" type="line"/>
      <point x="550" y="300" type="line"/>
    </contour>
  </outline>
</glyph>
<glyph name="uni2219" format="1">
  <advance width="600"/>
  <unicode hex="2219"/>
  <outline>
    <contour>
      <point x="150" y="500" type="line"/>
      <point x="450" y="500" type="line"/>
      <point x="450" y="600" type="line"/>
      <point x="150" y="600" type="line"/>
    </contour>
    <contour>
      <point x="50" y="200" type="line"/>
      <point x="250" y="200" type="line"/>
      <point x="250" y="500" type="line"/>
      <point x="50" y="500" type="line"/>
    </contour>
    <contour>
      <point x="150" y="100" type="line"/>
      <point x="450" y="100" type="line"/>
      <point x="450" y="200" type="line"/>
      <point x="150" y="200" type="line"/>
    </contour>
    <contour>
      <point x="350" y="200" type="line"/>
      <point x="550" y="200" type="line"/>
      <point x="550" y="500" type="line"/>
      <point x="350" y="500" type="line"/>
    </contour>
    <contour>
      <point x="250" y="400" type="line"/>
      <point x="350" y="400" type="line"/>
      <point x="350" y="500" type="line"/>
      <point x="250" y="500" type="line"/>
    </contour>
    <contour>
      <point x="250" y="200" type="line"/>
      <point x="350" y="200" type="line"/>
      <point x="350" y="300" type="line"/>
      <point x="250" y="300" type="line"/>
    </contour>
  </outline>
</glyph>
<glyph name="infinity" format="1">
  <advance width="800"/>
  <unicode hex="221E"/>
  <outline>
    <contour>
      <point x="450" y="500" type="line"/>
      <point x="450" y="400" type="line"/>
      <point x="650" y="400" type="line"/>
      <point x="650" y="500" type="line"/>
    </contour>
    <contour>
      <point x="50" y="400" type="line"/>
      <point x="50" y="300" type="line"/>
      <point x="150" y="300" type="line"/>
      <point x="150" y="400" type="line"/>
    </contour>
    <contour>
      <point x="150" y="300" type="line"/>
      <point x="150" y="200" type="line"/>
      <point x="350" y="200" type="line"/>
      <point x="350" y="300" type="line"/>
    </contour>
    <contour>
      <point x="150" y="500" type="line"/>
      <point x="150" y="400" type="line"/>
      <point x="350" y="400" type="line"/>
      <point x="350" y="500" type="line"/>
    </contour>
    <contour>
      <point x="350" y="400" type="line"/>
      <point x="350" y="300" type="line"/>
      <point x="450" y="300" type="line"/>
      <point x="450" y="400" type="line"/>
    </contour>
    <contour>
      <point x="450" y="300" type="line"/>
      <point x="450" y="200" type="line"/>
      <point x="650" y="200" type="line"/>
      <point x="650" y="300" type="line"/>
    </contour>
    <contour>
      <point x="650" y="400" type="line"/>
      <point x="650" y="300" type="line"/>
      <point x="750" y="300" type="line"/>
      <point x="750" y="400" type="line"/>
    </contour>
  </outline>
</glyph>
<glyph name="integral" format="1">
  <advance width="400"/>
  <unicode hex="222B"/>
  <outline>
    <contour>
      <point x="150" y="600" type="line"/>
      <point x="150" y="-100" type="line"/>
      <point x="250" y="-100" type="line"/>
      <point x="250" y="600" type="line"/>
    </contour>
    <contour>
      <point x="50" y="-100" type="line"/>
      <point x="50" y="-200" type="line"/>
      <point x="150" y="-200" type="line"/>
      <point x="150" y="-100" type="line"/>
    </contour>
    <contour>
      <point x="250" y="700" type="line"/>
      <point x="250" y="600" type="line"/>
      <point x="350" y="600" type="line"/>
      <point x="350" y="700" type="line"/>
    </contour>
  </outline>
</glyph>
<glyph name="approxequal" format="1">
  <advance width="500"/>
  <unicode hex="2248"/>
  <outline>
    <contour>
      <point x="50" y="400" type="line"/>
      <point x="250" y="400" type="line"/>
      <point x="250" y="500" type="line"/>
      <point x="50" y="500" type="line"/>
    </contour>
    <contour>
      <point x="250" y="300" type="line"/>
      <point x="450" y="300" type="line"/>
      <point x="450" y="400" type="line"/>
      <point x="250" y="400" type="line"/>
    </contour>
    <contour>
      <point x="50" y="100" type="line"/>
      <point x="250" y="100" type="line"/>
      <point x="250" y="200" type="line"/>
      <point x="50" y="200" type="line"/>
    </contour>
    <contour>
      <point x="250" y="0" type="line"/>
      <point x="450" y="0" type="line"/>
      <point x="450" y="100" type="line"/>
      <point x="250" y="100" type="line"/>
    </contour>
    <contour>
      <point x="350" y="0" type="line"/>
      <point x="450" y="0" type="line"/>
      <point x="450" y="200" type="line"/>
      <point x="350" y="200" type="line"/>
    </contour>
    <contour>
      <point x="50" y="0" type="line"/>
      <point x="150" y="0" type="line"/>
      <point x="150" y="200" type="line"/>
      <point x="50" y="200" type="line"/>
    </contour>
    <contour>
      <point x="50" y="300" type="line"/>
      <point x="150" y="300" type="line"/>
      <point x="150" y="500" type="line"/>
      <point x="50" y="500" type="line"/>
    </contour>
    <contour>
      <point x="350" y="300" type="line"/>
      <point x="450" y="300" type="line"/>
      <point x="450" y="500" type="line"/>
      <point x="350" y="500" type="line"/>
    </contour>
  </outline>
</glyph>
<glyph name="lessequal" format="1">
  <advance width="400"/>
  <unicode hex="2264"/>
  <outline>
    <contour>
      <point x="50" y="100" type="line"/>
      <point x="50" y="0" type="line"/>
      <point x="350" y="0" type="line"/>
      <point x="350" y="100" type="line"/>
    </contour>
    <contour>
      <point x="50" y="400" type="line"/>
      <point x="50" y="300" type="line"/>
      <point x="250" y="300" type="line"/>
      <point x="250" y="400" type="line"/>
    </contour>
    <contour>
      <point x="250" y="300" type="line"/>
      <point x="250" y="200" type="line"/>
      <point x="350" y="200" type="line"/>
      <point x="350" y="300" type="line"/>
    </contour>
    <contour>
      <point x="250" y="500" type="line"/>
      <point x="250" y="400" type="line"/>
      <point x="350" y="400" type="line"/>
      <point x="350" y="500" type="line"/>
    </contour>
  </outline>
</glyph>
<glyph name="greaterequal" format="1">
  <advance width="400"/>
  <unicode hex="2265"/>
  <outline>
    <contour>
      <point x="50" y="100" type="line"/>
      <point x="50" y="0" type="line"/>
      <point x="350" y="0" type="line"/>
      <point x="350" y="100" type="line"/>
    </contour>
    <contour>
      <point x="50" y="300" type="line"/>
      <point x="50" y="200" type="line"/>
      <point x="150" y="200" type="line"/>
      <point x="150" y="300" type="line"/>
    </contour>
    <contour>
      <point x="50" y="500" type="line"/>
      <point x="50" y="400" type="line"/>
      <point x="150" y="400" type="line"/>
      <point x="150" y="500" type="line"/>
    </contour>
    <contour>
      <point x="150" y="400" type="line"/>
      <point x="150" y="300" type="line"/>
      <point x="350" y="300" type="line"/>
      <point x="350" y="400" type="line"/>
    </contour>
  </outline>
</glyph>
<glyph name="uni22B9" format="1">
  <advance width="800"/>
  <unicode hex="22B9"/>
  <outline>
    <contour>
      <point x="350" y="500" type="line"/>
      <point x="450" y="500" type="line"/>
      <point x="450" y="700" type="line"/>
      <point x="350" y="700" type="line"/>
    </contour>
    <contour>
      <point x="50" y="300" type="line"/>
      <point x="250" y="300" type="line"/>
      <point x="250" y="400" type="line"/>
      <point x="50" y="400" type="line"/>
    </contour>
    <contour>
      <point x="350" y="0" type="line"/>
      <point x="450" y="0" type="line"/>
      <point x="450" y="200" type="line"/>
      <point x="350" y="200" type="line"/>
    </contour>
    <contour>
      <point x="550" y="300" type="line"/>
      <point x="750" y="300" type="line"/>
      <point x="750" y="400" type="line"/>
      <point x="550" y="400" type="line"/>
    </contour>
  </outline>
</glyph>
<glyph name="uni22D4" format="1">
  <advance width="1200"/>
  <unicode hex="22D4"/>
  <outline>
    <contour>
      <point x="650" y="800" type="line"/>
      <point x="550" y="800" type="line"/>
      <point x="550" y="600" type="line"/>
      <point x="650" y="600" type="line"/>
    </contour>
    <contour>
      <point x="350" y="200" type="line"/>
      <point x="50" y="200" type="line"/>
      <point x="50" y="100" type="line"/>
      <point x="350" y="100" type="line"/>
    </contour>
    <contour>
      <point x="350" y="400" type="line"/>
      <point x="250" y="400" type="line"/>
      <point x="250" y="100" type="line"/>
      <point x="350" y="100" type="line"/>
    </contour>
    <contour>
      <point x="350" y="400" type="line"/>
      <point x="50" y="400" type="line"/>
      <point x="50" y="300" type="line"/>
      <point x="350" y="300" type="line"/>
    </contour>
    <contour>
      <point x="150" y="400" type="line"/>
      <point x="50" y="400" type="line"/>
      <point x="50" y="100" type="line"/>
      <point x="150" y="100" type="line"/>
    </contour>
    <contour>
      <point x="1150" y="200" type="line"/>
      <point x="850" y="200" type="line"/>
      <point x="850" y="100" type="line"/>
      <point x="1150" y="100" type="line"/>
    </contour>
    <contour>
      <point x="1150" y="400" type="line"/>
      <point x="1050" y="400" type="line"/>
      <point x="1050" y="100" type="line"/>
      <point x="1150" y="100" type="line"/>
    </contour>
    <contour>
      <point x="1150" y="400" type="line"/>
      <point x="850" y="400" type="line"/>
      <point x="850" y="300" type="line"/>
      <point x="1150" y="300" type="line"/>
    </contour>
    <contour>
      <point x="950" y="400" type="line"/>
      <point x="850" y="400" type="line"/>
      <point x="850" y="100" type="line"/>
      <point x="950" y="100" type="line"/>
    </contour>
    <contour>
      <point x="1050" y="500" type="line"/>
      <point x="950" y="500" type="line"/>
      <point x="950" y="400" type="line"/>
      <point x="1050" y="400" type="line"/>
    </contour>
    <contour>
      <point x="250" y="500" type="line"/>
      <point x="150" y="500" type="line"/>
      <point x="150" y="400" type="line"/>
      <point x="250" y="400" type="line"/>
    </contour>
    <contour>
      <point x="1050" y="600" type="line"/>
      <point x="150" y="600" type="line"/>
      <point x="150" y="500" type="line"/>
      <point x="1050" y="500" type="line"/>
    </contour>
    <contour>
      <point x="750" y="200" type="line"/>
      <point x="450" y="200" type="line"/>
      <point x="450" y="100" type="line"/>
      <point x="750" y="100" type="line"/>
    </contour>
    <contour>
      <point x="750" y="400" type="line"/>
      <point x="650" y="400" type="line"/>
      <point x="650" y="100" type="line"/>
      <point x="750" y="100" type="line"/>
    </contour>
    <contour>
      <point x="750" y="400" type="line"/>
      <point x="450" y="400" type="line"/>
      <point x="450" y="300" type="line"/>
      <point x="750" y="300" type="line"/>
    </contour>
    <contour>
      <point x="550" y="400" type="line"/>
      <point x="450" y="400" type="line"/>
      <point x="450" y="100" type="line"/>
      <point x="550" y="100" type="line"/>
    </contour>
    <contour>
      <point x="650" y="500" type="line"/>
      <point x="550" y="500" type="line"/>
      <point x="550" y="400" type="line"/>
      <point x="650" y="400" type="line"/>
    </contour>
  </outline>
</glyph>
<glyph name="uni23E9" format="1">
  <advance width="900"/>
  <unicode hex="23E9"/>
  <outline>
    <contour>
      <point x="50" y="0" type="line"/>
      <point x="150" y="0" type="line"/>
      <point x="150" y="700" type="line"/>
      <point x="50" y="700" type="line"/>
    </contour>
    <contour>
      <point x="150" y="100" type="line"/>
      <point x="250" y="100" type="line"/>
      <point x="250" y="600" type="line"/>
      <point x="150" y="600" type="line"/>
    </contour>
    <contour>
      <point x="250" y="200" type="line"/>
      <point x="350" y="200" type="line"/>
      <point x="350" y="500" type="line"/>
      <point x="250" y="500" type="line"/>
    </contour>
    <contour>
      <point x="350" y="300" type="line"/>
      <point x="450" y="300" type="line"/>
      <point x="450" y="400" type="line"/>
      <point x="350" y="400" type="line"/>
    </contour>
    <contour>
      <point x="450" y="0" type="line"/>
      <point x="550" y="0" type="line"/>
      <point x="550" y="700" type="line"/>
      <point x="450" y="700" type="line"/>
    </contour>
    <contour>
      <point x="550" y="100" type="line"/>
      <point x="650" y="100" type="line"/>
      <point x="650" y="600" type="line"/>
      <point x="550" y="600" type="line"/>
    </contour>
    <contour>
      <point x="650" y="200" type="line"/>
      <point x="750" y="200" type="line"/>
      <point x="750" y="500" type="line"/>
      <point x="650" y="500" type="line"/>
    </contour>
    <contour>
      <point x="750" y="300" type="line"/>
      <point x="850" y="300" type="line"/>
      <point x="850" y="400" type="line"/>
      <point x="750" y="400" type="line"/>
    </contour>
  </outline>
</glyph>
<glyph name="uni23EA" format="1">
  <advance width="900"/>
  <unicode hex="23EA"/>
  <outline>
    <contour>
      <point x="850" y="700" type="line"/>
      <point x="750" y="700" type="line"/>
      <point x="750" y="0" type="line"/>
      <point x="850" y="0" type="line"/>
    </contour>
    <contour>
      <point x="750" y="600" type="line"/>
      <point x="650" y="600" type="line"/>
      <point x="650" y="100" type="line"/>
      <point x="750" y="100" type="line"/>
    </contour>
    <contour>
      <point x="650" y="500" type="line"/>
      <point x="550" y="500" type="line"/>
      <point x="550" y="200" type="line"/>
      <point x="650" y="200" type="line"/>
    </contour>
    <contour>
      <point x="550" y="400" type="line"/>
      <point x="450" y="400" type="line"/>
      <point x="450" y="300" type="line"/>
      <point x="550" y="300" type="line"/>
    </contour>
    <contour>
      <point x="450" y="700" type="line"/>
      <point x="350" y="700" type="line"/>
      <point x="350" y="0" type="line"/>
      <point x="450" y="0" type="line"/>
    </contour>
    <contour>
      <point x="350" y="600" type="line"/>
      <point x="250" y="600" type="line"/>
      <point x="250" y="100" type="line"/>
      <point x="350" y="100" type="line"/>
    </contour>
    <contour>
      <point x="250" y="500" type="line"/>
      <point x="150" y="500" type="line"/>
      <point x="150" y="200" type="line"/>
      <point x="250" y="200" type="line"/>
    </contour>
    <contour>
      <point x="150" y="400" type="line"/>
      <point x="50" y="400" type="line"/>
      <point x="50" y="300" type="line"/>
      <point x="150" y="300" type="line"/>
    </contour>
  </outline>
</glyph>
<glyph name="uni23EF" format="1">
  <advance width="900"/>
  <unicode hex="23EF"/>
  <outline>
    <contour>
      <point x="50" y="0" type="line"/>
      <point x="150" y="0" type="line"/>
      <point x="150" y="700" type="line"/>
      <point x="50" y="700" type="line"/>
    </contour>
    <contour>
      <point x="150" y="100" type="line"/>
      <point x="250" y="100" type="line"/>
      <point x="250" y="600" type="line"/>
      <point x="150" y="600" type="line"/>
    </contour>
    <contour>
      <point x="250" y="200" type="line"/>
      <point x="350" y="200" type="line"/>
      <point x="350" y="500" type="line"/>
      <point x="250" y="500" type="line"/>
    </contour>
    <contour>
      <point x="350" y="300" type="line"/>
      <point x="450" y="300" type="line"/>
      <point x="450" y="400" type="line"/>
      <point x="350" y="400" type="line"/>
    </contour>
    <contour>
      <point x="550" y="0" type="line"/>
      <point x="650" y="0" type="line"/>
      <point x="650" y="700" type="line"/>
      <point x="550" y="700" type="line"/>
    </contour>
    <contour>
      <point x="750" y="0" type="line"/>
      <point x="850" y="0" type="line"/>
      <point x="850" y="700" type="line"/>
      <point x="750" y="700" type="line"/>
    </contour>
  </outline>
</glyph>
<glyph name="uni23F9" format="1">
  <advance width="800"/>
  <unicode hex="23F9"/>
  <outline>
    <contour>
      <point x="50" y="0" type="line"/>
      <point x="750" y="0" type="line"/>
      <point x="750" y="700" type="line"/>
      <point x="50" y="700" type="line"/>
    </contour>
  </outline>
</glyph>
<glyph name="uni25A4" format="1">
  <advance width="800"/>
  <unicode hex="25A4"/>
  <outline>
    <contour>
      <point x="800" y="600" type="line"/>
      <point x="800" y="700" type="line"/>
      <point x="0" y="700" type="line"/>
      <point x="0" y="600" type="line"/>
    </contour>
    <contour>
      <point x="800" y="400" type="line"/>
      <point x="800" y="500" type="line"/>
      <point x="0" y="500" type="line"/>
      <point x="0" y="400" type="line"/>
    </contour>
    <contour>
      <point x="800" y="200" type="line"/>
      <point x="800" y="300" type="line"/>
      <point x="0" y="300" type="line"/>
      <point x="0" y="200" type="line"/>
    </contour>
    <contour>
      <point x="800" y="0" type="line"/>
      <point x="800" y="100" type="line"/>
      <point x="0" y="100" type="line"/>
      <point x="0" y="0" type="line"/>
    </contour>
    <contour>
      <point x="800" y="-200" type="line"/>
      <point x="800" y="-100" type="line"/>
      <point x="0" y="-100" type="line"/>
      <point x="0" y="-200" type="line"/>
    </contour>
  </outline>
</glyph>
<glyph name="uni25A5" format="1">
  <advance width="800"/>
  <unicode hex="25A5"/>
  <outline>
    <contour>
      <point x="0" y="-200" type="line"/>
      <point x="100" y="-200" type="line"/>
      <point x="100" y="800" type="line"/>
      <point x="0" y="800" type="line"/>
    </contour>
    <contour>
      <point x="200" y="-200" type="line"/>
      <point x="300" y="-200" type="line"/>
      <point x="300" y="800" type="line"/>
      <point x="200" y="800" type="line"/>
    </contour>
    <contour>
      <point x="400" y="-200" type="line"/>
      <point x="500" y="-200" type="line"/>
      <point x="500" y="800" type="line"/>
      <point x="400" y="800" type="line"/>
    </contour>
    <contour>
      <point x="600" y="-200" type="line"/>
      <point x="700" y="-200" type="line"/>
      <point x="700" y="800" type="line"/>
      <point x="600" y="800" type="line"/>
    </contour>
  </outline>
</glyph>
<glyph name="uni25A6" format="1">
  <advance width="800"/>
  <unicode hex="25A6"/>
  <outline>
    <contour>
      <point x="0" y="-200" type="line"/>
      <point x="800" y="-200" type="line"/>
      <point x="800" y="800" type="line"/>
      <point x="0" y="800" type="line"/>
    </contour>
  </outline>
</glyph>
<glyph name="uni25A7" format="1">
  <advance width="800"/>
  <unicode hex="25A7"/>
  <outline>
    <contour>
      <point x="0" y="700" type="line"/>
      <point x="100" y="700" type="line"/>
      <point x="100" y="800" type="line"/>
      <point x="0" y="800" type="line"/>
    </contour>
    <contour>
      <point x="400" y="700" type="line"/>
      <point x="500" y="700" type="line"/>
      <point x="500" y="800" type="line"/>
      <point x="400" y="800" type="line"/>
    </contour>
    <contour>
      <point x="0" y="200" type="line"/>
      <point x="100" y="200" type="line"/>
      <point x="100" y="300" type="line"/>
      <point x="0" y="300" type="line"/>
    </contour>
    <contour>
      <point x="400" y="200" type="line"/>
      <point x="500" y="200" type="line"/>
      <point x="500" y="300" type="line"/>
      <point x="400" y="300" type="line"/>
    </contour>
    <contour>
      <point x="200" y="400" type="line"/>
      <point x="300" y="400" type="line"/>
      <point x="300" y="600" type="line"/>
      <point x="200" y="600" type="line"/>
    </contour>
    <contour>
      <point x="100" y="600" type="line"/>
      <point x="200" y="600" type="line"/>
      <point x="200" y="700" type="line"/>
      <point x="100" y="700" type="line"/>
    </contour>
    <contour>
      <point x="300" y="300" type="line"/>
      <point x="400" y="300" type="line"/>
      <point x="400" y="400" type="line"/>
      <point x="300" y="400" type="line"/>
    </contour>
    <contour>
      <point x="500" y="100" type="line"/>
      <point x="600" y="100" type="line"/>
      <point x="600" y="200" type="line"/>
      <point x="500" y="200" type="line"/>
    </contour>
    <contour>
      <point x="600" y="-100" type="line"/>
      <point x="700" y="-100" type="line"/>
      <point x="700" y="100" type="line"/>
      <point x="600" y="100" type="line"/>
    </contour>
    <contour>
      <point x="700" y="-200" type="line"/>
      <point x="800" y="-200" type="line"/>
      <point x="800" y="-100" type="line"/>
      <point x="700" y="-100" type="line"/>
    </contour>
    <contour>
      <point x="500" y="600" type="line"/>
      <point x="600" y="600" type="line"/>
      <point x="600" y="700" type="line"/>
      <point x="500" y="700" type="line"/>
    </contour>
    <contour>
      <point x="600" y="400" type="line"/>
      <point x="700" y="400" type="line"/>
      <point x="700" y="600" type="line"/>
      <point x="600" y="600" type="line"/>
    </contour>
    <contour>
      <point x="700" y="300" type="line"/>
      <point x="800" y="300" type="line"/>
      <point x="800" y="400" type="line"/>
      <point x="700" y="400" type="line"/>
    </contour>
    <contour>
      <point x="100" y="100" type="line"/>
      <point x="200" y="100" type="line"/>
      <point x="200" y="200" type="line"/>
      <point x="100" y="200" type="line"/>
    </contour>
    <contour>
      <point x="200" y="-100" type="line"/>
      <point x="300" y="-100" type="line"/>
      <point x="300" y="100" type="line"/>
      <point x="200" y="100" type="line"/>
    </contour>
    <contour>
      <point x="300" y="-200" type="line"/>
      <point x="400" y="-200" type="line"/>
      <point x="400" y="-100" type="line"/>
      <point x="300" y="-100" type="line"/>
    </contour>
  </outline>
</glyph>
<glyph name="uni25A8" format="1">
  <advance width="800"/>
  <unicode hex="25A8"/>
  <outline>
    <contour>
      <point x="0" y="800" type="line"/>
      <point x="0" y="700" type="line"/>
      <point x="100" y="700" type="line"/>
      <point x="100" y="800" type="line"/>
    </contour>
    <contour>
      <point x="400" y="800" type="line"/>
      <point x="400" y="700" type="line"/>
      <point x="500" y="700" type="line"/>
      <point x="500" y="800" type="line"/>
    </contour>
    <contour>
      <point x="0" y="300" type="line"/>
      <point x="0" y="200" type="line"/>
      <point x="100" y="200" type="line"/>
      <point x="100" y="300" type="line"/>
    </contour>
    <contour>
      <point x="400" y="300" type="line"/>
      <point x="400" y="200" type="line"/>
      <point x="500" y="200" type="line"/>
      <point x="500" y="300" type="line"/>
    </contour>
    <contour>
      <point x="600" y="600" type="line"/>
      <point x="600" y="400" type="line"/>
      <point x="700" y="400" type="line"/>
      <point x="700" y="600" type="line"/>
    </contour>
    <contour>
      <point x="700" y="700" type="line"/>
      <point x="700" y="600" type="line"/>
      <point x="800" y="600" type="line"/>
      <point x="800" y="700" type="line"/>
    </contour>
    <contour>
      <point x="500" y="400" type="line"/>
      <point x="500" y="300" type="line"/>
      <point x="600" y="300" type="line"/>
      <point x="600" y="400" type="line"/>
    </contour>
    <contour>
      <point x="300" y="200" type="line"/>
      <point x="300" y="100" type="line"/>
      <point x="400" y="100" type="line"/>
      <point x="400" y="200" type="line"/>
    </contour>
    <contour>
      <point x="200" y="100" type="line"/>
      <point x="200" y="-100" type="line"/>
      <point x="300" y="-100" type="line"/>
      <point x="300" y="100" type="line"/>
    </contour>
    <contour>
      <point x="100" y="-100" type="line"/>
      <point x="100" y="-200" type="line"/>
      <point x="200" y="-200" type="line"/>
      <point x="200" y="-100" type="line"/>
    </contour>
    <contour>
      <point x="300" y="700" type="line"/>
      <point x="300" y="600" type="line"/>
      <point x="400" y="600" type="line"/>
      <point x="400" y="700" type="line"/>
    </contour>
    <contour>
      <point x="200" y="600" type="line"/>
      <point x="200" y="400" type="line"/>
      <point x="300" y="400" type="line"/>
      <point x="300" y="600" type="line"/>
    </contour>
    <contour>
      <point x="100" y="400" type="line"/>
      <point x="100" y="300" type="line"/>
      <point x="200" y="300" type="line"/>
      <point x="200" y="400" type="line"/>
    </contour>
    <contour>
      <point x="700" y="200" type="line"/>
      <point x="700" y="100" type="line"/>
      <point x="800" y="100" type="line"/>
      <point x="800" y="200" type="line"/>
    </contour>
    <contour>
      <point x="600" y="100" type="line"/>
      <point x="600" y="-100" type="line"/>
      <point x="700" y="-100" type="line"/>
      <point x="700" y="100" type="line"/>
    </contour>
    <contour>
      <point x="500" y="-100" type="line"/>
      <point x="500" y="-200" type="line"/>
      <point x="600" y="-200" type="line"/>
      <point x="600" y="-100" type="line"/>
    </contour>
  </outline>
</glyph>
<glyph name="triagup" format="1">
  <advance width="800"/>
  <unicode hex="25B2"/>
  <outline>
    <contour>
      <point x="750" y="150" type="line"/>
      <point x="750" y="250" type="line"/>
      <point x="50" y="250" type="line"/>
      <point x="50" y="150" type="line"/>
    </contour>
    <contour>
      <point x="650" y="250" type="line"/>
      <point x="650" y="350" type="line"/>
      <point x="150" y="350" type="line"/>
      <point x="150" y="250" type="line"/>
    </contour>
    <contour>
      <point x="550" y="350" type="line"/>
      <point x="550" y="450" type="line"/>
      <point x="250" y="450" type="line"/>
      <point x="250" y="350" type="line"/>
    </contour>
    <contour>
      <point x="450" y="450" type="line"/>
      <point x="450" y="550" type="line"/>
      <point x="350" y="550" type="line"/>
      <point x="350" y="450" type="line"/>
    </contour>
  </outline>
</glyph>
<glyph name="uni25B7" format="1">
  <advance width="600"/>
  <unicode hex="25B7"/>
  <outline>
    <contour>
      <point x="350" y="300" type="line"/>
      <point x="450" y="300" type="line"/>
      <point x="450" y="400" type="line"/>
      <point x="350" y="400" type="line"/>
    </contour>
    <contour>
      <point x="150" y="600" type="line"/>
      <point x="150" y="500" type="line"/>
      <point x="250" y="500" type="line"/>
      <point x="250" y="600" type="line"/>
    </contour>
    <contour>
      <point x="250" y="500" type="line"/>
      <point x="250" y="400" type="line"/>
      <point x="350" y="400" type="line"/>
      <point x="350" y="500" type="line"/>
    </contour>
    <contour>
      <point x="250" y="300" type="line"/>
      <point x="250" y="200" type="line"/>
      <point x="350" y="200" type="line"/>
      <point x="350" y="300" type="line"/>
    </contour>
    <contour>
      <point x="150" y="200" type="line"/>
      <point x="150" y="100" type="line"/>
      <point x="250" y="100" type="line"/>
      <point x="250" y="200" type="line"/>
    </contour>
  </outline>
</glyph>
<glyph name="uni25C1" format="1">
  <advance width="600"/>
  <unicode hex="25C1"/>
  <outline>
    <contour>
      <point x="250" y="400" type="line"/>
      <point x="150" y="400" type="line"/>
      <point x="150" y="300" type="line"/>
      <point x="250" y="300" type="line"/>
    </contour>
    <contour>
      <point x="450" y="100" type="line"/>
      <point x="450" y="200" type="line"/>
      <point x="350" y="200" type="line"/>
      <point x="350" y="100" type="line"/>
    </contour>
    <contour>
      <point x="350" y="200" type="line"/>
      <point x="350" y="300" type="line"/>
      <point x="250" y="300" type="line"/>
      <point x="250" y="200" type="line"/>
    </contour>
    <contour>
      <point x="350" y="400" type="line"/>
      <point x="350" y="500" type="line"/>
      <point x="250" y="500" type="line"/>
      <point x="250" y="400" type="line"/>
    </contour>
    <contour>
      <point x="450" y="500" type="line"/>
      <point x="450" y="600" type="line"/>
      <point x="350" y="600" type="line"/>
      <point x="350" y="500" type="line"/>
    </contour>
  </outline>
</glyph>
<glyph name="lozenge" format="1">
  <advance width="600"/>
  <unicode hex="25CA"/>
  <outline>
    <contour>
      <point x="350" y="600" type="line"/>
      <point x="350" y="400" type="line"/>
      <point x="450" y="400" type="line"/>
      <point x="450" y="600" type="line"/>
    </contour>
    <contour>
      <point x="250" y="100" type="line"/>
      <point x="250" y="0" type="line"/>
      <point x="350" y="0" type="line"/>
      <point x="350" y="100" type="line"/>
    </contour>
    <contour>
      <point x="150" y="300" type="line"/>
      <point x="150" y="100" type="line"/>
      <point x="250" y="100" type="line"/>
      <point x="250" y="300" type="line"/>
    </contour>
    <contour>
      <point x="50" y="400" type="line"/>
      <point x="50" y="300" type="line"/>
      <point x="150" y="300" type="line"/>
      <point x="150" y="400" type="line"/>
    </contour>
    <contour>
      <point x="350" y="300" type="line"/>
      <point x="350" y="100" type="line"/>
      <point x="450" y="100" type="line"/>
      <point x="450" y="300" type="line"/>
    </contour>
    <contour>
      <point x="150" y="600" type="line"/>
      <point x="150" y="400" type="line"/>
      <point x="250" y="400" type="line"/>
      <point x="250" y="600" type="line"/>
    </contour>
    <contour>
      <point x="450" y="400" type="line"/>
      <point x="450" y="300" type="line"/>
      <point x="550" y="300" type="line"/>
      <point x="550" y="400" type="line"/>
    </contour>
    <contour>
      <point x="250" y="700" type="line"/>
      <point x="250" y="600" type="line"/>
      <point x="350" y="600" type="line"/>
      <point x="350" y="700" type="line"/>
    </contour>
  </outline>
</glyph>
<glyph name="uni260D" format="1">
  <advance width="800"/>
  <unicode hex="260D"/>
  <outline>
    <contour>
      <point x="50" y="100" type="line"/>
      <point x="150" y="100" type="line"/>
      <point x="150" y="400" type="line"/>
      <point x="50" y="400" type="line"/>
    </contour>
    <contour>
      <point x="50" y="100" type="line"/>
      <point x="350" y="100" type="line"/>
      <point x="350" y="200" type="line"/>
      <point x="50" y="200" type="line"/>
    </contour>
    <contour>
      <point x="50" y="300" type="line"/>
      <point x="350" y="300" type="line"/>
      <point x="350" y="400" type="line"/>
      <point x="50" y="400" type="line"/>
    </contour>
    <contour>
      <point x="250" y="100" type="line"/>
      <point x="350" y="100" type="line"/>
      <point x="350" y="400" type="line"/>
      <point x="250" y="400" type="line"/>
    </contour>
    <contour>
      <point x="450" y="300" type="line"/>
      <point x="550" y="300" type="line"/>
      <point x="550" y="600" type="line"/>
      <point x="450" y="600" type="line"/>
    </contour>
    <contour>
      <point x="450" y="300" type="line"/>
      <point x="750" y="300" type="line"/>
      <point x="750" y="400" type="line"/>
      <point x="450" y="400" type="line"/>
    </contour>
    <contour>
      <point x="450" y="500" type="line"/>
      <point x="750" y="500" type="line"/>
      <point x="750" y="600" type="line"/>
      <point x="450" y="600" type="line"/>
    </contour>
    <contour>
      <point x="650" y="300" type="line"/>
      <point x="750" y="300" type="line"/>
      <point x="750" y="600" type="line"/>
      <point x="650" y="600" type="line"/>
    </contour>
    <contour>
      <point x="350" y="300" type="line"/>
      <point x="450" y="300" type="line"/>
      <point x="450" y="400" type="line"/>
      <point x="350" y="400" type="line"/>
    </contour>
  </outline>
</glyph>
<glyph name="uni263F" format="1">
  <advance width="600"/>
  <unicode hex="263F"/>
  <outline>
    <contour>
      <point x="150" y="500" type="line"/>
      <point x="450" y="500" type="line"/>
      <point x="450" y="600" type="line"/>
      <point x="150" y="600" type="line"/>
    </contour>
    <contour>
      <point x="450" y="300" type="line"/>
      <point x="550" y="300" type="line"/>
      <point x="550" y="500" type="line"/>
      <point x="450" y="500" type="line"/>
    </contour>
    <contour>
      <point x="50" y="300" type="line"/>
      <point x="150" y="300" type="line"/>
      <point x="150" y="500" type="line"/>
      <point x="50" y="500" type="line"/>
    </contour>
    <contour>
      <point x="150" y="200" type="line"/>
      <point x="450" y="200" type="line"/>
      <point x="450" y="300" type="line"/>
      <point x="150" y="300" type="line"/>
    </contour>
    <contour>
      <point x="250" y="-100" type="line"/>
      <point x="350" y="-100" type="line"/>
      <point x="350" y="200" type="line"/>
      <point x="250" y="200" type="line"/>
    </contour>
    <contour>
      <point x="150" y="0" type="line"/>
      <point x="450" y="0" type="line"/>
      <point x="450" y="100" type="line"/>
      <point x="150" y="100" type="line"/>
    </contour>
    <contour>
      <point x="50" y="600" type="line"/>
      <point x="150" y="600" type="line"/>
      <point x="150" y="700" type="line"/>
      <point x="50" y="700" type="line"/>
    </contour>
    <contour>
      <point x="450" y="600" type="line"/>
      <point x="550" y="600" type="line"/>
      <point x="550" y="700" type="line"/>
      <point x="450" y="700" type="line"/>
    </contour>
  </outline>
</glyph>
<glyph name="uni265A" format="1">
  <advance width="600"/>
  <unicode hex="265A"/>
  <outline>
    <contour>
      <point x="50" y="0" type="line"/>
      <point x="550" y="0" type="line"/>
      <point x="550" y="100" type="line"/>
      <point x="50" y="100" type="line"/>
    </contour>
    <contour>
      <point x="150" y="100" type="line"/>
      <point x="450" y="100" type="line"/>
      <point x="450" y="200" type="line"/>
      <point x="150" y="200" type="line"/>
    </contour>
    <contour>
      <point x="250" y="200" type="line"/>
      <point x="350" y="200" type="line"/>
      <point x="350" y="300" type="line"/>
      <point x="250" y="300" type="line"/>
    </contour>
    <contour>
      <point x="150" y="300" type="line"/>
      <point x="450" y="300" type="line"/>
      <point x="450" y="400" type="line"/>
      <point x="150" y="400" type="line"/>
    </contour>
    <contour>
      <point x="150" y="400" type="line"/>
      <point x="250" y="400" type="line"/>
      <point x="250" y="500" type="line"/>
      <point x="150" y="500" type="line"/>
    </contour>
    <contour>
      <point x="350" y="400" type="line"/>
      <point x="450" y="400" type="line"/>
      <point x="450" y="500" type="line"/>
      <point x="350" y="500" type="line"/>
    </contour>
    <contour>
      <point x="150" y="600" type="line"/>
      <point x="450" y="600" type="line"/>
      <point x="450" y="700" type="line"/>
      <point x="150" y="700" type="line"/>
    </contour>
    <contour>
      <point x="250" y="500" type="line"/>
      <point x="350" y="500" type="line"/>
      <point x="350" y="800" type="line"/>
      <point x="250" y="800" type="line"/>
    </contour>
  </outline>
</glyph>
<glyph name="club" format="1">
  <advance width="600"/>
  <unicode hex="2663"/>
  <outline>
    <contour>
      <point x="150" y="0" type="line"/>
      <point x="450" y="0" type="line"/>
      <point x="450" y="100" type="line"/>
      <point x="150" y="100" type="line"/>
    </contour>
    <contour>
      <point x="250" y="100" type="line"/>
      <point x="350" y="100" type="line"/>
      <point x="350" y="200" type="line"/>
      <point x="250" y="200" type="line"/>
    </contour>
    <contour>
      <point x="250" y="400" type="line"/>
      <point x="350" y="400" type="line"/>
      <point x="350" y="600" type="line"/>
      <point x="250" y="600" type="line"/>
    </contour>
    <contour>
      <point x="50" y="200" type="line"/>
      <point x="150" y="200" type="line"/>
      <point x="150" y="400" type="line"/>
      <point x="50" y="400" type="line"/>
    </contour>
    <contour>
      <point x="450" y="200" type="line"/>
      <point x="550" y="200" type="line"/>
      <point x="550" y="400" type="line"/>
      <point x="450" y="400" type="line"/>
    </contour>
  </outline>
</glyph>
<glyph name="uni2669" format="1">
  <advance width="400"/>
  <unicode hex="2669"/>
  <outline>
    <contour>
      <point x="50" y="200" type="line"/>
      <point x="50" y="0" type="line"/>
      <point x="250" y="0" type="line"/>
      <point x="250" y="200" type="line"/>
    </contour>
    <contour>
      <point x="250" y="700" type="line"/>
      <point x="250" y="100" type="line"/>
      <point x="350" y="100" type="line"/>
      <point x="350" y="700" type="line"/>
    </contour>
  </outline>
</glyph>
<glyph name="uni266C" format="1">
  <advance width="800"/>
  <unicode hex="266C"/>
  <outline>
    <contour>
      <point x="50" y="0" type="line"/>
      <point x="250" y="0" type="line"/>
      <point x="250" y="200" type="line"/>
      <point x="50" y="200" type="line"/>
    </contour>
    <contour>
      <point x="250" y="100" type="line"/>
      <point x="350" y="100" type="line"/>
      <point x="350" y="700" type="line"/>
      <point x="250" y="700" type="line"/>
    </contour>
    <contour>
      <point x="450" y="0" type="line"/>
      <point x="650" y="0" type="line"/>
      <point x="650" y="200" type="line"/>
      <point x="450" y="200" type="line"/>
    </contour>
    <contour>
      <point x="650" y="100" type="line"/>
      <point x="750" y="100" type="line"/>
      <point x="750" y="700" type="line"/>
      <point x="650" y="700" type="line"/>
    </contour>
    <contour>
      <point x="250" y="600" type="line"/>
      <point x="750" y="600" type="line"/>
      <point x="750" y="700" type="line"/>
      <point x="250" y="700" type="line"/>
    </contour>
    <contour>
      <point x="250" y="400" type="line"/>
      <point x="750" y="400" type="line"/>
      <point x="750" y="500" type="line"/>
      <point x="250" y="500" type="line"/>
    </contour>
  </outline>
</glyph>
<glyph name="uni266D" format="1">
  <advance width="500"/>
  <unicode hex="266D"/>
  <outline>
    <contour>
      <point x="50" y="0" type="line"/>
      <point x="150" y="0" type="line"/>
      <point x="150" y="700" type="line"/>
      <point x="50" y="700" type="line"/>
    </contour>
    <contour>
      <point x="350" y="200" type="line"/>
      <point x="450" y="200" type="line"/>
      <point x="450" y="400" type="line"/>
      <point x="350" y="400" type="line"/>
    </contour>
    <contour>
      <point x="250" y="100" type="line"/>
      <point x="350" y="100" type="line"/>
      <point x="350" y="200" type="line"/>
      <point x="250" y="200" type="line"/>
    </contour>
    <contour>
      <point x="150" y="0" type="line"/>
      <point x="250" y="0" type="line"/>
      <point x="250" y="100" type="line"/>
      <point x="150" y="100" type="line"/>
    </contour>
    <contour>
      <point x="150" y="300" type="line"/>
      <point x="250" y="300" type="line"/>
      <point x="250" y="400" type="line"/>
      <point x="150" y="400" type="line"/>
    </contour>
    <contour>
      <point x="250" y="400" type="line"/>
      <point x="350" y="400" type="line"/>
      <point x="350" y="500" type="line"/>
      <point x="250" y="500" type="line"/>
    </contour>
  </outline>
</glyph>
<glyph name="uni2697" format="1">
  <advance width="700"/>
  <unicode hex="2697"/>
  <outline>
    <contour>
      <point x="150" y="600" type="line"/>
      <point x="550" y="600" type="line"/>
      <point x="550" y="700" type="line"/>
      <point x="150" y="700" type="line"/>
    </contour>
    <contour>
      <point x="250" y="400" type="line"/>
      <point x="450" y="400" type="line"/>
      <point x="450" y="600" type="line"/>
      <point x="250" y="600" type="line"/>
    </contour>
    <contour>
      <point x="150" y="300" type="line"/>
      <point x="550" y="300" type="line"/>
      <point x="550" y="400" type="line"/>
      <point x="150" y="400" type="line"/>
    </contour>
    <contour>
      <point x="50" y="0" type="line"/>
      <point x="650" y="0" type="line"/>
      <point x="650" y="300" type="line"/>
      <point x="50" y="300" type="line"/>
    </contour>
    <contour>
      <point x="150" y="-100" type="line"/>
      <point x="550" y="-100" type="line"/>
      <point x="550" y="0" type="line"/>
      <point x="150" y="0" type="line"/>
    </contour>
  </outline>
</glyph>
<glyph name="uni26A3" format="1">
  <advance width="900"/>
  <unicode hex="26A3"/>
  <outline>
    <contour>
      <point x="350" y="600" type="line"/>
      <point x="650" y="600" type="line"/>
      <point x="650" y="700" type="line"/>
      <point x="350" y="700" type="line"/>
    </contour>
    <contour>
      <point x="550" y="400" type="line"/>
      <point x="650" y="400" type="line"/>
      <point x="650" y="700" type="line"/>
      <point x="550" y="700" type="line"/>
    </contour>
    <contour>
      <point x="550" y="400" type="line"/>
      <point x="850" y="400" type="line"/>
      <point x="850" y="500" type="line"/>
      <point x="550" y="500" type="line"/>
    </contour>
    <contour>
      <point x="750" y="200" type="line"/>
      <point x="850" y="200" type="line"/>
      <point x="850" y="500" type="line"/>
      <point x="750" y="500" type="line"/>
    </contour>
    <contour>
      <point x="50" y="200" type="line"/>
      <point x="150" y="200" type="line"/>
      <point x="150" y="400" type="line"/>
      <point x="50" y="400" type="line"/>
    </contour>
    <contour>
      <point x="150" y="100" type="line"/>
      <point x="350" y="100" type="line"/>
      <point x="350" y="200" type="line"/>
      <point x="150" y="200" type="line"/>
    </contour>
    <contour>
      <point x="150" y="400" type="line"/>
      <point x="350" y="400" type="line"/>
      <point x="350" y="500" type="line"/>
      <point x="150" y="500" type="line"/>
    </contour>
    <contour>
      <point x="350" y="200" type="line"/>
      <point x="450" y="200" type="line"/>
      <point x="450" y="400" type="line"/>
      <point x="350" y="400" type="line"/>
    </contour>
    <contour>
      <point x="250" y="0" type="line"/>
      <point x="350" y="0" type="line"/>
      <point x="350" y="200" type="line"/>
      <point x="250" y="200" type="line"/>
    </contour>
    <contour>
      <point x="350" y="-100" type="line"/>
      <point x="550" y="-100" type="line"/>
      <point x="550" y="0" type="line"/>
      <point x="350" y="0" type="line"/>
    </contour>
    <contour>
      <point x="350" y="200" type="line"/>
      <point x="550" y="200" type="line"/>
      <point x="550" y="300" type="line"/>
      <point x="350" y="300" type="line"/>
    </contour>
    <contour>
      <point x="550" y="0" type="line"/>
      <point x="650" y="0" type="line"/>
      <point x="650" y="200" type="line"/>
      <point x="550" y="200" type="line"/>
    </contour>
    <contour>
      <point x="350" y="400" type="line"/>
      <point x="450" y="400" type="line"/>
      <point x="450" y="500" type="line"/>
      <point x="350" y="500" type="line"/>
    </contour>
    <contour>
      <point x="450" y="500" type="line"/>
      <point x="550" y="500" type="line"/>
      <point x="550" y="600" type="line"/>
      <point x="450" y="600" type="line"/>
    </contour>
    <contour>
      <point x="550" y="200" type="line"/>
      <point x="650" y="200" type="line"/>
      <point x="650" y="300" type="line"/>
      <point x="550" y="300" type="line"/>
    </contour>
    <contour>
      <point x="650" y="300" type="line"/>
      <point x="750" y="300" type="line"/>
      <point x="750" y="400" type="line"/>
      <point x="650" y="400" type="line"/>
    </contour>
    <contour>
      <point x="250" y="100" type="line"/>
      <point x="450" y="100" type="line"/>
      <point x="450" y="300" type="line"/>
      <point x="250" y="300" type="line"/>
    </contour>
  </outline>
</glyph>
<glyph name="uni26A6" format="1">
  <advance width="900"/>
  <unicode hex="26A6"/>
  <outline>
    <contour>
      <point x="150" y="300" type="line"/>
      <point x="450" y="300" type="line"/>
      <point x="450" y="400" type="line"/>
      <point x="150" y="400" type="line"/>
    </contour>
    <contour>
      <point x="50" y="0" type="line"/>
      <point x="150" y="0" type="line"/>
      <point x="150" y="300" type="line"/>
      <point x="50" y="300" type="line"/>
    </contour>
    <contour>
      <point x="150" y="-100" type="line"/>
      <point x="450" y="-100" type="line"/>
      <point x="450" y="0" type="line"/>
      <point x="150" y="0" type="line"/>
    </contour>
    <contour>
      <point x="450" y="0" type="line"/>
      <point x="550" y="0" type="line"/>
      <point x="550" y="300" type="line"/>
      <point x="450" y="300" type="line"/>
    </contour>
    <contour>
      <point x="450" y="300" type="line"/>
      <point x="550" y="300" type="line"/>
      <point x="550" y="400" type="line"/>
      <point x="450" y="400" type="line"/>
    </contour>
    <contour>
      <point x="550" y="400" type="line"/>
      <point x="650" y="400" type="line"/>
      <point x="650" y="500" type="line"/>
      <point x="550" y="500" type="line"/>
    </contour>
    <contour>
      <point x="450" y="500" type="line"/>
      <point x="550" y="500" type="line"/>
      <point x="550" y="600" type="line"/>
      <point x="450" y="600" type="line"/>
    </contour>
    <contour>
      <point x="650" y="300" type="line"/>
      <point x="750" y="300" type="line"/>
      <point x="750" y="400" type="line"/>
      <point x="650" y="400" type="line"/>
    </contour>
    <contour>
      <point x="650" y="500" type="line"/>
      <point x="750" y="500" type="line"/>
      <point x="750" y="600" type="line"/>
      <point x="650" y="600" type="line"/>
    </contour>
    <contour>
      <point x="550" y="600" type="line"/>
      <point x="850" y="600" type="line"/>
      <point x="850" y="700" type="line"/>
      <point x="550" y="700" type="line"/>
    </contour>
    <contour>
      <point x="750" y="400" type="line"/>
      <point x="850" y="400" type="line"/>
      <point x="850" y="700" type="line"/>
      <point x="750" y="700" type="line"/>
    </contour>
  </outline>
</glyph>
<glyph name="uni26A7" format="1">
  <advance width="1200"/>
  <unicode hex="26A7"/>
  <outline>
    <contour>
      <point x="450" y="500" type="line"/>
      <point x="450" y="400" type="line"/>
      <point x="750" y="400" type="line"/>
      <point x="750" y="500" type="line"/>
    </contour>
    <contour>
      <point x="450" y="200" type="line"/>
      <point x="450" y="100" type="line"/>
      <point x="750" y="100" type="line"/>
      <point x="750" y="200" type="line"/>
    </contour>
    <contour>
      <point x="250" y="500" type="line"/>
      <point x="250" y="400" type="line"/>
      <point x="350" y="400" type="line"/>
      <point x="350" y="500" type="line"/>
    </contour>
    <contour>
      <point x="350" y="600" type="line"/>
      <point x="350" y="500" type="line"/>
      <point x="450" y="500" type="line"/>
      <point x="450" y="600" type="line"/>
    </contour>
    <contour>
      <point x="150" y="400" type="line"/>
      <point x="150" y="300" type="line"/>
      <point x="250" y="300" type="line"/>
      <point x="250" y="400" type="line"/>
    </contour>
    <contour>
      <point x="150" y="600" type="line"/>
      <point x="150" y="500" type="line"/>
      <point x="250" y="500" type="line"/>
      <point x="250" y="600" type="line"/>
    </contour>
    <contour>
      <point x="50" y="700" type="line"/>
      <point x="50" y="600" type="line"/>
      <point x="350" y="600" type="line"/>
      <point x="350" y="700" type="line"/>
    </contour>
    <contour>
      <point x="50" y="700" type="line"/>
      <point x="50" y="400" type="line"/>
      <point x="150" y="400" type="line"/>
      <point x="150" y="700" type="line"/>
    </contour>
    <contour>
      <point x="850" y="400" type="line"/>
      <point x="950" y="400" type="line"/>
      <point x="950" y="500" type="line"/>
      <point x="850" y="500" type="line"/>
    </contour>
    <contour>
      <point x="850" y="600" type="line"/>
      <point x="1150" y="600" type="line"/>
      <point x="1150" y="700" type="line"/>
      <point x="850" y="700" type="line"/>
    </contour>
    <contour>
      <point x="1050" y="400" type="line"/>
      <point x="1150" y="400" type="line"/>
      <point x="1150" y="700" type="line"/>
      <point x="1050" y="700" type="line"/>
    </contour>
    <contour>
      <point x="550" y="-200" type="line"/>
      <point x="650" y="-200" type="line"/>
      <point x="650" y="100" type="line"/>
      <point x="550" y="100" type="line"/>
    </contour>
    <contour>
      <point x="450" y="-100" type="line"/>
      <point x="750" y="-100" type="line"/>
      <point x="750" y="0" type="line"/>
      <point x="450" y="0" type="line"/>
    </contour>
    <contour>
      <point x="950" y="500" type="line"/>
      <point x="1050" y="500" type="line"/>
      <point x="1050" y="600" type="line"/>
      <point x="950" y="600" type="line"/>
    </contour>
    <contour>
      <point x="350" y="200" type="line"/>
      <point x="450" y="200" type="line"/>
      <point x="450" y="400" type="line"/>
      <point x="350" y="400" type="line"/>
    </contour>
    <contour>
      <point x="750" y="200" type="line"/>
      <point x="850" y="200" type="line"/>
      <point x="850" y="400" type="line"/>
      <point x="750" y="400" type="line"/>
    </contour>
  </outline>
</glyph>
<glyph name="uni26A9" format="1">
  <advance width="1000"/>
  <unicode hex="26A9"/>
  <outline>
    <contour>
      <point x="350" y="400" type="line"/>
      <point x="350" y="100" type="line"/>
      <point x="450" y="100" type="line"/>
      <point x="450" y="400" type="line"/>
    </contour>
    <contour>
      <point x="150" y="100" type="line"/>
      <point x="150" y="0" type="line"/>
      <point x="350" y="0" type="line"/>
      <point x="350" y="100" type="line"/>
    </contour>
    <contour>
      <point x="150" y="500" type="line"/>
      <point x="150" y="400" type="line"/>
      <point x="350" y="400" type="line"/>
      <point x="350" y="500" type="line"/>
    </contour>
    <contour>
      <point x="50" y="400" type="line"/>
      <point x="50" y="100" type="line"/>
      <point x="150" y="100" type="line"/>
      <point x="150" y="400" type="line"/>
    </contour>
    <contour>
      <point x="450" y="300" type="line"/>
      <point x="450" y="200" type="line"/>
      <point x="950" y="200" type="line"/>
      <point x="950" y="300" type="line"/>
    </contour>
    <contour>
      <point x="750" y="400" type="line"/>
      <point x="750" y="300" type="line"/>
      <point x="850" y="300" type="line"/>
      <point x="850" y="400" type="line"/>
    </contour>
    <contour>
      <point x="750" y="200" type="line"/>
      <point x="750" y="100" type="line"/>
      <point x="850" y="100" type="line"/>
      <point x="850" y="200" type="line"/>
    </contour>
    <contour>
      <point x="650" y="500" type="line"/>
      <point x="650" y="400" type="line"/>
      <point x="750" y="400" type="line"/>
      <point x="750" y="500" type="line"/>
    </contour>
    <contour>
      <point x="650" y="100" type="line"/>
      <point x="650" y="0" type="line"/>
      <point x="750" y="0" type="line"/>
      <point x="750" y="100" type="line"/>
    </contour>
    <contour>
      <point x="550" y="400" type="line"/>
      <point x="550" y="100" type="line"/>
      <point x="650" y="100" type="line"/>
      <point x="650" y="400" type="line"/>
    </contour>
  </outline>
</glyph>
<glyph name="uni26F5" format="1">
  <advance width="800"/>
  <unicode hex="26F5"/>
  <outline>
    <contour>
      <point x="50" y="100" type="line"/>
      <point x="750" y="100" type="line"/>
      <point x="750" y="200" type="line"/>
      <point x="50" y="200" type="line"/>
    </contour>
    <contour>
      <point x="150" y="0" type="line"/>
      <point x="650" y="0" type="line"/>
      <point x="650" y="100" type="line"/>
      <point x="150" y="100" type="line"/>
    </contour>
    <contour>
      <point x="350" y="200" type="line"/>
      <point x="450" y="200" type="line"/>
      <point x="450" y="700" type="line"/>
      <point x="350" y="700" type="line"/>
    </contour>
    <contour>
      <point x="450" y="500" type="line"/>
      <point x="550" y="500" type="line"/>
      <point x="550" y="600" type="line"/>
      <point x="450" y="600" type="line"/>
    </contour>
    <contour>
      <point x="450" y="400" type="line"/>
      <point x="650" y="400" type="line"/>
      <point x="650" y="500" type="line"/>
      <point x="450" y="500" type="line"/>
    </contour>
    <contour>
      <point x="450" y="300" type="line"/>
      <point x="750" y="300" type="line"/>
      <point x="750" y="400" type="line"/>
      <point x="450" y="400" type="line"/>
    </contour>
  </outline>
</glyph>
<glyph name="uni26FD" format="1">
  <advance width="1000"/>
  <unicode hex="26FD"/>
  <outline>
    <contour>
      <point x="50" y="0" type="line"/>
      <point x="550" y="0" type="line"/>
      <point x="550" y="100" type="line"/>
      <point x="50" y="100" type="line"/>
    </contour>
    <contour>
      <point x="150" y="100" type="line"/>
      <point x="550" y="100" type="line"/>
      <point x="550" y="300" type="line"/>
      <point x="150" y="300" type="line"/>
    </contour>
    <contour>
      <point x="150" y="300" type="line"/>
      <point x="250" y="300" type="line"/>
      <point x="250" y="600" type="line"/>
      <point x="150" y="600" type="line"/>
    </contour>
    <contour>
      <point x="250" y="500" type="line"/>
      <point x="450" y="500" type="line"/>
      <point x="450" y="600" type="line"/>
      <point x="250" y="600" type="line"/>
    </contour>
    <contour>
      <point x="450" y="300" type="line"/>
      <point x="550" y="300" type="line"/>
      <point x="550" y="600" type="line"/>
      <point x="450" y="600" type="line"/>
    </contour>
    <contour>
      <point x="550" y="200" type="line"/>
      <point x="650" y="200" type="line"/>
      <point x="650" y="300" type="line"/>
      <point x="550" y="300" type="line"/>
    </contour>
    <contour>
      <point x="650" y="0" type="line"/>
      <point x="750" y="0" type="line"/>
      <point x="750" y="200" type="line"/>
      <point x="650" y="200" type="line"/>
    </contour>
    <contour>
      <point x="750" y="0" type="line"/>
      <point x="850" y="0" type="line"/>
      <point x="850" y="100" type="line"/>
      <point x="750" y="100" type="line"/>
    </contour>
    <contour>
      <point x="650" y="500" type="line"/>
      <point x="750" y="500" type="line"/>
      <point x="750" y="600" type="line"/>
      <point x="650" y="600" type="line"/>
    </contour>
    <contour>
      <point x="750" y="400" type="line"/>
      <point x="950" y="400" type="line"/>
      <point x="950" y="500" type="line"/>
      <point x="750" y="500" type="line"/>
    </contour>
    <contour>
      <point x="850" y="100" type="line"/>
      <point x="950" y="100" type="line"/>
      <point x="950" y="400" type="line"/>
      <point x="850" y="400" type="line"/>
    </contour>
  </outline>
</glyph>
<glyph name="uni2709" format="1">
  <advance width="1000"/>
  <unicode hex="2709"/>
  <outline>
    <contour>
      <point x="450" y="200" type="line"/>
      <point x="550" y="200" type="line"/>
      <point x="550" y="300" type="line"/>
      <point x="450" y="300" type="line"/>
    </contour>
    <contour>
      <point x="350" y="300" type="line"/>
      <point x="450" y="300" type="line"/>
      <point x="450" y="400" type="line"/>
      <point x="350" y="400" type="line"/>
    </contour>
    <contour>
      <point x="550" y="300" type="line"/>
      <point x="650" y="300" type="line"/>
      <point x="650" y="400" type="line"/>
      <point x="550" y="400" type="line"/>
    </contour>
    <contour>
      <point x="650" y="400" type="line"/>
      <point x="750" y="400" type="line"/>
      <point x="750" y="500" type="line"/>
      <point x="650" y="500" type="line"/>
    </contour>
    <contour>
      <point x="250" y="400" type="line"/>
      <point x="350" y="400" type="line"/>
      <point x="350" y="500" type="line"/>
      <point x="250" y="500" type="line"/>
    </contour>
    <contour>
      <point x="750" y="500" type="line"/>
      <point x="850" y="500" type="line"/>
      <point x="850" y="600" type="line"/>
      <point x="750" y="600" type="line"/>
    </contour>
    <contour>
      <point x="150" y="500" type="line"/>
      <point x="250" y="500" type="line"/>
      <point x="250" y="600" type="line"/>
      <point x="150" y="600" type="line"/>
    </contour>
    <contour>
      <point x="50" y="600" type="line"/>
      <point x="950" y="600" type="line"/>
      <point x="950" y="700" type="line"/>
      <point x="50" y="700" type="line"/>
    </contour>
    <contour>
      <point x="50" y="0" type="line"/>
      <point x="150" y="0" type="line"/>
      <point x="150" y="700" type="line"/>
      <point x="50" y="700" type="line"/>
    </contour>
    <contour>
      <point x="850" y="0" type="line"/>
      <point x="950" y="0" type="line"/>
      <point x="950" y="700" type="line"/>
      <point x="850" y="700" type="line"/>
    </contour>
    <contour>
      <point x="50" y="0" type="line"/>
      <point x="950" y="0" type="line"/>
      <point x="950" y="100" type="line"/>
      <point x="50" y="100" type="line"/>
    </contour>
  </outline>
</glyph>
<glyph name="uni270B" format="1">
  <advance width="1300"/>
  <unicode hex="270B"/>
  <outline>
    <contour>
      <point x="50" y="100" type="line"/>
      <point x="150" y="100" type="line"/>
      <point x="150" y="200" type="line"/>
      <point x="50" y="200" type="line"/>
    </contour>
    <contour>
      <point x="350" y="-200" type="line"/>
      <point x="1050" y="-200" type="line"/>
      <point x="1050" y="-100" type="line"/>
      <point x="350" y="-100" type="line"/>
    </contour>
    <contour>
      <point x="550" y="300" type="line"/>
      <point x="650" y="300" type="line"/>
      <point x="650" y="700" type="line"/>
      <point x="550" y="700" type="line"/>
    </contour>
    <contour>
      <point x="750" y="300" type="line"/>
      <point x="850" y="300" type="line"/>
      <point x="850" y="700" type="line"/>
      <point x="750" y="700" type="line"/>
    </contour>
    <contour>
      <point x="450" y="600" type="line"/>
      <point x="550" y="600" type="line"/>
      <point x="550" y="700" type="line"/>
      <point x="450" y="700" type="line"/>
    </contour>
    <contour>
      <point x="850" y="600" type="line"/>
      <point x="950" y="600" type="line"/>
      <point x="950" y="700" type="line"/>
      <point x="850" y="700" type="line"/>
    </contour>
    <contour>
      <point x="1050" y="400" type="line"/>
      <point x="1150" y="400" type="line"/>
      <point x="1150" y="500" type="line"/>
      <point x="1050" y="500" type="line"/>
    </contour>
    <contour>
      <point x="950" y="300" type="line"/>
      <point x="1050" y="300" type="line"/>
      <point x="1050" y="600" type="line"/>
      <point x="950" y="600" type="line"/>
    </contour>
    <contour>
      <point x="150" y="0" type="line"/>
      <point x="250" y="0" type="line"/>
      <point x="250" y="100" type="line"/>
      <point x="150" y="100" type="line"/>
    </contour>
    <contour>
      <point x="150" y="200" type="line"/>
      <point x="350" y="200" type="line"/>
      <point x="350" y="300" type="line"/>
      <point x="150" y="300" type="line"/>
    </contour>
    <contour>
      <point x="250" y="-100" type="line"/>
      <point x="350" y="-100" type="line"/>
      <point x="350" y="0" type="line"/>
      <point x="250" y="0" type="line"/>
    </contour>
    <contour>
      <point x="350" y="100" type="line"/>
      <point x="450" y="100" type="line"/>
      <point x="450" y="600" type="line"/>
      <point x="350" y="600" type="line"/>
    </contour>
    <contour>
      <point x="850" y="0" type="line"/>
      <point x="950" y="0" type="line"/>
      <point x="950" y="200" type="line"/>
      <point x="850" y="200" type="line"/>
    </contour>
    <contour>
      <point x="650" y="0" type="line"/>
      <point x="750" y="0" type="line"/>
      <point x="750" y="200" type="line"/>
      <point x="650" y="200" type="line"/>
    </contour>
    <contour>
      <point x="1150" y="100" type="line"/>
      <point x="1250" y="100" type="line"/>
      <point x="1250" y="400" type="line"/>
      <point x="1150" y="400" type="line"/>
    </contour>
    <contour>
      <point x="1050" y="-100" type="line"/>
      <point x="1150" y="-100" type="line"/>
      <point x="1150" y="100" type="line"/>
      <point x="1050" y="100" type="line"/>
    </contour>
    <contour>
      <point x="550" y="700" type="line"/>
      <point x="750" y="700" type="line"/>
      <point x="750" y="800" type="line"/>
      <point x="550" y="800" type="line"/>
    </contour>
  </outline>
</glyph>
<glyph name="uni270F" format="1">
  <advance width="1100"/>
  <unicode hex="270F"/>
  <outline>
    <contour>
      <point x="850" y="200" type="line"/>
      <point x="950" y="200" type="line"/>
      <point x="950" y="500" type="line"/>
      <point x="850" y="500" type="line"/>
    </contour>
    <contour>
      <point x="950" y="300" type="line"/>
      <point x="1050" y="300" type="line"/>
      <point x="1050" y="400" type="line"/>
      <point x="950" y="400" type="line"/>
    </contour>
    <contour>
      <point x="750" y="100" type="line"/>
      <point x="850" y="100" type="line"/>
      <point x="850" y="600" type="line"/>
      <point x="750" y="600" type="line"/>
    </contour>
    <contour>
      <point x="150" y="500" type="line"/>
      <point x="750" y="500" type="line"/>
      <point x="750" y="600" type="line"/>
      <point x="150" y="600" type="line"/>
    </contour>
    <contour>
      <point x="150" y="100" type="line"/>
      <point x="750" y="100" type="line"/>
      <point x="750" y="200" type="line"/>
      <point x="150" y="200" type="line"/>
    </contour>
    <contour>
      <point x="50" y="200" type="line"/>
      <point x="150" y="200" type="line"/>
      <point x="150" y="500" type="line"/>
      <point x="50" y="500" type="line"/>
    </contour>
    <contour>
      <point x="350" y="300" type="line"/>
      <point x="750" y="300" type="line"/>
      <point x="750" y="400" type="line"/>
      <point x="350" y="400" type="line"/>
    </contour>
    <contour>
      <point x="250" y="200" type="line"/>
      <point x="350" y="200" type="line"/>
      <point x="350" y="500" type="line"/>
      <point x="250" y="500" type="line"/>
    </contour>
  </outline>
</glyph>
<glyph name="uni2726" format="1">
  <advance width="800"/>
  <unicode hex="2726"/>
  <outline>
    <contour>
      <point x="250" y="100" type="line"/>
      <point x="550" y="100" type="line"/>
      <point x="550" y="400" type="line"/>
      <point x="250" y="400" type="line"/>
    </contour>
    <contour>
      <point x="350" y="-200" type="line"/>
      <point x="450" y="-200" type="line"/>
      <point x="450" y="700" type="line"/>
      <point x="350" y="700" type="line"/>
    </contour>
    <contour>
      <point x="50" y="200" type="line"/>
      <point x="750" y="200" type="line"/>
      <point x="750" y="300" type="line"/>
      <point x="50" y="300" type="line"/>
    </contour>
  </outline>
</glyph>
<glyph name="uni27A4" format="1">
  <advance width="700"/>
  <unicode hex="27A4"/>
  <outline>
    <contour>
      <point x="650" y="300" type="line"/>
      <point x="650" y="400" type="line"/>
      <point x="450" y="400" type="line"/>
      <point x="450" y="300" type="line"/>
    </contour>
    <contour>
      <point x="250" y="500" type="line"/>
      <point x="250" y="200" type="line"/>
      <point x="450" y="200" type="line"/>
      <point x="450" y="500" type="line"/>
    </contour>
    <contour>
      <point x="50" y="400" type="line"/>
      <point x="250" y="400" type="line"/>
      <point x="250" y="600" type="line"/>
      <point x="50" y="600" type="line"/>
    </contour>
    <contour>
      <point x="50" y="100" type="line"/>
      <point x="250" y="100" type="line"/>
      <point x="250" y="300" type="line"/>
      <point x="50" y="300" type="line"/>
    </contour>
    <contour>
      <point x="150" y="300" type="line"/>
      <point x="250" y="300" type="line"/>
      <point x="250" y="400" type="line"/>
      <point x="150" y="400" type="line"/>
    </contour>
  </outline>
</glyph>
<glyph name="uni27B0" format="1">
  <advance width="900"/>
  <unicode hex="27B0"/>
  <outline>
    <contour>
      <point x="550" y="500" type="line"/>
      <point x="750" y="500" type="line"/>
      <point x="750" y="600" type="line"/>
      <point x="550" y="600" type="line"/>
    </contour>
    <contour>
      <point x="150" y="500" type="line"/>
      <point x="350" y="500" type="line"/>
      <point x="350" y="600" type="line"/>
      <point x="150" y="600" type="line"/>
    </contour>
    <contour>
      <point x="550" y="200" type="line"/>
      <point x="650" y="200" type="line"/>
      <point x="650" y="400" type="line"/>
      <point x="550" y="400" type="line"/>
    </contour>
    <contour>
      <point x="250" y="200" type="line"/>
      <point x="350" y="200" type="line"/>
      <point x="350" y="400" type="line"/>
      <point x="250" y="400" type="line"/>
    </contour>
    <contour>
      <point x="350" y="100" type="line"/>
      <point x="550" y="100" type="line"/>
      <point x="550" y="200" type="line"/>
      <point x="350" y="200" type="line"/>
    </contour>
    <contour>
      <point x="350" y="400" type="line"/>
      <point x="550" y="400" type="line"/>
      <point x="550" y="500" type="line"/>
      <point x="350" y="500" type="line"/>
    </contour>
    <contour>
      <point x="750" y="400" type="line"/>
      <point x="850" y="400" type="line"/>
      <point x="850" y="500" type="line"/>
      <point x="750" y="500" type="line"/>
    </contour>
    <contour>
      <point x="50" y="400" type="line"/>
      <point x="150" y="400" type="line"/>
      <point x="150" y="500" type="line"/>
      <point x="50" y="500" type="line"/>
    </contour>
  </outline>
</glyph>
<glyph name="uni27BF" format="1">
  <advance width="1200"/>
  <unicode hex="27BF"/>
  <outline>
    <contour>
      <point x="150" y="500" type="line"/>
      <point x="350" y="500" type="line"/>
      <point x="350" y="600" type="line"/>
      <point x="150" y="600" type="line"/>
    </contour>
    <contour>
      <point x="450" y="200" type="line"/>
      <point x="550" y="200" type="line"/>
      <point x="550" y="400" type="line"/>
      <point x="450" y="400" type="line"/>
    </contour>
    <contour>
      <point x="250" y="200" type="line"/>
      <point x="350" y="200" type="line"/>
      <point x="350" y="400" type="line"/>
      <point x="250" y="400" type="line"/>
    </contour>
    <contour>
      <point x="450" y="500" type="line"/>
      <point x="750" y="500" type="line"/>
      <point x="750" y="600" type="line"/>
      <point x="450" y="600" type="line"/>
    </contour>
    <contour>
      <point x="650" y="200" type="line"/>
      <point x="750" y="200" type="line"/>
      <point x="750" y="400" type="line"/>
      <point x="650" y="400" type="line"/>
    </contour>
    <contour>
      <point x="850" y="200" type="line"/>
      <point x="950" y="200" type="line"/>
      <point x="950" y="400" type="line"/>
      <point x="850" y="400" type="line"/>
    </contour>
    <contour>
      <point x="850" y="500" type="line"/>
      <point x="1050" y="500" type="line"/>
      <point x="1050" y="600" type="line"/>
      <point x="850" y="600" type="line"/>
    </contour>
    <contour>
      <point x="350" y="100" type="line"/>
      <point x="450" y="100" type="line"/>
      <point x="450" y="200" type="line"/>
      <point x="350" y="200" type="line"/>
    </contour>
    <contour>
      <point x="750" y="100" type="line"/>
      <point x="850" y="100" type="line"/>
      <point x="850" y="200" type="line"/>
      <point x="750" y="200" type="line"/>
    </contour>
    <contour>
      <point x="350" y="400" type="line"/>
      <point x="450" y="400" type="line"/>
      <point x="450" y="500" type="line"/>
      <point x="350" y="500" type="line"/>
    </contour>
    <contour>
      <point x="750" y="400" type="line"/>
      <point x="850" y="400" type="line"/>
      <point x="850" y="500" type="line"/>
      <point x="750" y="500" type="line"/>
    </contour>
    <contour>
      <point x="1050" y="400" type="line"/>
      <point x="1150" y="400" type="line"/>
      <point x="1150" y="500" type="line"/>
      <point x="1050" y="500" type="line"/>
    </contour>
    <contour>
      <point x="50" y="400" type="line"/>
      <point x="150" y="400" type="line"/>
      <point x="150" y="500" type="line"/>
      <point x="50" y="500" type="line"/>
    </contour>
  </outline>
</glyph>
<glyph name="uni2937" format="1">
  <advance width="800"/>
  <unicode hex="2937"/>
  <outline>
    <contour>
      <point x="650" y="300" type="line"/>
      <point x="650" y="200" type="line"/>
      <point x="750" y="200" type="line"/>
      <point x="750" y="300" type="line"/>
    </contour>
    <contour>
      <point x="550" y="400" type="line"/>
      <point x="550" y="100" type="line"/>
      <point x="650" y="100" type="line"/>
      <point x="650" y="400" type="line"/>
    </contour>
    <contour>
      <point x="250" y="300" type="line"/>
      <point x="250" y="200" type="line"/>
      <point x="550" y="200" type="line"/>
      <point x="550" y="300" type="line"/>
    </contour>
    <contour>
      <point x="150" y="400" type="line"/>
      <point x="150" y="300" type="line"/>
      <point x="250" y="300" type="line"/>
      <point x="250" y="400" type="line"/>
    </contour>
    <contour>
      <point x="50" y="700" type="line"/>
      <point x="50" y="400" type="line"/>
      <point x="150" y="400" type="line"/>
      <point x="150" y="700" type="line"/>
    </contour>
    <contour>
      <point x="450" y="500" type="line"/>
      <point x="450" y="400" type="line"/>
      <point x="550" y="400" type="line"/>
      <point x="550" y="500" type="line"/>
    </contour>
    <contour>
      <point x="450" y="100" type="line"/>
      <point x="450" y="0" type="line"/>
      <point x="550" y="0" type="line"/>
      <point x="550" y="100" type="line"/>
    </contour>
  </outline>
</glyph>
<glyph name="uni2982" format="1">
  <advance width="400"/>
  <unicode hex="2982"/>
  <outline>
    <contour>
      <point x="50" y="800" type="line"/>
      <point x="50" y="700" type="line"/>
      <point x="350" y="700" type="line"/>
      <point x="350" y="800" type="line"/>
    </contour>
    <contour>
      <point x="250" y="800" type="line"/>
      <point x="250" y="500" type="line"/>
      <point x="350" y="500" type="line"/>
      <point x="350" y="800" type="line"/>
    </contour>
    <contour>
      <point x="50" y="800" type="line"/>
      <point x="50" y="500" type="line"/>
      <point x="150" y="500" type="line"/>
      <point x="150" y="800" type="line"/>
    </contour>
    <contour>
      <point x="50" y="600" type="line"/>
      <point x="50" y="500" type="line"/>
      <point x="350" y="500" type="line"/>
      <point x="350" y="600" type="line"/>
    </contour>
    <contour>
      <point x="50" y="200" type="line"/>
      <point x="50" y="100" type="line"/>
      <point x="350" y="100" type="line"/>
      <point x="350" y="200" type="line"/>
    </contour>
    <contour>
      <point x="250" y="200" type="line"/>
      <point x="250" y="-100" type="line"/>
      <point x="350" y="-100" type="line"/>
      <point x="350" y="200" type="line"/>
    </contour>
    <contour>
      <point x="50" y="200" type="line"/>
      <point x="50" y="-100" type="line"/>
      <point x="150" y="-100" type="line"/>
      <point x="150" y="200" type="line"/>
    </contour>
    <contour>
      <point x="50" y="0" type="line"/>
      <point x="50" y="-100" type="line"/>
      <point x="350" y="-100" type="line"/>
      <point x="350" y="0" type="line"/>
    </contour>
    <contour>
      <point x="150" y="600" type="line"/>
      <point x="150" y="100" type="line"/>
      <point x="250" y="100" type="line"/>
      <point x="250" y="600" type="line"/>
    </contour>
  </outline>
</glyph>
<glyph name="uni2B07" format="1">
  <advance width="800"/>
  <unicode hex="2B07"/>
  <outline>
    <contour>
      <point x="350" y="0" type="line"/>
      <point x="450" y="0" type="line"/>
      <point x="450" y="100" type="line"/>
      <point x="350" y="100" type="line"/>
    </contour>
    <contour>
      <point x="550" y="700" type="line"/>
      <point x="250" y="700" type="line"/>
      <point x="250" y="400" type="line"/>
      <point x="550" y="400" type="line"/>
    </contour>
    <contour>
      <point x="750" y="400" type="line"/>
      <point x="50" y="400" type="line"/>
      <point x="50" y="300" type="line"/>
      <point x="750" y="300" type="line"/>
    </contour>
    <contour>
      <point x="550" y="200" type="line"/>
      <point x="250" y="200" type="line"/>
      <point x="250" y="100" type="line"/>
      <point x="550" y="100" type="line"/>
    </contour>
    <contour>
      <point x="650" y="300" type="line"/>
      <point x="150" y="300" type="line"/>
      <point x="150" y="200" type="line"/>
      <point x="650" y="200" type="line"/>
    </contour>
  </outline>
</glyph>
<glyph name="uni2B09" format="1">
  <advance width="600"/>
  <unicode hex="2B09"/>
  <outline>
    <contour>
      <point x="50" y="0" type="line"/>
      <point x="150" y="0" type="line"/>
      <point x="150" y="700" type="line"/>
      <point x="50" y="700" type="line"/>
    </contour>
    <contour>
      <point x="450" y="200" type="line"/>
      <point x="550" y="200" type="line"/>
      <point x="550" y="300" type="line"/>
      <point x="450" y="300" type="line"/>
    </contour>
    <contour>
      <point x="150" y="100" type="line"/>
      <point x="250" y="100" type="line"/>
      <point x="250" y="600" type="line"/>
      <point x="150" y="600" type="line"/>
    </contour>
    <contour>
      <point x="350" y="200" type="line"/>
      <point x="450" y="200" type="line"/>
      <point x="450" y="400" type="line"/>
      <point x="350" y="400" type="line"/>
    </contour>
    <contour>
      <point x="250" y="-100" type="line"/>
      <point x="450" y="-100" type="line"/>
      <point x="450" y="100" type="line"/>
      <point x="250" y="100" type="line"/>
    </contour>
    <contour>
      <point x="250" y="100" type="line"/>
      <point x="350" y="100" type="line"/>
      <point x="350" y="500" type="line"/>
      <point x="250" y="500" type="line"/>
    </contour>
  </outline>
</glyph>
<glyph name="fl" format="1">
  <advance width="650"/>
  <unicode hex="FB02"/>
  <outline>
    <contour>
      <point x="500" y="0" type="line"/>
      <point x="600" y="0" type="line"/>
      <point x="600" y="700" type="line"/>
      <point x="500" y="700" type="line"/>
    </contour>
    <contour>
      <point x="250" y="600" type="line"/>
      <point x="600" y="600" type="line"/>
      <point x="600" y="700" type="line"/>
      <point x="350" y="700" type="line"/>
      <point x="225" y="700"/>
      <point x="150" y="625"/>
      <point x="150" y="500" type="curve"/>
      <point x="150" y="0" type="line"/>
      <point x="250" y="0" type="line"/>
    </contour>
    <contour>
      <point x="400" y="300" type="line"/>
      <point x="400" y="400" type="line"/>
      <point x="50" y="400" type="line"/>
      <point x="50" y="300" type="line"/>
    </contour>
  </outline>
</glyph>
<glyph name="u1D122" format="1">
  <advance width="800"/>
  <unicode hex="1D122"/>
  <outline>
    <contour>
      <point x="650" y="500" type="line"/>
      <point x="750" y="500" type="line"/>
      <point x="750" y="600" type="line"/>
      <point x="650" y="600" type="line"/>
    </contour>
    <contour>
      <point x="650" y="300" type="line"/>
      <point x="750" y="300" type="line"/>
      <point x="750" y="400" type="line"/>
      <point x="650" y="400" type="line"/>
    </contour>
    <contour>
      <point x="50" y="300" type="line"/>
      <point x="250" y="300" type="line"/>
      <point x="250" y="500" type="line"/>
      <point x="50" y="500" type="line"/>
    </contour>
    <contour>
      <point x="50" y="500" type="line"/>
      <point x="150" y="500" type="line"/>
      <point x="150" y="600" type="line"/>
      <point x="50" y="600" type="line"/>
    </contour>
    <contour>
      <point x="150" y="600" type="line"/>
      <point x="450" y="600" type="line"/>
      <point x="450" y="700" type="line"/>
      <point x="150" y="700" type="line"/>
    </contour>
    <contour>
      <point x="150" y="0" type="line"/>
      <point x="350" y="0" type="line"/>
      <point x="350" y="100" type="line"/>
      <point x="150" y="100" type="line"/>
    </contour>
    <contour>
      <point x="450" y="200" type="line"/>
      <point x="550" y="200" type="line"/>
      <point x="550" y="600" type="line"/>
      <point x="450" y="600" type="line"/>
    </contour>
    <contour>
      <point x="350" y="100" type="line"/>
      <point x="450" y="100" type="line"/>
      <point x="450" y="200" type="line"/>
      <point x="350" y="200" type="line"/>
    </contour>
  </outline>
</glyph>
<glyph name="u1F30A" format="1">
  <advance width="900"/>
  <unicode hex="1F30A"/>
  <outline>
    <contour>
      <point x="350" y="-100" type="line"/>
      <point x="450" y="-100" type="line"/>
      <point x="450" y="100" type="line"/>
      <point x="350" y="100" type="line"/>
    </contour>
    <contour>
      <point x="250" y="100" type="line"/>
      <point x="350" y="100" type="line"/>
      <point x="350" y="200" type="line"/>
      <point x="250" y="200" type="line"/>
    </contour>
    <contour>
      <point x="350" y="200" type="line"/>
      <point x="450" y="200" type="line"/>
      <point x="450" y="300" type="line"/>
      <point x="350" y="300" type="line"/>
    </contour>
    <contour>
      <point x="450" y="300" type="line"/>
      <point x="550" y="300" type="line"/>
      <point x="550" y="400" type="line"/>
      <point x="450" y="400" type="line"/>
    </contour>
    <contour>
      <point x="550" y="400" type="line"/>
      <point x="650" y="400" type="line"/>
      <point x="650" y="500" type="line"/>
      <point x="550" y="500" type="line"/>
    </contour>
    <contour>
      <point x="450" y="500" type="line"/>
      <point x="550" y="500" type="line"/>
      <point x="550" y="700" type="line"/>
      <point x="450" y="700" type="line"/>
    </contour>
    <contour>
      <point x="250" y="400" type="line"/>
      <point x="350" y="400" type="line"/>
      <point x="350" y="500" type="line"/>
      <point x="250" y="500" type="line"/>
    </contour>
    <contour>
      <point x="50" y="300" type="line"/>
      <point x="250" y="300" type="line"/>
      <point x="250" y="400" type="line"/>
      <point x="50" y="400" type="line"/>
    </contour>
    <contour>
      <point x="550" y="100" type="line"/>
      <point x="650" y="100" type="line"/>
      <point x="650" y="200" type="line"/>
      <point x="550" y="200" type="line"/>
    </contour>
    <contour>
      <point x="650" y="200" type="line"/>
      <point x="850" y="200" type="line"/>
      <point x="850" y="300" type="line"/>
      <point x="650" y="300" type="line"/>
    </contour>
  </outline>
</glyph>
<glyph name="u1F30D" format="1">
  <advance width="800"/>
  <unicode hex="1F30D"/>
  <outline>
    <contour>
      <point x="50" y="200" type="line"/>
      <point x="150" y="200" type="line"/>
      <point x="150" y="500" type="line"/>
      <point x="50" y="500" type="line"/>
    </contour>
    <contour>
      <point x="150" y="100" type="line"/>
      <point x="250" y="100" type="line"/>
      <point x="250" y="200" type="line"/>
      <point x="150" y="200" type="line"/>
    </contour>
    <contour>
      <point x="250" y="0" type="line"/>
      <point x="550" y="0" type="line"/>
      <point x="550" y="100" type="line"/>
      <point x="250" y="100" type="line"/>
    </contour>
    <contour>
      <point x="550" y="100" type="line"/>
      <point x="650" y="100" type="line"/>
      <point x="650" y="200" type="line"/>
      <point x="550" y="200" type="line"/>
    </contour>
    <contour>
      <point x="650" y="200" type="line"/>
      <point x="750" y="200" type="line"/>
      <point x="750" y="500" type="line"/>
      <point x="650" y="500" type="line"/>
    </contour>
    <contour>
      <point x="550" y="500" type="line"/>
      <point x="650" y="500" type="line"/>
      <point x="650" y="600" type="line"/>
      <point x="550" y="600" type="line"/>
    </contour>
    <contour>
      <point x="250" y="600" type="line"/>
      <point x="550" y="600" type="line"/>
      <point x="550" y="700" type="line"/>
      <point x="250" y="700" type="line"/>
    </contour>
    <contour>
      <point x="150" y="500" type="line"/>
      <point x="250" y="500" type="line"/>
      <point x="250" y="600" type="line"/>
      <point x="150" y="600" type="line"/>
    </contour>
    <contour>
      <point x="350" y="500" type="line"/>
      <point x="550" y="500" type="line"/>
      <point x="550" y="600" type="line"/>
      <point x="350" y="600" type="line"/>
    </contour>
    <contour>
      <point x="150" y="200" type="line"/>
      <point x="250" y="200" type="line"/>
      <point x="250" y="300" type="line"/>
      <point x="150" y="300" type="line"/>
    </contour>
    <contour>
      <point x="350" y="200" type="line"/>
      <point x="550" y="200" type="line"/>
      <point x="550" y="400" type="line"/>
      <point x="350" y="400" type="line"/>
    </contour>
    <contour>
      <point x="450" y="100" type="line"/>
      <point x="550" y="100" type="line"/>
      <point x="550" y="200" type="line"/>
      <point x="450" y="200" type="line"/>
    </contour>
    <contour>
      <point x="550" y="200" type="line"/>
      <point x="650" y="200" type="line"/>
      <point x="650" y="300" type="line"/>
      <point x="550" y="300" type="line"/>
    </contour>
    <contour>
      <point x="450" y="400" type="line"/>
      <point x="650" y="400" type="line"/>
      <point x="650" y="500" type="line"/>
      <point x="450" y="500" type="line"/>
    </contour>
    <contour>
      <point x="250" y="400" type="line"/>
      <point x="350" y="400" type="line"/>
      <point x="350" y="500" type="line"/>
      <point x="250" y="500" type="line"/>
    </contour>
  </outline>
</glyph>
<glyph name="u1F315" format="1">
  <advance width="800"/>
  <unicode hex="1F315"/>
  <outline>
    <contour>
      <point x="250" y="0" type="line"/>
      <point x="550" y="0" type="line"/>
      <point x="550" y="100" type="line"/>
      <point x="250" y="100" type="line"/>
    </contour>
    <contour>
      <point x="150" y="100" type="line"/>
      <point x="250" y="100" type="line"/>
      <point x="250" y="200" type="line"/>
      <point x="150" y="200" type="line"/>
    </contour>
    <contour>
      <point x="550" y="100" type="line"/>
      <point x="650" y="100" type="line"/>
      <point x="650" y="200" type="line"/>
      <point x="550" y="200" type="line"/>
    </contour>
    <contour>
      <point x="650" y="200" type="line"/>
      <point x="750" y="200" type="line"/>
      <point x="750" y="500" type="line"/>
      <point x="650" y="500" type="line"/>
    </contour>
    <contour>
      <point x="550" y="500" type="line"/>
      <point x="650" y="500" type="line"/>
      <point x="650" y="600" type="line"/>
      <point x="550" y="600" type="line"/>
    </contour>
    <contour>
      <point x="250" y="600" type="line"/>
      <point x="550" y="600" type="line"/>
      <point x="550" y="700" type="line"/>
      <point x="250" y="700" type="line"/>
    </contour>
    <contour>
      <point x="150" y="500" type="line"/>
      <point x="250" y="500" type="line"/>
      <point x="250" y="600" type="line"/>
      <point x="150" y="600" type="line"/>
    </contour>
    <contour>
      <point x="50" y="200" type="line"/>
      <point x="150" y="200" type="line"/>
      <point x="150" y="500" type="line"/>
      <point x="50" y="500" type="line"/>
    </contour>
  </outline>
</glyph>
<glyph name="u1F393" format="1">
  <advance width="600"/>
  <unicode hex="1F393"/>
  <outline>
    <contour>
      <point x="50" y="0" type="line"/>
      <point x="150" y="0" type="line"/>
      <point x="150" y="700" type="line"/>
      <point x="50" y="700" type="line"/>
    </contour>
    <contour>
      <point x="150" y="100" type="line"/>
      <point x="250" y="100" type="line"/>
      <point x="250" y="200" type="line"/>
      <point x="150" y="200" type="line"/>
    </contour>
    <contour>
      <point x="350" y="100" type="line"/>
      <point x="450" y="100" type="line"/>
      <point x="450" y="200" type="line"/>
      <point x="350" y="200" type="line"/>
    </contour>
    <contour>
      <point x="450" y="0" type="line"/>
      <point x="550" y="0" type="line"/>
      <point x="550" y="700" type="line"/>
      <point x="450" y="700" type="line"/>
    </contour>
    <contour>
      <point x="50" y="600" type="line"/>
      <point x="550" y="600" type="line"/>
      <point x="550" y="700" type="line"/>
      <point x="50" y="700" type="line"/>
    </contour>
    <contour>
      <point x="150" y="200" type="line"/>
      <point x="450" y="200" type="line"/>
      <point x="450" y="600" type="line"/>
      <point x="150" y="600" type="line"/>
    </contour>
  </outline>
</glyph>
<glyph name="u1F3ED" format="1">
  <advance width="700"/>
  <unicode hex="1F3ED"/>
  <outline>
    <contour>
      <point x="250" y="0" type="line"/>
      <point x="350" y="0" type="line"/>
      <point x="350" y="400" type="line"/>
      <point x="250" y="400" type="line"/>
    </contour>
    <contour>
      <point x="350" y="0" type="line"/>
      <point x="450" y="0" type="line"/>
      <point x="450" y="500" type="line"/>
      <point x="350" y="500" type="line"/>
    </contour>
    <contour>
      <point x="550" y="0" type="line"/>
      <point x="650" y="0" type="line"/>
      <point x="650" y="400" type="line"/>
      <point x="550" y="400" type="line"/>
    </contour>
    <contour>
      <point x="50" y="0" type="line"/>
      <point x="150" y="0" type="line"/>
      <point x="150" y="600" type="line"/>
      <point x="50" y="600" type="line"/>
    </contour>
    <contour>
      <point x="450" y="0" type="line"/>
      <point x="550" y="0" type="line"/>
      <point x="550" y="300" type="line"/>
      <point x="450" y="300" type="line"/>
    </contour>
    <contour>
      <point x="150" y="600" type="line"/>
      <point x="475" y="600" type="line"/>
      <point x="475" y="700" type="line"/>
      <point x="150" y="700" type="line"/>
    </contour>
    <contour>
      <point x="150" y="0" type="line"/>
      <point x="250" y="0" type="line"/>
      <point x="250" y="300" type="line"/>
      <point x="150" y="300" type="line"/>
    </contour>
  </outline>
</glyph>
<glyph name="u1F408" format="1">
  <advance width="900"/>
  <unicode hex="1F408"/>
  <outline>
    <contour>
      <point x="50" y="500" type="line"/>
      <point x="150" y="500" type="line"/>
      <point x="150" y="700" type="line"/>
      <point x="50" y="700" type="line"/>
    </contour>
    <contour>
      <point x="50" y="500" type="line"/>
      <point x="550" y="500" type="line"/>
      <point x="550" y="600" type="line"/>
      <point x="50" y="600" type="line"/>
    </contour>
    <contour>
      <point x="450" y="500" type="line"/>
      <point x="550" y="500" type="line"/>
      <point x="550" y="700" type="line"/>
      <point x="450" y="700" type="line"/>
    </contour>
    <contour>
      <point x="50" y="400" type="line"/>
      <point x="150" y="400" type="line"/>
      <point x="150" y="500" type="line"/>
      <point x="50" y="500" type="line"/>
    </contour>
    <contour>
      <point x="250" y="300" type="line"/>
      <point x="350" y="300" type="line"/>
      <point x="350" y="500" type="line"/>
      <point x="250" y="500" type="line"/>
    </contour>
    <contour>
      <point x="450" y="400" type="line"/>
      <point x="550" y="400" type="line"/>
      <point x="550" y="500" type="line"/>
      <point x="450" y="500" type="line"/>
    </contour>
    <contour>
      <point x="150" y="300" type="line"/>
      <point x="250" y="300" type="line"/>
      <point x="250" y="400" type="line"/>
      <point x="150" y="400" type="line"/>
    </contour>
    <contour>
      <point x="350" y="300" type="line"/>
      <point x="450" y="300" type="line"/>
      <point x="450" y="400" type="line"/>
      <point x="350" y="400" type="line"/>
    </contour>
    <contour>
      <point x="150" y="100" type="line"/>
      <point x="250" y="100" type="line"/>
      <point x="250" y="300" type="line"/>
      <point x="150" y="300" type="line"/>
    </contour>
    <contour>
      <point x="50" y="0" type="line"/>
      <point x="150" y="0" type="line"/>
      <point x="150" y="100" type="line"/>
      <point x="50" y="100" type="line"/>
    </contour>
    <contour>
      <point x="250" y="0" type="line"/>
      <point x="550" y="0" type="line"/>
      <point x="550" y="300" type="line"/>
      <point x="250" y="300" type="line"/>
    </contour>
    <contour>
      <point x="550" y="0" type="line"/>
      <point x="650" y="0" type="line"/>
      <point x="650" y="100" type="line"/>
      <point x="550" y="100" type="line"/>
    </contour>
    <contour>
      <point x="650" y="100" type="line"/>
      <point x="750" y="100" type="line"/>
      <point x="750" y="400" type="line"/>
      <point x="650" y="400" type="line"/>
    </contour>
    <contour>
      <point x="750" y="400" type="line"/>
      <point x="850" y="400" type="line"/>
      <point x="850" y="500" type="line"/>
      <point x="750" y="500" type="line"/>
    </contour>
  </outline>
</glyph>
<glyph name="u1F411" format="1">
  <advance width="1100"/>
  <unicode hex="1F411"/>
  <outline>
    <contour>
      <point x="650" y="0" type="line"/>
      <point x="750" y="0" type="line"/>
      <point x="750" y="200" type="line"/>
      <point x="650" y="200" type="line"/>
    </contour>
    <contour>
      <point x="450" y="500" type="line"/>
      <point x="550" y="500" type="line"/>
      <point x="550" y="600" type="line"/>
      <point x="450" y="600" type="line"/>
    </contour>
    <contour>
      <point x="550" y="600" type="line"/>
      <point x="650" y="600" type="line"/>
      <point x="650" y="700" type="line"/>
      <point x="550" y="700" type="line"/>
    </contour>
    <contour>
      <point x="650" y="500" type="line"/>
      <point x="750" y="500" type="line"/>
      <point x="750" y="600" type="line"/>
      <point x="650" y="600" type="line"/>
    </contour>
    <contour>
      <point x="750" y="600" type="line"/>
      <point x="850" y="600" type="line"/>
      <point x="850" y="700" type="line"/>
      <point x="750" y="700" type="line"/>
    </contour>
    <contour>
      <point x="750" y="200" type="line"/>
      <point x="850" y="200" type="line"/>
      <point x="850" y="300" type="line"/>
      <point x="750" y="300" type="line"/>
    </contour>
    <contour>
      <point x="550" y="400" type="line"/>
      <point x="650" y="400" type="line"/>
      <point x="650" y="500" type="line"/>
      <point x="550" y="500" type="line"/>
    </contour>
    <contour>
      <point x="750" y="400" type="line"/>
      <point x="850" y="400" type="line"/>
      <point x="850" y="500" type="line"/>
      <point x="750" y="500" type="line"/>
    </contour>
    <contour>
      <point x="650" y="300" type="line"/>
      <point x="750" y="300" type="line"/>
      <point x="750" y="400" type="line"/>
      <point x="650" y="400" type="line"/>
    </contour>
    <contour>
      <point x="450" y="300" type="line"/>
      <point x="550" y="300" type="line"/>
      <point x="550" y="400" type="line"/>
      <point x="450" y="400" type="line"/>
    </contour>
    <contour>
      <point x="550" y="200" type="line"/>
      <point x="650" y="200" type="line"/>
      <point x="650" y="300" type="line"/>
      <point x="550" y="300" type="line"/>
    </contour>
    <contour>
      <point x="350" y="400" type="line"/>
      <point x="450" y="400" type="line"/>
      <point x="450" y="500" type="line"/>
      <point x="350" y="500" type="line"/>
    </contour>
    <contour>
      <point x="350" y="200" type="line"/>
      <point x="450" y="200" type="line"/>
      <point x="450" y="300" type="line"/>
      <point x="350" y="300" type="line"/>
    </contour>
    <contour>
      <point x="450" y="0" type="line"/>
      <point x="550" y="0" type="line"/>
      <point x="550" y="200" type="line"/>
      <point x="450" y="200" type="line"/>
    </contour>
    <contour>
      <point x="50" y="600" type="line"/>
      <point x="450" y="600" type="line"/>
      <point x="450" y="700" type="line"/>
      <point x="50" y="700" type="line"/>
    </contour>
    <contour>
      <point x="150" y="300" type="line"/>
      <point x="350" y="300" type="line"/>
      <point x="350" y="600" type="line"/>
      <point x="150" y="600" type="line"/>
    </contour>
    <contour>
      <point x="850" y="500" type="line"/>
      <point x="950" y="500" type="line"/>
      <point x="950" y="600" type="line"/>
      <point x="850" y="600" type="line"/>
    </contour>
    <contour>
      <point x="850" y="300" type="line"/>
      <point x="950" y="300" type="line"/>
      <point x="950" y="400" type="line"/>
      <point x="850" y="400" type="line"/>
    </contour>
    <contour>
      <point x="850" y="0" type="line"/>
      <point x="950" y="0" type="line"/>
      <point x="950" y="200" type="line"/>
      <point x="850" y="200" type="line"/>
    </contour>
    <contour>
      <point x="950" y="200" type="line"/>
      <point x="1050" y="200" type="line"/>
      <point x="1050" y="300" type="line"/>
      <point x="950" y="300" type="line"/>
    </contour>
    <contour>
      <point x="950" y="400" type="line"/>
      <point x="1050" y="400" type="line"/>
      <point x="1050" y="500" type="line"/>
      <point x="950" y="500" type="line"/>
    </contour>
  </outline>
</glyph>
<glyph name="u1F41F" format="1">
  <advance width="1100"/>
  <unicode hex="1F41F"/>
  <outline>
    <contour>
      <point x="150" y="500" type="line"/>
      <point x="250" y="500" type="line"/>
      <point x="250" y="400" type="line"/>
      <point x="150" y="400" type="line"/>
    </contour>
    <contour>
      <point x="550" y="100" type="line"/>
      <point x="550" y="700" type="line"/>
      <point x="450" y="700" type="line"/>
      <point x="450" y="100" type="line"/>
    </contour>
    <contour>
      <point x="850" y="300" type="line"/>
      <point x="850" y="400" type="line"/>
      <point x="350" y="400" type="line"/>
      <point x="350" y="300" type="line"/>
    </contour>
    <contour>
      <point x="950" y="200" type="line"/>
      <point x="950" y="500" type="line"/>
      <point x="850" y="500" type="line"/>
      <point x="850" y="200" type="line"/>
    </contour>
    <contour>
      <point x="50" y="100" type="line"/>
      <point x="150" y="100" type="line"/>
      <point x="150" y="200" type="line"/>
      <point x="50" y="200" type="line"/>
    </contour>
    <contour>
      <point x="50" y="300" type="line"/>
      <point x="150" y="300" type="line"/>
      <point x="150" y="500" type="line"/>
      <point x="50" y="500" type="line"/>
    </contour>
    <contour>
      <point x="150" y="100" type="line"/>
      <point x="350" y="100" type="line"/>
      <point x="350" y="600" type="line"/>
      <point x="150" y="600" type="line"/>
    </contour>
    <contour>
      <point x="950" y="100" type="line"/>
      <point x="1050" y="100" type="line"/>
      <point x="1050" y="600" type="line"/>
      <point x="950" y="600" type="line"/>
    </contour>
    <contour>
      <point x="650" y="100" type="line"/>
      <point x="750" y="100" type="line"/>
      <point x="750" y="600" type="line"/>
      <point x="650" y="600" type="line"/>
    </contour>
  </outline>
</glyph>
<glyph name="u1F440" format="1">
  <advance width="1300"/>
  <unicode hex="1F440"/>
  <outline>
    <contour>
      <point x="750" y="100" type="line"/>
      <point x="850" y="100" type="line"/>
      <point x="850" y="600" type="line"/>
      <point x="750" y="600" type="line"/>
    </contour>
    <contour>
      <point x="850" y="200" type="line"/>
      <point x="950" y="200" type="line"/>
      <point x="950" y="400" type="line"/>
      <point x="850" y="400" type="line"/>
    </contour>
    <contour>
      <point x="850" y="0" type="line"/>
      <point x="1050" y="0" type="line"/>
      <point x="1050" y="100" type="line"/>
      <point x="850" y="100" type="line"/>
    </contour>
    <contour>
      <point x="1050" y="100" type="line"/>
      <point x="1150" y="100" type="line"/>
      <point x="1150" y="200" type="line"/>
      <point x="1050" y="200" type="line"/>
    </contour>
    <contour>
      <point x="850" y="600" type="line"/>
      <point x="1050" y="600" type="line"/>
      <point x="1050" y="700" type="line"/>
      <point x="850" y="700" type="line"/>
    </contour>
    <contour>
      <point x="1050" y="500" type="line"/>
      <point x="1150" y="500" type="line"/>
      <point x="1150" y="600" type="line"/>
      <point x="1050" y="600" type="line"/>
    </contour>
    <contour>
      <point x="1150" y="200" type="line"/>
      <point x="1250" y="200" type="line"/>
      <point x="1250" y="500" type="line"/>
      <point x="1150" y="500" type="line"/>
    </contour>
    <contour>
      <point x="450" y="600" type="line"/>
      <point x="450" y="100" type="line"/>
      <point x="550" y="100" type="line"/>
      <point x="550" y="600" type="line"/>
    </contour>
    <contour>
      <point x="350" y="400" type="line"/>
      <point x="350" y="200" type="line"/>
      <point x="450" y="200" type="line"/>
      <point x="450" y="400" type="line"/>
    </contour>
    <contour>
      <point x="250" y="100" type="line"/>
      <point x="250" y="0" type="line"/>
      <point x="450" y="0" type="line"/>
      <point x="450" y="100" type="line"/>
    </contour>
    <contour>
      <point x="150" y="200" type="line"/>
      <point x="150" y="100" type="line"/>
      <point x="250" y="100" type="line"/>
      <point x="250" y="200" type="line"/>
    </contour>
    <contour>
      <point x="250" y="700" type="line"/>
      <point x="250" y="600" type="line"/>
      <point x="450" y="600" type="line"/>
      <point x="450" y="700" type="line"/>
    </contour>
    <contour>
      <point x="150" y="600" type="line"/>
      <point x="150" y="500" type="line"/>
      <point x="250" y="500" type="line"/>
      <point x="250" y="600" type="line"/>
    </contour>
    <contour>
      <point x="50" y="500" type="line"/>
      <point x="50" y="200" type="line"/>
      <point x="150" y="200" type="line"/>
      <point x="150" y="500" type="line"/>
    </contour>
  </outline>
</glyph>
<glyph name="u1F449" format="1">
  <advance width="1600"/>
  <unicode hex="1F449"/>
  <outline>
    <contour>
      <point x="50" y="500" type="line"/>
      <point x="250" y="500" type="line"/>
      <point x="250" y="600" type="line"/>
      <point x="50" y="600" type="line"/>
    </contour>
    <contour>
      <point x="50" y="0" type="line"/>
      <point x="950" y="0" type="line"/>
      <point x="950" y="100" type="line"/>
      <point x="50" y="100" type="line"/>
    </contour>
    <contour>
      <point x="950" y="100" type="line"/>
      <point x="1050" y="100" type="line"/>
      <point x="1050" y="300" type="line"/>
      <point x="950" y="300" type="line"/>
    </contour>
    <contour>
      <point x="750" y="200" type="line"/>
      <point x="950" y="200" type="line"/>
      <point x="950" y="300" type="line"/>
      <point x="750" y="300" type="line"/>
    </contour>
    <contour>
      <point x="1050" y="300" type="line"/>
      <point x="1150" y="300" type="line"/>
      <point x="1150" y="400" type="line"/>
      <point x="1050" y="400" type="line"/>
    </contour>
    <contour>
      <point x="650" y="400" type="line"/>
      <point x="1450" y="400" type="line"/>
      <point x="1450" y="500" type="line"/>
      <point x="650" y="500" type="line"/>
    </contour>
    <contour>
      <point x="1450" y="500" type="line"/>
      <point x="1550" y="500" type="line"/>
      <point x="1550" y="600" type="line"/>
      <point x="1450" y="600" type="line"/>
    </contour>
    <contour>
      <point x="250" y="600" type="line"/>
      <point x="1450" y="600" type="line"/>
      <point x="1450" y="700" type="line"/>
      <point x="250" y="700" type="line"/>
    </contour>
  </outline>
</glyph>
<glyph name="u1F44A" format="1">
  <advance width="1100"/>
  <unicode hex="1F44A"/>
  <outline>
    <contour>
      <point x="50" y="0" type="line"/>
      <point x="150" y="0" type="line"/>
      <point x="150" y="300" type="line"/>
      <point x="50" y="300" type="line"/>
    </contour>
    <contour>
      <point x="150" y="-100" type="line"/>
      <point x="250" y="-100" type="line"/>
      <point x="250" y="0" type="line"/>
      <point x="150" y="0" type="line"/>
    </contour>
    <contour>
      <point x="650" y="300" type="line"/>
      <point x="750" y="300" type="line"/>
      <point x="750" y="400" type="line"/>
      <point x="650" y="400" type="line"/>
    </contour>
    <contour>
      <point x="550" y="0" type="line"/>
      <point x="650" y="0" type="line"/>
      <point x="650" y="200" type="line"/>
      <point x="550" y="200" type="line"/>
    </contour>
    <contour>
      <point x="850" y="300" type="line"/>
      <point x="950" y="300" type="line"/>
      <point x="950" y="400" type="line"/>
      <point x="850" y="400" type="line"/>
    </contour>
    <contour>
      <point x="750" y="0" type="line"/>
      <point x="850" y="0" type="line"/>
      <point x="850" y="200" type="line"/>
      <point x="750" y="200" type="line"/>
    </contour>
    <contour>
      <point x="150" y="300" type="line"/>
      <point x="250" y="300" type="line"/>
      <point x="250" y="400" type="line"/>
      <point x="150" y="400" type="line"/>
    </contour>
    <contour>
      <point x="250" y="-200" type="line"/>
      <point x="950" y="-200" type="line"/>
      <point x="950" y="-100" type="line"/>
      <point x="250" y="-100" type="line"/>
    </contour>
    <contour>
      <point x="950" y="-100" type="line"/>
      <point x="1050" y="-100" type="line"/>
      <point x="1050" y="300" type="line"/>
      <point x="950" y="300" type="line"/>
    </contour>
    <contour>
      <point x="650" y="400" type="line"/>
      <point x="850" y="400" type="line"/>
      <point x="850" y="500" type="line"/>
      <point x="650" y="500" type="line"/>
    </contour>
    <contour>
      <point x="250" y="100" type="line"/>
      <point x="350" y="100" type="line"/>
      <point x="350" y="500" type="line"/>
      <point x="250" y="500" type="line"/>
    </contour>
    <contour>
      <point x="450" y="300" type="line"/>
      <point x="550" y="300" type="line"/>
      <point x="550" y="500" type="line"/>
      <point x="450" y="500" type="line"/>
    </contour>
    <contour>
      <point x="350" y="500" type="line"/>
      <point x="650" y="500" type="line"/>
      <point x="650" y="600" type="line"/>
      <point x="350" y="600" type="line"/>
    </contour>
  </outline>
</glyph>
<glyph name="u1F480" format="1">
  <advance width="600"/>
  <unicode hex="1F480"/>
  <outline>
    <contour>
      <point x="50" y="500" type="line"/>
      <point x="550" y="500" type="line"/>
      <point x="550" y="600" type="line"/>
      <point x="50" y="600" type="line"/>
    </contour>
    <contour>
      <point x="50" y="400" type="line"/>
      <point x="150" y="400" type="line"/>
      <point x="150" y="500" type="line"/>
      <point x="50" y="500" type="line"/>
    </contour>
    <contour>
      <point x="250" y="400" type="line"/>
      <point x="350" y="400" type="line"/>
      <point x="350" y="500" type="line"/>
      <point x="250" y="500" type="line"/>
    </contour>
    <contour>
      <point x="450" y="400" type="line"/>
      <point x="550" y="400" type="line"/>
      <point x="550" y="500" type="line"/>
      <point x="450" y="500" type="line"/>
    </contour>
    <contour>
      <point x="150" y="300" type="line"/>
      <point x="250" y="300" type="line"/>
      <point x="250" y="400" type="line"/>
      <point x="150" y="400" type="line"/>
    </contour>
    <contour>
      <point x="350" y="300" type="line"/>
      <point x="450" y="300" type="line"/>
      <point x="450" y="400" type="line"/>
      <point x="350" y="400" type="line"/>
    </contour>
    <contour>
      <point x="150" y="200" type="line"/>
      <point x="450" y="200" type="line"/>
      <point x="450" y="300" type="line"/>
      <point x="150" y="300" type="line"/>
    </contour>
    <contour>
      <point x="250" y="100" type="line"/>
      <point x="350" y="100" type="line"/>
      <point x="350" y="200" type="line"/>
      <point x="250" y="200" type="line"/>
    </contour>
  </outline>
</glyph>
<glyph name="u1F4C1" format="1">
  <advance width="900"/>
  <unicode hex="1F4C1"/>
  <outline>
    <contour>
      <point x="350" y="100" type="line"/>
      <point x="750" y="100" type="line"/>
      <point x="750" y="500" type="line"/>
      <point x="350" y="500" type="line"/>
    </contour>
    <contour>
      <point x="50" y="0" type="line"/>
      <point x="150" y="0" type="line"/>
      <point x="150" y="700" type="line"/>
      <point x="50" y="700" type="line"/>
    </contour>
    <contour>
      <point x="50" y="0" type="line"/>
      <point x="850" y="0" type="line"/>
      <point x="850" y="100" type="line"/>
      <point x="50" y="100" type="line"/>
    </contour>
    <contour>
      <point x="150" y="100" type="line"/>
      <point x="350" y="100" type="line"/>
      <point x="350" y="600" type="line"/>
      <point x="150" y="600" type="line"/>
    </contour>
    <contour>
      <point x="50" y="600" type="line"/>
      <point x="350" y="600" type="line"/>
      <point x="350" y="700" type="line"/>
      <point x="50" y="700" type="line"/>
    </contour>
    <contour>
      <point x="750" y="0" type="line"/>
      <point x="850" y="0" type="line"/>
      <point x="850" y="500" type="line"/>
      <point x="750" y="500" type="line"/>
    </contour>
    <contour>
      <point x="350" y="500" type="line"/>
      <point x="750" y="500" type="line"/>
      <point x="750" y="600" type="line"/>
      <point x="350" y="600" type="line"/>
    </contour>
  </outline>
</glyph>
<glyph name="u1F4C5" format="1">
  <advance width="1000"/>
  <unicode hex="1F4C5"/>
  <outline>
    <contour>
      <point x="50" y="-100" type="line"/>
      <point x="150" y="-100" type="line"/>
      <point x="150" y="600" type="line"/>
      <point x="50" y="600" type="line"/>
    </contour>
    <contour>
      <point x="50" y="500" type="line"/>
      <point x="950" y="500" type="line"/>
      <point x="950" y="600" type="line"/>
      <point x="50" y="600" type="line"/>
    </contour>
    <contour>
      <point x="250" y="300" type="line"/>
      <point x="350" y="300" type="line"/>
      <point x="350" y="400" type="line"/>
      <point x="250" y="400" type="line"/>
    </contour>
    <contour>
      <point x="350" y="100" type="line"/>
      <point x="450" y="100" type="line"/>
      <point x="450" y="400" type="line"/>
      <point x="350" y="400" type="line"/>
    </contour>
    <contour>
      <point x="50" y="-100" type="line"/>
      <point x="850" y="-100" type="line"/>
      <point x="850" y="0" type="line"/>
      <point x="50" y="0" type="line"/>
    </contour>
    <contour>
      <point x="850" y="0" type="line"/>
      <point x="950" y="0" type="line"/>
      <point x="950" y="600" type="line"/>
      <point x="850" y="600" type="line"/>
    </contour>
    <contour>
      <point x="50" y="600" type="line"/>
      <point x="950" y="600" type="line"/>
      <point x="950" y="700" type="line"/>
      <point x="50" y="700" type="line"/>
    </contour>
    <contour>
      <point x="550" y="300" type="line"/>
      <point x="650" y="300" type="line"/>
      <point x="650" y="400" type="line"/>
      <point x="550" y="400" type="line"/>
    </contour>
    <contour>
      <point x="650" y="100" type="line"/>
      <point x="750" y="100" type="line"/>
      <point x="750" y="400" type="line"/>
      <point x="650" y="400" type="line"/>
    </contour>
  </outline>
</glyph>
<glyph name="u1F4CD" format="1">
  <advance width="600"/>
  <unicode hex="1F4CD"/>
  <outline>
    <contour>
      <point x="250" y="0" type="line"/>
      <point x="350" y="0" type="line"/>
      <point x="350" y="500" type="line"/>
      <point x="250" y="500" type="line"/>
    </contour>
    <contour>
      <point x="150" y="600" type="line"/>
      <point x="450" y="600" type="line"/>
      <point x="450" y="700" type="line"/>
      <point x="150" y="700" type="line"/>
    </contour>
    <contour>
      <point x="150" y="200" type="line"/>
      <point x="450" y="200" type="line"/>
      <point x="450" y="300" type="line"/>
      <point x="150" y="300" type="line"/>
    </contour>
    <contour>
      <point x="50" y="300" type="line"/>
      <point x="550" y="300" type="line"/>
      <point x="550" y="600" type="line"/>
      <point x="50" y="600" type="line"/>
    </contour>
  </outline>
</glyph>
<glyph name="u1F4D5" format="1">
  <advance width="600"/>
  <unicode hex="1F4D5"/>
  <outline>
    <contour>
      <point x="50" y="100" type="line"/>
      <point x="150" y="100" type="line"/>
      <point x="150" y="600" type="line"/>
      <point x="50" y="600" type="line"/>
    </contour>
    <contour>
      <point x="150" y="600" type="line"/>
      <point x="450" y="600" type="line"/>
      <point x="450" y="700" type="line"/>
      <point x="150" y="700" type="line"/>
    </contour>
    <contour>
      <point x="450" y="100" type="line"/>
      <point x="550" y="100" type="line"/>
      <point x="550" y="700" type="line"/>
      <point x="450" y="700" type="line"/>
    </contour>
    <contour>
      <point x="150" y="500" type="line"/>
      <point x="450" y="500" type="line"/>
      <point x="450" y="600" type="line"/>
      <point x="150" y="600" type="line"/>
    </contour>
    <contour>
      <point x="150" y="0" type="line"/>
      <point x="550" y="0" type="line"/>
      <point x="550" y="100" type="line"/>
      <point x="150" y="100" type="line"/>
    </contour>
  </outline>
</glyph>
